<?xml version="1.0" encoding="UTF-8" standalone="no"?>
<!-- Created with Inkscape (http://www.inkscape.org/) -->

<svg xmlns:dc="http://purl.org/dc/elements/1.1/" xmlns:cc="http://creativecommons.org/ns#" xmlns:rdf="http://www.w3.org/1999/02/22-rdf-syntax-ns#" xmlns:svg="http://www.w3.org/2000/svg" xmlns="http://www.w3.org/2000/svg" xmlns:sodipodi="http://sodipodi.sourceforge.net/DTD/sodipodi-0.dtd" xmlns:inkscape="http://www.inkscape.org/namespaces/inkscape" width="306.92059mm" height="117.12397mm" viewBox="0 0 306.92059 117.12397" version="1.1" id="svg2086" inkscape:version="1.0.1 (3bc2e813f5, 2020-09-07)" sodipodi:docname="svg-1024+.svg">
  <defs id="defs2080" />
  <sodipodi:namedview id="base" pagecolor="#ffffff" bordercolor="#666666" borderopacity="1.0" inkscape:pageopacity="0.0" inkscape:pageshadow="2" inkscape:zoom="0.34074713" inkscape:cx="677.15029" inkscape:cy="324.19378" inkscape:document-units="mm" inkscape:current-layer="layer1" inkscape:document-rotation="0" showgrid="false" inkscape:window-width="1920" inkscape:window-height="1017" inkscape:window-x="-8" inkscape:window-y="-8" inkscape:window-maximized="1" />
  <metadata id="metadata2083">
    <rdf:RDF>
      <cc:Work rdf:about="">
        <dc:format>image/svg+xml</dc:format>
        <dc:type rdf:resource="http://purl.org/dc/dcmitype/StillImage" />
        <dc:title />
      </cc:Work>
    </rdf:RDF>
  </metadata>
  <g inkscape:label="Layer 1" inkscape:groupmode="layer" id="layer1" transform="translate(73.329349,-62.390395)">
    <g id="g1315" style="display:inline;stroke:#999;stroke-width:2.00000003;stroke-miterlimit:4;stroke-dasharray:none;stroke-opacity:1" inkscape:export-xdpi="200" inkscape:export-ydpi="200" transform="matrix(0.26458333,0,0,0.26458333,468.08567,146.99582)">
      <path id="path1243-6" style="display:inline;fill:none;stroke:#999;stroke-width:2.00000003;stroke-linecap:butt;stroke-linejoin:miter;stroke-miterlimit:4;stroke-dasharray:none;stroke-opacity:1" d="m -1295.1496,-236.18661 c 8.4153,6.0891 3.1662,9.2884 7.8598,15.7949 -7.9773,-1.3232 -11.4484,-12.0852 -7.8598,-15.7949 -2.419,-0.3149 -3.9618,-0.6526 -5.4855,-0.8761 -20.8734,-3.0617 -39.3264,1.8141 -44.6791,22.2031 -6.9684,14.6482 -8.0958,20.2731 0.066,24.6389 -3.5815,-7.8973 5.2607,-7.8372 -0.066,-24.6389 17.5834,-30.9487 38.5355,-16.8209 70.5604,-23.0873 m 148.8614,215.5217 c -26.1409,-2.2814 -9.6094,29.2438 90.8633,-3.2205 100.47295,-32.4644 83.21985,-81.5924 142.41505,-53.1789 -5.0557,-16.8549 -32.5716,-69.8198 5.1345,-141.4933 -15.1433,-17.6331 -54.9464,0.4892 -66.8671,10.4064 -11.9208,9.9172 -36.2904,13.4424 -39.6761,10.4952 -32.30385,-10.8468 -32.89325,22.5327 -34.14185,26.4786 -10.7013,-0.3457 -13.3685,3.2646 -12.9981,9.7991 0.1063,1.8743 -1.8073,4.4672 -5.1081,4.3322 -16.6374,0.1107 -12.4582,7.1911 -13.9788,12.363 -0.8654,17.4356 -10.5625,14.5561 -15.548,15.8222 -16.6005,3.7862 -11.7262,16.3792 -12.3933,23.5597 5.5627,22.4447 13.9666,32.8754 18.7512,41.6347 28.9379,40.2542 54.492,20.0558 0,0 -10.025,-1.1878 -19.5971,-2.8216 -28.9329,-4.6881 -60.1546,-8.4632 -105.8156,-57.6509 -163.9669,-131.0929 -7.6323,-9.6391 -11.8008,-26.3047 -12.4149,-36.7391 -2.8298,0.8629 -17.1483,2.9558 -20.3952,1.7603 -6.0728,-4.3149 -21.3944,-24.04659 -20.3451,-29.31264 -22.2782,-0.70965 -52.1989,16.23984 -55.2976,34.01624 -2.9174,10.7395 -6.0753,15.2769 4.4386,22.3508 -3.7221,-11.6516 1.3545,-17.3996 -4.3285,-22.5041 -156.8975,-140.92722 -334.8676,-96.21534 -363.2975,29.6415 1.2041,81.0067 101.2731,69.4138 -0.1215,-0.9488 -112.7486,-43.0635 -206.7507,-6.8429 -312.0822,-18.4582 m 810.3205,189.8032 c -33.1712,-8.4762 -221.2501,-27.6255 -317.8528,29.8872 -114.8237,68.8774 -234.2219,117.8512 -350.0409,-15.7695 -32.2393,-51.2996 -97.1302,-25.1181 -136.6856,-46.1841 m 914.5498,41.2398 c 17.8148,-0.4835 57.2028,18.3687 41.4393,61.527 -24.2541,44.8381 -78.8411,35.2736 -95.0203,39.3757 -61.2799,5.9621 -136.1963,18.8099 -198.8033,35.1898 -24.7117,6.4653 -46.7831,8.735 -62.9391,8.1483 -97.5182,-18.491 -50.2248,-77.7288 -35.7824,-81.2725 17.4801,-6.9631 35.0201,-14.6661 52.6466,-15.5789 101.1748,-5.239 145.4889,-34.0776 188.4887,-56.5628 95.1276,-22.9297 98.7954,42.3508 38.1098,15.1364 -10.3891,-4.8474 -36.656,-15.0933 -38.1098,-15.1364 m -404.1289,-154.7876 c -6.611,-7.4518 -34.4015,-20.9019 -53.6222,-39.1119 5.8484,-3.8361 22.4984,5.7523 41.4549,13.2812 4.3872,-0.5589 -38.2094,-30.6094 -42.4546,-33.1721 -4.8282,-10.70755 56.0378,12.6163 56.5504,21.9992 -8.6521,-2.473 -15.7433,-13.4291 -21.1263,-21.72 -0.7545,-2.0128 -1.0741,-11.70433 4.1131,-11.04439 4.6431,1.80203 1.794,10.02319 -4.1131,11.04439 -11.1573,-4.7404 -13.5141,-11.05971 -29.4953,-22.05995 -9.6196,-14.3255 6.6316,-11.45056 11.0514,-9.17538 24.3994,12.56002 46.0811,33.14383 59.8843,46.43353 -12.3977,-18.7267 -21.4908,-38.69972 -46.0615,-53.61326 -6.5275,-4.21107 -8.7657,-13.78863 15.1643,-8.41656 34.2553,24.80831 40.2434,40.14652 62.8588,63.70622 10.8827,10.6552 21.6803,20.5787 19.4136,24.5849 -2.5343,2.156 -15.8802,-5.6389 -17.7542,-23.8081 -1.3974,-6.2498 -8.2678,-27.8822 13.2775,-44.11372 1.5096,13.13986 1.5359,26.00102 12.9485,53.23092 3.7909,16.8492 7.7346,33.7949 7.1695,47.9336 -0.6912,17.2943 7.7474,32.1498 18.2291,45.4926 24.8058,45.5964 32.4053,59.4234 60.307,100.9829 16.0804,23.9517 43.7561,46.15 34.468,77.2816 -4.8744,16.3377 -3.0293,29.7071 -36.2411,34.1666 -38.7423,6.4847 -0.043,-33.992 29.8649,-15.4401 8.1811,-1.4345 -53.7856,72.8466 -96.4321,-35.6018 -13.6369,-24.5261 -12.956,-46.4765 -25.9964,-80.0726 -8.3029,-21.3909 -26.8276,-64.9528 -41.5283,-92.6104 -20.1719,-22.8329 -30.0107,-36.5558 -31.9302,-50.1774 z" />
    </g>
  </g>
</svg>
