<?xml version="1.0" encoding="UTF-8" standalone="no"?>
<!-- Created with Inkscape (http://www.inkscape.org/) -->

<svg xmlns:dc="http://purl.org/dc/elements/1.1/" xmlns:cc="http://creativecommons.org/ns#" xmlns:rdf="http://www.w3.org/1999/02/22-rdf-syntax-ns#" xmlns:svg="http://www.w3.org/2000/svg" xmlns="http://www.w3.org/2000/svg" xmlns:sodipodi="http://sodipodi.sourceforge.net/DTD/sodipodi-0.dtd" xmlns:inkscape="http://www.inkscape.org/namespaces/inkscape" width="173.57344mm" height="116.9968mm" viewBox="0 0 173.57344 116.9968" version="1.1" id="svg1511" inkscape:version="1.0.1 (3bc2e813f5, 2020-09-07)" sodipodi:docname="svg-1024.svg">
  <defs id="defs1505" />
  <sodipodi:namedview id="base" pagecolor="#ffffff" bordercolor="#666666" borderopacity="1.0" inkscape:pageopacity="0.0" inkscape:pageshadow="2" inkscape:zoom="0.34074713" inkscape:cx="-260.55861" inkscape:cy="563.95346" inkscape:document-units="mm" inkscape:current-layer="layer1" inkscape:document-rotation="0" showgrid="false" inkscape:window-width="1920" inkscape:window-height="1017" inkscape:window-x="-8" inkscape:window-y="-8" inkscape:window-maximized="1" />
  <metadata id="metadata1508">
    <rdf:RDF>
      <cc:Work rdf:about="">
        <dc:format>image/svg+xml</dc:format>
        <dc:type rdf:resource="http://purl.org/dc/dcmitype/StillImage" />
        <dc:title />
      </cc:Work>
    </rdf:RDF>
  </metadata>
  <g inkscape:label="Layer 1" inkscape:groupmode="layer" id="layer1" transform="translate(-174.7728,1.0460203)">
    <path style="display:inline;fill:none;stroke:#999;stroke-width:0.52916667;stroke-linecap:butt;stroke-linejoin:miter;stroke-miterlimit:4;stroke-dasharray:none;stroke-opacity:1" d="m 174.86636,102.75949 c 0.75139,-0.28406 37.70464,0.4434 37.54734,0.55951 11.97198,7.60767 27.44997,7.03738 41.33477,7.90155 -13.36572,-2.37524 -27.00594,-3.66498 -38.48806,-10.97505 -6.58971,-5.574045 -4.80161,-12.381819 2.97418,-15.283605 10.97759,-3.286924 26.26664,0.872046 36.88342,2.867393 -0.72303,0.04427 -3.5895,1.23063 -6.01821,-1.016678 -3.51706,-6.075838 1.25039,-16.585977 8.63674,-16.684659 1.87356,-1.133784 3.71633,-1.903383 5.49052,-1.862767 2.7136,0.984443 5.42576,2.159294 8.14732,2.103212 2.26462,1.322944 3.86217,1.789677 5.95259,2.205464 0.56351,-0.07616 1.14224,0.17853 1.29935,-0.891429 -0.33602,-1.183365 -1.85127,-1.242743 -2.25087,-1.445823 0.60595,1.208225 2.79091,1.602867 4.26903,2.192575 1.58507,0.240382 1.80853,-0.66966 0.79542,-1.711629 -1.57004,-0.838052 -3.18114,-1.933877 -4.84019,-3.115329 1.90157,1.117881 1.50577,2.202313 5.78941,3.530767 0.48453,-0.0031 1.07592,0.07234 0.72334,-1.18496 -1.55448,-1.102088 -2.9519,-2.308191 -4.34345,-3.570719 1.03259,0.632645 2.16249,1.883296 3.19878,2.03132 0.36254,-0.415705 0.0649,-0.555257 -0.79287,-1.699575 -0.95737,-1.277144 -2.76768,-2.615033 -3.62734,-2.960185 0.75494,0.0052 1.48371,-0.0061 0.95859,-0.809003 -8.49858,-7.149388 -11.08686,-2.120574 -16.60771,-3.290438 -4.37539,1.850142 -8.7404,3.800343 -13.0738,6.056493 1.06849,-3.242199 2.07581,-6.470613 0.47791,-9.112139 -1.11821,3.227943 -1.25232,7.093527 -2.52074,9.368615 -2.95118,0.01641 -5.21268,1.439019 -7.37057,3.072887 2.67909,-0.104688 6.17,-0.261332 7.34279,-3.889438 -1.49579,0.168444 -6.84874,-1.160463 -9.55132,3.801586 -1.52607,5.618887 0.83711,8.152453 1.65941,8.798113 2.42917,1.907397 6.99304,-0.522407 9.47836,-2.111195 -7.33351,4.875246 -10.30637,0.786717 -11.19831,-8.113057 -0.10993,-16.798949 3.59209,-27.463178 7.02051,-30.501952 1.64425,-0.953873 3.08734,-2.010265 6.58064,-2.021851 3.08311,0.188034 5.15093,-0.964102 7.49749,-2.345169 1.66849,-0.981985 3.0698,-2.452846 3.16918,-4.129595 -0.50022,-2.017607 -0.933,-4.021179 -1.73781,-6.102127 0.8219,4.537183 3.3473,7.811912 5.20422,9.193355 2.4207,1.540158 4.73642,1.085397 6.21181,-0.169627 1.57978,-2.56734 1.39216,-1.894208 2.85483,-2.925649 -0.94599,-0.339492 -1.97292,-0.949394 -3.25977,-0.145209 -2.4511,1.51298 -5.21163,0.518814 -6.37495,-1.003316 2.84168,1.247347 4.70482,0.751401 6.42249,-0.0037 1.02034,0.428739 2.45968,0.796332 4.11367,-0.446482 0.73435,-1.680609 1.43041,-2.117587 1.42176,-4.627212 0.0423,-3.036766 -2.72198,-0.955869 -4.63968,-0.426675 3.68956,-3.21124 3.7828,-3.506775 5.44229,-4.448212 -1.14982,-1.908842 -2.55756,-3.817081 -4.27056,-1.988503 0.69189,4.839991 -3.34216,6.516031 -7.08922,6.306386 -2.63747,2.117982 -5.01459,1.661972 -7.02571,0.235342 1.35067,2.416323 1.28031,4.707474 1.39012,7.247151 -0.42551,3.201392 -3.45774,1.572567 -4.17717,1.362607 -0.42682,0.949129 -1.15712,1.938454 -1.78898,2.647915 -0.31723,0.03086 -0.65032,0.113877 -0.674,-0.821499 -1.06822,1.538568 -1.9496,0.188394 -1.62321,-1.236935 0.32303,-2.148573 0.7262,-4.236088 1.40734,-6.111774 -0.23188,-4.665033 0.25818,-9.081672 1.69087,-12.045077 0.51224,-2.837201 1.3711,-5.7540446 2.93672,-5.9470079 3.2912,-7.01975829 7.73779,-8.265115 12.72953,-7.74283015 1.16236,1.84630215 1.36739,4.04555855 1.15837,6.42053795 1.49114,-1.3079466 1.28638,-4.3362827 0.18251,-6.07013172 3.39352,0.0926174 3.45263,0.61188863 4.19087,1.29060313 5.6815,4.57592379 5.47089,10.89828269 6.02739,14.65521769 1.03055,0.687761 2.16649,1.16019 2.12905,4.029967 2.02962,2.072463 1.54403,4.980945 -0.4213,8.381264 0.45355,2.008619 0.77687,4.520975 -1.06989,4.243583 -3.38675,1.601724 -6.59167,1.461178 -7.89985,-3.325828 1.96551,-3.552798 2.64035,-6.532636 2.23279,-9.52388 -0.27474,4.293526 -1.5399,6.596943 -2.74847,10.23423 2.75008,7.103153 9.80985,5.13124 12.18769,5.280449 6.47282,0.474967 8.31525,8.69747 8.56488,9.759595 2.02989,10.887414 2.88613,21.302784 3.29462,31.726423 -7.43244,-0.301252 -7.7279,-2.024224 -8.81973,-3.128785 -0.62079,-6.317697 -2.79312,-14.754434 -3.80637,-18.192702 -0.0905,2.97026 -0.30507,5.763969 -1.28172,7.473309 1.55715,4.706612 2.70036,9.573559 2.80291,14.868636 1.54371,-2.135888 1.42629,-1.55862 1.79615,-2.469284 -1.37694,6.145289 -7.97483,11.735591 -10.83807,12.643675 -1.76898,-1.530866 -3.99949,-2.754225 -6.88959,-1.821474 -2.55479,-0.176294 -5.16768,-0.432151 -7.01614,0.358947 0,0 -1.67045,0.912432 -0.55801,1.707402 1.25854,0.899366 4.93903,0.96511 5.09299,0.839525 -2.50036,2.579307 -6.64445,-1.656884 -9.19832,-2.371344 -1.15572,-0.306752 -2.74936,-0.06159 -2.40559,0.32892 1.84735,1.349176 3.60048,2.621272 5.38721,4.147693 1.32805,-0.04025 2.31235,0.677087 3.42225,1.095078 -1.84073,0.245256 -3.76928,0.278742 -7.90099,-3.446094 -1.57178,-0.343398 -1.50383,0.04157 -1.77223,0.550232 0.94893,1.766189 7.88588,4.937718 9.88158,4.449729 -0.33933,0.589967 -0.7684,0.832709 -1.23174,0.942969 -4.18809,-0.764302 -5.15956,-2.092036 -7.34454,-3.069743 l 4.62357,3.048915 c 0.18526,0.304988 -0.51036,0.0798 -1.00558,0.171982 6.13222,4.658722 11.33216,0.934741 13.59471,0.352121 2.09738,-1.176674 3.82495,-1.39046 5.51265,-1.337943 0.85976,0.116666 2.49719,-0.732694 3.15201,-2.969119 5.03153,-2.664045 14.74277,-12.511077 13.83776,-12.547352 -2.97908,2.302764 -4.59597,5.558192 -7.36129,8.146196 25.12401,0.384818 33.50972,4.734417 35.7374,10.071042 2.26362,6.026938 0.37373,7.484558 -0.15957,10.434588 -11.08199,-3.27468 -23.74759,-6.152 -22.89849,-12.420376 -4.27107,-0.128077 -8.79325,1.478952 -13.37538,3.346836 -6.33542,2.86864 -5.75617,2.47867 -10.46967,3.33667 -4.60457,0.79344 -7.01024,-0.33781 -9.33868,-1.536621 -3.70874,-3.615194 -6.99595,-1.617727 -9.72576,1.599621 -7.88112,-3.899582 -15.30771,-7.380586 -23.382,-10.838793 -1.56895,-0.471794 -3.71716,-0.534583 -0.84085,1.049004 3.61823,2.367759 22.3048,10.490099 26.50512,11.523619 4.20034,1.03352 4.90825,0.9403 4.90825,0.9403 5.76176,-7.083201 9.6106,-2.84972 12.78052,1.15226 3.53909,0.88544 6.20096,0.38644 9.49015,-0.0294 2.36572,1.04193 4.43018,2.29792 5.16977,4.49542 0.2031,-0.0564 2.90812,2.99903 3.37545,3.39324 1.22968,1.03732 27.82052,-4.50647 25.78653,-4.93876 -5.6102,2.55207 -3.73113,6.1516 -30.72794,6.15946 -5.56707,-1.83465 -9.77921,-2.89182 -14.65297,-0.92849 -6.18929,1.63719 -22.76213,-0.76166 -20.56619,-1.62004 2.6593,-1.03949 27.49846,-0.54694 28.39939,0.31943 1.09376,0.25826 2.89296,0.17898 6.81977,2.2291 3.1577,2.547 3.70009,1.83615 4.89154,0.85378 18.15912,-0.0607 35.17627,-0.54655 50.52367,-1.65412" id="path1172-9" sodipodi:nodetypes="ccccccccccccccccccccscccccccccsccccscccccccccccccccccccccccccccccccccccccccccccccscccccccccccccccccccccccccczccccscccscccc" inkscape:export-xdpi="200" inkscape:export-ydpi="200" />
  </g>
</svg>
