<?xml version="1.0" encoding="UTF-8" standalone="no"?>
<!-- Created with Inkscape (http://www.inkscape.org/) -->

<svg xmlns:dc="http://purl.org/dc/elements/1.1/" xmlns:cc="http://creativecommons.org/ns#" xmlns:rdf="http://www.w3.org/1999/02/22-rdf-syntax-ns#" xmlns:svg="http://www.w3.org/2000/svg" xmlns="http://www.w3.org/2000/svg" xmlns:sodipodi="http://sodipodi.sourceforge.net/DTD/sodipodi-0.dtd" xmlns:inkscape="http://www.inkscape.org/namespaces/inkscape" width="130.30354mm" height="107.63105mm" viewBox="0 0 130.30354 107.63105" version="1.1" id="svg918" inkscape:version="1.0.1 (3bc2e813f5, 2020-09-07)" sodipodi:docname="svg-768.svg">
  <defs id="defs912" />
  <sodipodi:namedview id="base" pagecolor="#ffffff" bordercolor="#666666" borderopacity="1.0" inkscape:pageopacity="0.0" inkscape:pageshadow="2" inkscape:zoom="1.3629885" inkscape:cx="233.93007" inkscape:cy="215.71039" inkscape:document-units="mm" inkscape:current-layer="layer1" inkscape:document-rotation="0" showgrid="false" inkscape:window-width="1920" inkscape:window-height="1017" inkscape:window-x="-8" inkscape:window-y="-8" inkscape:window-maximized="1" />
  <metadata id="metadata915">
    <rdf:RDF>
      <cc:Work rdf:about="">
        <dc:format>image/svg+xml</dc:format>
        <dc:type rdf:resource="http://purl.org/dc/dcmitype/StillImage" />
        <dc:title />
      </cc:Work>
    </rdf:RDF>
  </metadata>
  <g inkscape:label="Layer 1" inkscape:groupmode="layer" id="layer1" transform="translate(-95.110136,-33.874949)">
    <path style="display:inline;fill:none;stroke:#999;stroke-width:0.52916667;stroke-linecap:butt;stroke-linejoin:miter;stroke-miterlimit:4;stroke-dasharray:none;stroke-opacity:1" d="m 98.898019,132.58618 c 11.831741,9.49444 27.593101,6.3707 34.393401,2.09114 17.19778,-15.99137 0.28795,-36.875788 -12.38377,-43.737053 0.85683,2.544297 2.5414,3.714991 4.45886,5.065427 1.91747,1.350436 1.29125,1.634255 2.20419,3.579987 1.25582,2.676469 4.02289,1.423979 6.32228,1.787899 3.94311,-0.10524 11.03116,5.3974 7.65921,11.61765 -2.52765,4.22871 -3.32312,6.14764 -7.91171,6.14222 0.55465,-2.90976 2.65155,-4.84757 6.29074,-5.8134 6.69266,-0.61386 6.4807,0.33871 7.20825,1.39757 3.88028,8.2198 11.22376,5.05867 15.80642,2.06919 -11.4659,-0.93567 -14.7932,1.10862 -16.77133,2.82447 -6.76574,6.46117 -5.20033,13.38943 -2.16622,13.95422 13.88465,2.58459 17.52248,-4.84225 20.25198,-9.60031 2.72949,-4.75805 -0.58251,-22.67155 -5.22415,-29.1765 -4.77702,-6.899791 -0.5394,-14.307603 0.21479,-15.337732 5.00107,-7.061554 -0.57677,-8.771768 -2.68756,-13.18833 -0.9371,-1.559018 -1.79821,-1.477603 -2.37445,-0.348745 -3.36211,10.437773 -10.69157,15.737911 -6.62347,24.131831 -1.11586,-3.225102 1.91013,-19.450235 4.1969,-25.13048 -4.1478,0.720987 -8.28696,1.369756 -12.12628,-0.48827 -7.11679,-6.021831 5.02783,-4.388434 -1.06325,0.107106 -4.02405,2.508764 -14.47022,5.195806 -21.33767,-0.453366 -2.97537,-4.23927 -5.58205,-5.013089 -9.45719,-1.400236 2.10603,-0.677754 3.25562,-1.211567 5.23473,0.184349 0.89104,0.628483 2.12598,0.389159 3.23162,0.09024 1.3381,-0.732502 2.47587,-1.49029 3.11158,-2.311432 4.90945,-1.923533 7.37629,1.345536 11.6068,1.535068 -9.28931,0.697776 -15.27109,-2.871797 -16.55938,-8.618528 -0.40706,-2.583929 -3.64357,-4.912596 -10.74385,-4.113737 -2.44991,0.467689 -5.462828,0.598208 -8.369779,1.974491 2.171515,-2.006815 3.31216,-5.412137 7.742129,-2.603617 2.74323,1.502714 6.41356,6.833407 10.67639,5.238136 2.2959,-1.363482 4.92167,-2.506477 6.48742,-4.357968 2.16469,-1.73447 7.3173,-0.8021 9.09559,-2.544585 1.77826,-1.742485 5.23491,-6.174026 10.25686,-0.806849 1.24259,2.125824 0.4722,2.84063 4.61341,6.27658 4.46418,2.499736 9.02348,2.461779 11.27855,0.716733 0.60251,-0.284372 -4.28202,-0.1719 -9.79416,-0.38299 -12.60099,1.855997 -11.76893,0.742884 -20.41157,-3.27787 -10.20879,-4.556638 -13.53802,-17.09701 -14.43633,-15.378322 -1.69146,0.375018 1.27016,9.047314 9.86515,11.627541 8.43248,0.968423 15.51194,2.935187 21.95356,-1.08817 3.38807,-2.307749 6.09502,-5.130978 8.30175,-7.682939 8.87857,-8.22573 14.71102,3.009508 14.23004,6.872351 -0.48099,3.862842 -1.63008,4.448064 -3.18768,7.514248 -0.27106,0.907069 -1.17218,2.297613 2.60776,1.785287 5.07926,0.715791 6.50362,2.754463 7.8763,4.536863 3.11399,3.505925 8.14486,8.263385 8.0218,12.14311 -0.57399,6.745584 0.66813,7.5941 2.96773,9.249431 -0.53624,-2.587635 -1.38359,-5.214307 -2.97479,-7.934317 -3.15672,-4.578138 -1.68085,-7.154897 -6.04931,-9.283178 -1.90108,-1.292001 -5.49634,-4.219964 -5.64679,-2.929821 1.34978,2.001951 3.93007,3.148583 3.13241,6.396926 -0.40254,2.164323 5.46065,5.828437 7.13147,7.648263 3.26678,4.170957 4.10027,5.533286 2.955,8.594098 -1.14528,3.060811 -4.06141,6.707671 -6.5664,5.682914 -0.87403,-1.627926 -0.49903,-2.815752 0.0634,-5.021424 0.45206,-0.747853 0.49786,-1.912853 2.28653,-2.147682 3.65503,2.210785 0.78382,3.861301 -2.1126,0.589378 -3.03315,-1.856663 -3.46514,-3.129134 -2.61974,-3.802848 2.44567,-1.49085 3.84183,-0.931643 4.93027,-0.448231 2.92402,1.298665 3.54359,2.893341 2.64742,6.127383 -0.34372,1.240417 -0.52342,2.845001 -1.53839,4.106357 -2.83216,3.519575 -6.77024,11.299476 -7.51446,18.451903 -0.88993,7.6059 -1.44037,15.67522 -5.18374,23.27776 -5.02955,7.23124 -2.84089,6.96579 -0.80735,8.86205 16.88055,5.98278 38.14329,5.29435 59.73528,-4.69194" id="path926" sodipodi:nodetypes="ccczscccccccszccccccccccsccccccccczccccccccczcccccccccczcccccssscccc" inkscape:export-xdpi="200" inkscape:export-ydpi="200" />
  </g>
</svg>
