<?xml version="1.0" encoding="UTF-8" standalone="no"?>
<!-- Created with Inkscape (http://www.inkscape.org/) -->

<svg xmlns:dc="http://purl.org/dc/elements/1.1/" xmlns:cc="http://creativecommons.org/ns#" xmlns:rdf="http://www.w3.org/1999/02/22-rdf-syntax-ns#" xmlns:svg="http://www.w3.org/2000/svg" xmlns="http://www.w3.org/2000/svg" xmlns:sodipodi="http://sodipodi.sourceforge.net/DTD/sodipodi-0.dtd" xmlns:inkscape="http://www.inkscape.org/namespaces/inkscape" width="244.24437mm" height="95.327568mm" viewBox="0 0 244.24437 95.327568" version="1.1" id="svg2084" inkscape:version="1.0.1 (3bc2e813f5, 2020-09-07)" sodipodi:docname="svg-1024+.svg">
  <defs id="defs2078" />
  <sodipodi:namedview id="base" pagecolor="#ffffff" bordercolor="#666666" borderopacity="1.0" inkscape:pageopacity="0.0" inkscape:pageshadow="2" inkscape:zoom="0.50464667" inkscape:cx="553.49359" inkscape:cy="721.13032" inkscape:document-units="mm" inkscape:current-layer="layer1" inkscape:document-rotation="0" showgrid="false" inkscape:window-width="1920" inkscape:window-height="1057" inkscape:window-x="1912" inkscape:window-y="-8" inkscape:window-maximized="1" />
  <metadata id="metadata2081">
    <rdf:RDF>
      <cc:Work rdf:about="">
        <dc:format>image/svg+xml</dc:format>
        <dc:type rdf:resource="http://purl.org/dc/dcmitype/StillImage" />
        <dc:title />
      </cc:Work>
    </rdf:RDF>
  </metadata>
  <g inkscape:label="Layer 1" inkscape:groupmode="layer" id="layer1" transform="translate(48.794805,-16.592177)">
    <path id="path839-0" style="display:inline;fill:none;stroke:#999;stroke-width:0.52916667;stroke-linecap:butt;stroke-linejoin:miter;stroke-miterlimit:4;stroke-dasharray:none;stroke-opacity:1" d="m 122.94608,103.72585 c 2.30584,-4.869264 4.6682,-9.872598 6.38685,-14.689745 -2.15392,-1.058066 -6.89988,-2.079628 -13.22604,-5.126265 -0.71226,-0.343017 -1.18107,-0.26443 -1.31128,0.09658 l -6.53925,15.168803 c -0.30295,1.033007 -0.0985,1.761867 0.79835,2.075737 l 2.23539,1.03785 c 0,0 -2.76194,-1.90239 -2.23539,-3.193406 0.49369,-1.210461 4.45942,-8.963618 6.22022,-15.069466 0.28295,-0.981141 1.5225,-0.828617 1.77409,-0.728802 l 11.1906,4.1213 c 0.4087,0.258829 1.04074,0.343117 0.69078,1.194885 -1.85568,5.015542 -3.70951,9.83691 -5.98432,15.112529 z M -48.700301,95.103604 c 1.777207,-1.249598 27.708438,-1.145231 26.186025,0.159671 -0.14867,5.155975 0.942552,8.822105 2.474913,9.260925 1.797023,-0.78398 3.587802,-1.56082 4.87,-1.75638 5.8469467,-1.0786 15.15456575,-4.524303 18.8411637,-8.46257 1.357207,-2.687799 1.577419,-5.256559 4.07162,-8.063397 0.702019,-0.42346 1.32551,-0.902274 1.756384,-1.516869 0.121734,-0.276341 -0.04593,-0.484484 -0.159676,-0.878189 -0.137425,-0.47579 0.256275,-0.684948 0.479001,-0.878203 0.9970833,-1.032338 1.1378673,-1.715055 -0.522102,-1.843161 -1.320906,0.584708 -2.003716,-0.160213 -2.431785,-0.871239 -1.3335,-1.757362 -2.66962,-3.350402 -4.531413,-5.104463 -1.63202995,-1.071261 -1.88142595,-0.156041 -1.136941,0.553836 1.500002,2.25614 3.930914,4.51448 5.477007,6.381859 -0.894159,-0.678625 -1.504024,-0.03409 -2.12389,0.563843 -1.183402,0.9412 -1.993556,7.554973 -5.18932595,8.941567 -1.72018805,0.414573 -2.65877105,0.951336 -6.58000205,1.021742 -3.5595717,-0.304422 -4.7725277,0.396562 -6.2735087,0.97414 -1.046718,0.409218 -2.095712,0.837589 -3.193415,1.676559 -1.585039,1.71967 -1.254919,-0.238144 0.08538,-1.345221 0.524245,-0.25648 1.602423,-1.589231 2.629032,-1.049854 -2.971667,1.475629 -5.313997,1.141812 -8.397954,0.985248 -2.014458,-0.197821 -1.62187,-1.813701 -1.341993,-4.737508 0.54221,-5.663769 -0.227939,-10.316758 0.638677,-15.248586 1.196341,-3.631332 2.859167,-6.29621 5.109475,-7.744055 2.484173,-1.458526 4.994778,-2.599946 7.424685,-4.710282 0.9665227,-0.553474 1.4940217,-1.540446 2.1555867,-2.395074 1.245446,3.11553 0.679741,5.257856 0.159676,7.424714 -2.4431627,1.03886 -2.6496697,1.679858 -3.2732927,2.395058 -0.953109,4.999686 -0.518795,8.157459 0.07985,11.097136 1.116066,3.229986 2.6604647,4.80364 4.4707967,5.348981 0.694875,0.147034 1.157235,0.03582 1.916033,0 1.107678,-0.153856 1.197266,-0.936318 -0.07983,-0.958025 -3.566768,0.361487 -4.621159,-2.584074 -5.2691237,-4.071615 -0.861721,-5.120386 -0.923925,-8.689787 -0.175339,-10.098942 1.2616127,-3.926107 5.6843077,-1.695106 5.5242877,-0.998193 1.370674,3.428709 0.237861,5.348978 -0.239474,7.664201 -0.690404,1.939131 -1.605571,3.484494 -2.794265,4.550627 -1.553898,1.696455 -3.4331537,2.125321 -5.1892727,3.033757 -0.634444,0.265483 -1.565433,1.457542 0.478976,0.718519 3.4098967,-0.771046 4.6861937,-2.573295 5.9078537,-3.672441 1.958102,-2.2357 2.759366,-4.505444 3.193442,-6.786014 0.233018,-1.863109 0.697283,-3.367982 -0.04172,-5.480389 -0.637011,-0.90497 -1.277064,-1.840518 -2.345214,-1.92469 -0.808831,-0.131525 -1.138528,-0.51593 -0.86233,-1.911152 0.06527,-1.07877 0.493342,-1.620676 -0.147531,-3.744386 -0.765916,-2.541273 0.39915,-2.745536 0.692467,-3.140244 1.957864,5.4357 2.777702,5.59164 4.083182,6.997361 2.36037505,1.930554 3.54891,1.488429 4.129749,1.459463 3.930253,-0.632934 3.770948,-2.142969 5.574956,-3.288625 -1.959292,1.030906 -3.427994,2.400413 -6.265227,2.02452 -4.302707,-0.646785 -5.523918,-4.164515 -6.894089,-7.51781 2.173367,-2.15718 3.032839,-4.659299 3.193441,-7.344863 -0.01984,-1.175641 0.133932,-2.317654 -0.399203,-3.592605 -2.321692,-1.341064 -0.717021,-4.822351 -0.07982,-4.949801 1.10535,-0.187243 1.213644,0.02477 1.699657,0.556628 0.59073505,0.646435 1.56535405,-0.416396 1.68936405,-1.596033 0.213334,-0.88913 0.443918,-1.748472 0.87495095,-2.262087 5.323576,2.060223 6.123226,0.980009 8.8225313,-0.573386 4.852644,-2.960429 5.310188,5.189521 5.515187,5.790922 -0.310727,4.751967 -1.510533,4.741008 -2.371963,6.826451 -1.40798,2.715601 -3.3088793,4.913394 -6.0906033,5.947227 -4.255346,1.750891 -4.885028,-0.562673 -5.588476,-1.037841 C 0.81279575,55.429201 -0.76557625,52.522597 -0.87884425,51.433574 -0.99208625,50.344552 -1.5973473,48.00064 -1.5973473,48.00064 l -2.714413,4.071617 c -0.975757,1.2435 -2.153867,1.671183 -3.911917,-0.239506 -3.2102687,-7.993864 -1.540801,-11.695205 -0.238231,-13.52841 1.30257,-1.833187 3.163808,-1.449964 3.406695,-1.392854 2.200566,0.636942 0.531019,1.666864 0.328375,0.424283 0.122581,-1.063014 0.04577,-0.684244 0.08721,-1.21915 0.39415,-3.682611 5.824803,-6.326362 7.774544,-7.130563 3.69697,-1.524839 7.3181633,-0.459147 10.4364893,1.849948 1.51392,1.591564 3.404367,3.099528 2.315237,5.269146 2.815325,-1.982706 2.602018,5.850567 2.15556,8.781896 -0.692785,2.267199 -1.163664,5.41278 -2.882821,6.790402 -4.446111,3.562834 -8.3442173,2.681129 -7.2662253,9.320339 1.311963,3.169373 0.885031,3.527457 0.728477,6.163384 -0.247015,2.359785 -1.011846,4.336262 -1.676559,6.386841 -0.530648,-0.234611 -1.727782,0.552323 -0.399177,1.995882 0.440161,0.468217 2.16924,0.753382 2.31521,-1.117696 -0.08009,-0.521237 -1.741487,-2.914536 -3.508375,-1.827469 -0.724614,0.791896 -2.190115,3.034792 1.193165,4.861227 0.371502,-0.06847 3.094435,0.725387 3.8320933,-1.995898 0.71292,-1.704226 -0.07702,-2.700549 -1.5967073,-3.35308 0.473974,-3.512606 2.6053783,-3.761592 -0.15965,-13.651884 1.8834893,2.354607 3.9621093,4.362763 6.7061563,5.18931 1.813057,0.507945 3.584046,0.438576 5.508651,2.474894 0.713714,1.387578 1.156785,2.722796 1.32215,4.004268 1.654571,1.801543 1.777735,3.188039 1.472088,4.458303 -1.199197,2.378202 -7.514563,1.342052 -12.134982,1.437034 -0.622088,1.581261 -1.071113,2.987244 -1.5967073,4.470795 0.9149293,-1.424697 1.8470823,-2.911105 2.5547373,-3.59259 4.519163,-0.09013 8.551201,0.21445 12.534159,0.558848 -2.117751,4.823865 -3.730202,9.644576 -5.195411,14.464366 0.03884,1.437725 0.640106,2.410568 1.443143,3.498622 -0.482415,-0.339402 -0.981128,-0.594616 -1.42912,-1.111943 -0.972397,0.239686 -3.54166,0.119105 -5.010653,-0.0041 C 14.566556,93.606407 14.379125,93.279954 14.272048,92.558543 14.066335,91.172476 12.986385,90.323928 12.13567,89.798238 11.441456,89.499926 10.2675,88.5724 9.1804597,87.758716 c -0.312288,-0.03084 -0.577004,0.01233 -0.159676,1.117695 0.265086,0.674664 0.86696,1.129787 1.5967073,2.075733 -0.8876243,0.650216 -2.5565103,-0.01217 -5.1893263,-2.63458 -0.36695,0.163382 -1.036743,-0.03424 -0.9144,1.277085 0.424418,0.547034 0.85479,0.785455 1.313604,1.117973 -1.33e-4,-0.01998 -1.241664,-0.842092 -1.408695,-0.819351 -0.167058,0.02273 -0.911093,-0.576215 -0.58719,1.138709 0.113665,0.407439 0.681911,0.660188 1.11768,0.958021 -0.45728,-0.128468 -0.806768,-0.366066 -1.437005,-0.319338 -0.23122,0.06837 -0.641642,-0.175742 -0.399204,0.718515 0.27477,0.578202 0.741045,0.701662 1.117706,1.03786 -0.432885,-0.253868 -0.916093,-0.798568 -1.277355,-0.638683 -0.183992,0.242874 -0.34933,0.498909 0,1.117695 1.348634,1.313329 2.780876,2.744761 4.655423,3.562192 2.7982603,1.220202 5.7462733,2.288505 7.5593843,3.942358 -4.229577,-0.36811 -8.5117783,-0.61724 -12.2946593,-1.995898 -0.662437,-0.175691 -0.82804,-0.545687 -0.641217,-0.966962 0.06125,-0.138099 0.19214,-0.439926 0.193463,-0.602322 0.0063,-0.739812 0.75438,-0.81789 1.17393,-0.448894 4.044421,0.822833 5.812366,-0.278678 8.4549453,0.581141 2.930684,1.57924 4.430977,3.846845 7.148195,5.084915 4.329774,2.18075 5.956195,-6.473512 6.412839,-10.044709 0.08237,-0.759003 -0.126021,-1.622206 -0.199813,-2.610919 -0.337397,-4.520727 1.776253,-18.143083 4.400735,-25.161555 1.974956,-5.281467 6.861995,-2.140421 7.625715,-0.638995 2.653294,3.260251 2.992384,7.263352 3.627093,10.695678 -0.06839,3.930002 0.61939,7.805634 -0.593381,11.817953 -1.047564,3.559696 -1.194408,5.89751 -0.566076,5.803069 1.488731,-0.223734 2.890123,-0.0745 4.155334,0.656262 3.42908,1.151525 5.025814,2.346047 8.94766,3.199868 3.92186,0.85384 4.97308,-0.316695 6.7833,2.874992 1.46172,-2.643143 3.01718,-2.015321 4.55065,-2.155571 l -1.24019,-1.517347 c -0.50146,-2.236046 0.99513,-1.470816 1.71918,-1.676082 0.71941,0.565353 1.1607,1.21912 2.07481,1.515065 -0.77713,-0.214072 -1.54532,-1.220203 -2.31433,-2.153746 -0.52959,-1.350301 0.82833,-1.340985 1.67476,-1.437955 0.46717,1.183482 1.4343,1.573422 2.87588,1.278285 4.08033,-0.826762 3.83818,-2.741002 4.07162,-3.832112 -0.25167,-0.582737 -0.48056,-1.17653 -1.3568,-1.455782 -0.98846,-0.505743 -0.97566,-1.000149 -1.39753,-1.499486 -2.45997,-2.547057 -2.20165,0.09794 -1.95871,1.04282 0.20341,1.361686 0.69334,2.221159 1.43978,2.630967 1.31707,0.75524 1.36586,1.408528 -0.3992,1.916062 -3.19472,1.564288 -5.78284,1.40475 -8.8631,1.401628 -0.82444,-5.927495 -1.64462,-12.232691 -2.47353,-17.767909 5.33815,0.3488 10.55716,0.261948 15.48807,-0.878205 1.76313,-0.504923 3.47969,-1.051528 3.59262,-3.033739 1.09439,5.999689 3.02395,12.569923 2.99204,17.800145 0.20436,1.441355 -0.65974,1.570564 -1.47516,1.759564 -1.64359,0.647306 -2.90145,0.179681 -4.23129,-0.07984 1.78768,-1.607929 2.85609,4.406598 2.47491,5.907826 -0.33388,2.171491 -2.62216,3.500648 -0.72078,4.430848 3.87675,0.65025 7.0702,0.50874 9.34299,-1.55676 -2.12436,2.56233 -4.24153,2.86829 -6.58566,2.93031 -2.07807,0.055 -3.55246,-0.44102 -5.15012,0.0236 -1.99665,-1.41566 -0.49733,-3.578359 0.76428,-4.350556 -2.75206,6.331966 -8.22714,0.374746 -10.12243,0.286647 -1.89526,-0.0881 -3.94933,-0.548941 -2.93653,-0.806061 1.01277,-0.257116 5.67039,0.737431 5.8973,1.98077 0.22693,1.24333 -0.29313,0.95526 -1.02735,0.97315 -1.83587,0.0447 -4.94869,-0.51346 -2.83208,-0.4077 1.36388,0.0681 1.57314,1.74948 2.71381,2.05288 0.51109,0.13593 2.10624,0.005 3.2312,-0.0713 0.52752,-0.0749 2.44281,-0.0613 0.63933,1.85907 -0.83499,0.59198 -2.11743,0.9082 -3.83209,0.958 1.78112,-0.35465 1.5272,-0.98758 3.75227,-0.47901 0.36642,0.47275 1.11027,1.07573 -0.73382,2.22312 -1.25032,0.43423 -1.90389,0.74782 -3.42106,0.86583 1.13074,-0.92988 5.06372,-0.86585 2.51814,0.85688 -0.9869,0.47449 -1.72794,0.53789 -3.88435,1.29622 2.90703,-1.02424 2.75016,1.17844 1.33321,1.18068 -2.43446,0.31774 -7.30025,0.0314 -8.34628,-4.98568 0.10509,-2.46743 1.04598,-3.77048 2.07571,-4.9498 -4.36697,2.15269 -2.91079,4.1477 -3.28075,7.04326 -0.085,0.66554 -0.2023,1.69809 -1.90135,1.90647 C 44.194405,110.45603 37.657239,107.28683 28.718133,101.06075 27.092771,98.159271 25.918259,89.6674 27.32436,80.674734 29.311381,67.9665 27.943591,69.411913 29.421236,64.056921 c 0.853678,-3.028304 3.287025,-5.530604 6.837442,-7.140355 3.836009,-1.739254 6.625643,-4.077446 8.28892,-6.281354 -1.117045,10.726862 3.846671,18.699792 5.882931,26.7589 0.01667,0.790054 -0.09514,0.353991 -0.05779,1.777093 0.105463,4.272364 3.535077,2.708732 3.373097,1.743546 -0.16195,-0.965171 -0.20031,-3.34163 -3.717347,-2.199143 -0.670374,0.891217 -0.920273,1.668769 -0.371422,3.215132 0.605446,1.705869 2.908069,3.716901 5.029659,2.395059 1.23806,-0.771375 2.31629,-1.259176 1.62136,-4.804066 -0.347,-1.637536 -1.63261,-2.833603 -3.37084,-3.162015 -1.57672,-0.07686 -1.73121,-1.032534 -2.212135,-1.971053 -3.338301,-8.172069 -6.568572,-16.559339 -4.660662,-24.711477 2.009696,3.502779 3.87604,7.194394 6.618997,9.731494 6.60482,7.293927 6.14394,8.133815 6.79339,9.98787 3.54333,-6.29248 4.34657,-12.151231 4.90098,-17.11587 -5.75494,13.318739 -12.95461,1.655181 -14.203594,-3.781867 0.143219,-7.847613 -0.425715,-6.820632 -1.630733,-7.414312 -1.444255,-0.711534 -2.77622,-4.589847 -2.849827,-6.354144 -0.628491,-7.907816 5.565404,-13.98062 8.375274,-14.959001 2.45548,-0.854988 6.26126,-0.11692 7.67101,0.964924 4.10049,-2.258539 7.68136,3.743024 7.9737,4.636805 0.70514,2.187344 1.4387,6.874049 -0.24532,11.815243 -1.11014,2.037961 -2.26666,2.577666 -3.01361,5.55602 -0.38994,1.554777 -1.55998,3.566218 -2.36347,5.212988 -1.02018,0.566158 -2.40247,3.748315 -7.39187,1.698606 -1.52038,-0.624567 -3.14325,-0.986679 -4.3279,-2.852843 l -1.916028,-5.269143 c -0.370391,-0.402989 -0.336709,-0.948677 -2.043748,-0.87957 -0.82005,-1.715397 -3.047788,-4.289534 -1.667483,-7.343743 0.711014,-0.553427 1.662377,-0.156353 1.715293,1.038119 0.214048,2.515724 0.757952,2.853682 1.277409,3.353083 -0.201454,-1.515769 -0.746707,-3.291057 -0.07985,-4.151437 3.562407,-0.09991 6.340187,-1.890347 10.937477,0.239506 -1.10164,0.539166 -0.98959,1.256795 -1.22801,1.760993 -0.38698,0.818398 -0.3303,1.551919 -1.09392,1.954069 -0.76361,0.402149 -3.92832,0.664181 -4.78348,-0.202308 -0.67683,-0.685821 -0.85667,-1.686039 -0.958,-3.193412 -1.06037,-0.0074 -2.247031,0.241609 -3.113567,-0.159671 -0.198385,-1.043001 0.303397,-5.55467 4.240187,-5.804218 3.93679,-0.249544 5.70325,0.953622 7.49279,-2.513274 0.34234,-0.663196 0.66662,-1.840859 2.39167,-1.518184 3.34481,1.058659 4.29226,4.277227 4.33526,5.67813 0.12017,3.166433 -0.33102,3.241093 -0.57677,5.11557 -0.42627,3.546962 -1.64259,3.08328 -2.71441,3.353099 -3.02152,0.184579 -3.43218,-2.379448 -3.27324,-4.470794 3.77423,-0.76595 4.85386,0.0386 6.14735,0.718521 0.18283,-0.74926 0.51036,-0.797732 0.79836,-1.037862 0.72122,3.203993 -0.007,3.757305 -0.0228,5.509294 -0.96123,2.551835 -2.14061,6.131428 -2.69155,8.781254 -1.0735,2.127033 -0.83505,3.94167 -0.065,5.571138 0.61037,1.291542 2.80609,3.709884 0.3257,5.108178 -3.12907,6.280351 -0.69765,11.435503 -0.47503,15.82493 0.39502,1.253739 1.22767,0.105222 1.09254,-0.557696 -1.49936,-8.944296 -1.54921,-13.254086 0.88141,-15.025495 1.5403,-0.367286 2.17564,0.341374 2.47168,1.453465 1.21092,6.080445 -0.96271,9.7204 -1.83893,13.721464 -0.6631,2.167678 -0.27321,1.619644 1.03106,-0.05777 1.60025,-4.771056 2.9923,-9.214805 2.40191,-13.115099 -0.39952,-2.494677 -0.90813,-2.337996 -1.59205,-2.761014 -0.68395,-0.423016 -1.94075,-1.030301 -1.5979,-2.553775 0.3429,-1.523492 -1.075,-2.405327 -1.83779,-3.688921 3.83897,3.976288 13.45035,4.862412 13.79156,7.563109 1.92281,4.683138 2.55921,9.125061 4.05627,13.04036 3.0769,8.0468 4.39685,17.095576 3.92314,22.143323 4.10752,0.172749 10.61059,1.66292 12.319564,0.516605 0.83865,-1.083339 0.59549,-5.981518 1.61946,-9.151419 -2.132974,5.037116 -2.462244,5.79965 -2.589454,9.179332 0.18907,1.016468 0.38986,1.45488 1.727994,1.96777 4.23421,1.449096 6.74833,3.999342 10.06401,6.628332 1.84999,1.68101 3.53568,0.69915 5.01978,-1.02359 0.35732,-0.41477 0.78729,-0.65972 2.00311,-1.08083 1.23674,-1.22365 2.74653,-3.627782 3.33412,-5.117148 0.92035,-0.21895 1.2346,0.439696 1.01528,1.870816 -0.1724,1.355111 -0.9652,2.549812 -1.53847,3.907442 -0.57171,3.03499 1.39184,2.15079 1.8578,1.60121 l 1.41446,-2.32436 c 0.57206,0.44817 1.80986,-0.11482 1.41454,2.3485 -0.53654,1.6549 -1.5331,2.61507 -2.5895,3.80797 0.83672,-0.73929 1.90315,-1.28415 2.39509,-2.31524 0.0744,0.48941 0.24029,0.89539 -0.28496,1.63908 -0.49265,0.49894 -0.83894,0.94751 -1.71095,1.39468 0.24717,-0.0499 0.57094,0.19849 0.71853,-0.23951 -0.32899,0.63669 -0.79449,1.03658 -1.67654,1.51687 h 0.71848 c -0.52713,0.67205 -1.08871,1.32373 -2.15553,1.67654 -2.20308,-0.21627 -6.42858,-1.97077 -8.61314,-1.73835 -2.31881,-1.11654 -4.95626,-1.6565 -6.71529,-2.73242 -2.42363,-1.13834 -10.626254,-3.19951 -15.488074,-7.664209 -0.41942,-4.742305 -0.68469,-10.640584 0.99113,-19.826407 1.64391,-6.935565 0.0361,-15.809029 5.8747,-18.814 2.921244,-1.322038 4.766154,-3.238595 8.861774,-3.911946 -0.92088,1.016894 -1.76178,7.388651 -1.53379,12.551309 0.2563,3.430535 0.51165,6.469764 1.45394,9.163952 0.32795,0.731401 0.50797,1.69054 1.04238,2.104044 0.47395,0.258895 0.98134,1.218332 1.22729,0.404664 0.1506,-0.913413 0.67003,-3.328223 2.83451,-1.176004 0.35362,0.604097 1.39888,2.582939 -0.71321,3.776771 -1.19814,0.115078 -2.2997,-0.120385 -2.89631,-2.188001 0.24876,-1.566622 -0.82468,-3.239402 1.69396,-4.554458 1.20148,-0.206396 2.80102,-0.458833 4.19757,1.461106 0.99232,1.502381 1.75778,4.273711 -0.52033,6.71839 -1.11316,0.619654 -1.38946,1.268918 -4.54832,0.121946 -0.63437,-0.978003 -1.02521,-0.554609 -1.83851,-4.033877 -0.32012,-5.144815 -0.98465,-9.059849 -0.87818,-15.727614 0.21455,-2.755146 0.15131,-6.715413 1.51685,-8.382722 0.45408,-1.152591 2.90113,-0.157157 2.72982,-1.564058 -0.31544,-1.093179 0.18568,-1.556943 -2.23261,-2.820786 -2.51108,0.04569 -5.19679,0.06073 -6.72439,-3.678537 -0.4822,-1.722511 -2.802624,-7.962511 0.14992,-17.760431 1.67036,-3.371977 3.19823,-3.515334 5.3064,-2.301177 3.13304,-3.947025 6.92724,-2.92768 10.34193,-2.406017 4.39661,1.68607 8.96855,4.02681 11.56234,11.88481 0.51724,1.660539 3.29671,6.64994 0.10282,9.704613 -0.54721,0.27314 -3.09335,2.22119 -6.05809,-0.354896 -0.43047,-0.568 -0.91019,-0.699098 -1.4738,-0.08634 -1.00965,1.968527 -1.84635,3.464547 -3.72491,5.311209 -1.72062,1.180555 -3.51595,2.208229 -6.30701,1.197528 -3.18905,-1.892911 -6.64562,-3.282135 -6.80558,-10.878891 3.3374,1.981687 4.81041,1.473083 5.79514,-0.356817 1.08968,-1.400562 0.55949,-1.397029 1.99686,-0.622303 4.81645,2.790754 8.06553,-4.599361 5.02174,-4.939075 -1.68548,0.178565 -3.13418,-0.117364 -5.92071,1.72003 0.039,1.294439 -0.49597,1.982049 -1.58359,0.389731 -2.03523,0.09543 -4.29233,0.636495 -6.16804,3.031342 0,0 -1.94869,-4.323347 1.66965,-6.857569 1.20764,-0.84582 2.04306,-3.58268 2.27735,-4.410265 1.8778,0.868002 4.38827,0.54071 6.84138,1.202822 2.48711,1.097336 3.43461,2.951194 4.96186,5.188503 1.22428,0.742638 1.99975,-1.770949 2.74331,0.815721 0,0 1.03174,4.568833 -0.0877,4.824095 -1.15713,0.263856 -1.14208,-0.184134 -1.18004,1.105813 -0.0233,0.794755 1.62369,12.002963 1.85483,13.139962 0.10568,0.639781 -4.80915,13.20882 -5.6683,13.412378 -0.84225,0.19953 -7.34084,-9.804149 -7.34489,-10.139114 -0.26498,0.28408 6.63226,13.142047 7.42471,13.013182 0.75309,-0.122439 6.12016,-15.635407 6.38683,-15.807436 0.1383,0.346667 0.55417,0.479046 0.92157,0.51562 -0.13332,3.236986 1.83812,8.117223 0.54772,10.503344 -0.44281,0.466344 -1.50977,2.118683 -1.94831,4.628801 0.0471,3.16075 0.19701,7.151412 2.95394,9.660102 0.55681,0.215484 -3.36963,-6.133746 -1.79832,-11.08261 1.3749,-4.330298 5.31606,-2.376181 5.0901,-0.342723 0.29803,2.237293 0.0154,4.421976 -0.73705,7.034376 0,0 -1.28285,3.2776 -1.3572,3.911947 -0.25199,2.150671 1.70516,-1.762572 2.51484,-3.432934 0.35496,-0.732319 1.06664,-6.563712 0.35925,-8.143214 -1.07061,-2.39059 -3.04557,-2.637885 -3.15352,-3.51277 -0.90598,-1.669195 -1.05402,-6.629762 -1.58017,-9.913294 3.84096,2.488366 8.30006,3.425163 10.15683,6.350444 1.65602,1.745337 0.5974,9.128136 1.9876,14.843877 1.70661,7.016795 3.52345,13.429972 1.74127,16.671097 -2.47081,3.362332 -7.86868,6.444146 -10.41003,7.648856 -2.54135,1.2047 -1.26142,-7.566637 0.81608,-8.540746 4.68818,-2.19824 3.27496,-0.51521 11.05922,-1.12673 m 0,0 c 0.53012,0.01381 0.86571,0.09372 1.68931,0.0076 1.72691,-1.257255 3.93647,1.411107 0.2975,-0.61657 -2.48701,-1.385802 -1.8146,-1.701416 -0.98674,-2.89661 3.64252,-3.89305 4.89797,-11.158572 6.90967,-16.585399 -0.77457,-3.276779 -3.87985,-4.622083 -6.203,-6.615533 2.26272,-2.481992 5.16851,-3.601344 6.52206,-8.0098 l 0.93583,-7.974772 c 0.40979,-0.318275 0.71202,-0.199218 1.74617,1.091079 1.49813,2.171668 1.23294,4.076263 1.33824,6.036952 1.8079,-1.138478 4.10133,-1.387464 5.30061,-0.985051 0.52597,0.643842 3.78333,3.522824 2.05195,7.511238 -1.17324,1.565634 -2.74508,2.830446 -5.2365,3.401123 -3.24951,-0.555347 -3.33976,0.966994 -4.1773,1.997887 -2.45845,3.989973 -3.69276,3.018936 -4.7481,2.677758 -2.04888,-0.662358 -3.41781,-1.934956 -4.1352,-3.588824 -1.25063,-1.431925 -1.76578,-1.096828 -2.38096,0.09794 -0.0893,-0.05636 -3.04435,10.212705 -0.48884,0.19894 0.2596,-1.017336 -1.5638,-2.344518 -2.11757,-3.322899 -0.88752,-1.149882 -0.99177,-2.741362 -1.21486,-4.26584 1.10492,-2.76995 2.5092,-5.273895 4.31059,-7.739505 1.27429,-2.309669 1.56636,-1.09819 1.96501,-0.268753 0.35877,1.569286 0.41431,3.731575 1.05949,4.865338 -0.12356,-1.736299 -0.2723,-3.641108 -0.32014,-4.869971 0.61605,-2.20269 1.18795,-2.175367 1.81456,-2.689275 1.44616,-0.979501 1.47241,-1.16513 2.29773,-1.864061 2.01861,2.16117 4.05153,3.204252 6.40193,4.323114 2.80758,0.267013 3.36526,-1.724318 3.66443,-2.27602 2.10222,-3.030553 3.61646,-6.094163 4.47902,-9.1944 l -1.92963,-6.395876 c -0.26545,5.133382 -2.04536,7.917085 -3.94613,9.39025 -2.13299,1.653162 -3.65286,1.077077 -4.36935,0.848942 -7.50348,-2.389275 -6.71293,-7.077935 -7.53491,-9.400418 -0.74139,-2.994343 -0.73277,-2.651869 -1.00949,-3.772749 -2.30775,-0.434335 -0.52541,8.374999 0.43754,4.269242 0.45151,-1.96777 -0.14031,-2.802501 -0.52187,-4.61786 -0.91059,-5.398093 0.51541,-5.974963 1.1814,-8.120065 0.91421,3.064661 5.50806,1.43038 7.80941,0.772557 2.78871,-1.214586 2.65859,0.0016 3.12634,0.719783 1.28347,3.108793 1.73345,2.787465 2.31929,3.025148 1.26878,0.453625 1.47055,0.346712 1.97419,0.398386 0.62764,1.471572 0.89209,3.017541 0.005,4.066571 0.50356,-3.315636 -0.47043,-6.380988 -1.58223,-9.951198 -0.42791,-0.548825 -0.65675,-1.142225 -2.28997,-1.421098 -8.06175,-1.086327 -9.49971,0.224012 -12.19174,1.080595 -2.37852,1.736296 -1.79144,2.549668 -1.78517,3.543789 l 0.22546,3.202578 c 0.14348,2.159235 -0.63461,0.742899 -0.86408,-0.241049 -1.39348,-9.193249 2.57207,-10.344806 3.86781,-8.773599 0.70017,-3.058353 2.78741,-3.421417 4.68069,-3.603022 2.47634,-0.338563 4.51451,0.08366 6.6162,0.451424 4.99351,2.201953 3.99357,4.856478 4.26268,5.066806 0.53284,5.484841 0.0196,7.447618 0.39219,10.1435 0.21968,0.649229 0.84407,1.619298 1.3839,1.244158 0.33335,-0.607332 0.7466,-2.118963 -0.6282,-5.192265 -1.7427,-2.150525 -0.58732,4.028665 -0.82367,6.207762 0.68897,2.891751 1.37765,5.783861 2.59611,7.870455 l -2.05091,13.568204 1.12717,9.440592 -2.11529,3.299421 3.21363,1.540758 1.62296,-3.214163 -2.31056,-1.628579 1.57684,-23.670118 5.22491,7.853974 -4.41653,3.149523 1.8977,1.302571 c -4.3471,5.725795 -9.87047,13.512948 -13.03695,17.16968 -1.31863,4.825902 -1.42036,11.518953 -1.8021,17.782349 l 0.32647,4.424297 c -3.15426,0.820452 -4.11189,0.06646 -4.11626,-1.370788 2.00173,-2.768145 7.94073,0.05811 11.91279,0.08961 7.02238,-0.06369 13.88623,0.249034 21.11163,-0.296685 1.00777,-0.05659 1.62274,-0.732878 1.075,-3.243901 0.19413,-2.961071 -0.46852,-5.343181 -0.92636,-7.863702 0.13875,-1.22528 -1.31048,-4.365064 3.35167,-2.649926 1.59726,-0.107077 7.9476,2.996033 10.44667,-0.804022 0.30025,-0.919953 2.31045,-2.533681 -1.4396,-10.177166 -3.19809,-4.991325 -6.16804,-10.971609 -9.91533,-15.959481 -0.88453,-1.375029 -1.19547,-2.753654 -3.59334,-4.119184 -4.275,-1.49206 -7.25405,-3.133654 -12.2143,-4.363847 -1.4714,0.02706 -1.2023,0.162793 0.0395,0.869415 0.13036,-0.331928 12.35041,3.434279 11.64,4.353346 -0.0707,0.09148 -1.03693,2.171359 -4.78869,4.966451 -1.55594,1.159148 -1.58637,3.338079 -0.65617,4.51535 2.21186,3.785069 3.99291,7.465314 7.0549,11.457276 0.35211,0.691325 0.12859,1.012375 2.15342,2.77971 2.10682,0.146807 1.72405,-0.04613 2.38183,-0.09709 -3.11406,-2.473317 -0.83008,-0.537999 -10.57971,-5.582325 0.83323,-1.526138 -0.50207,6.462483 -3.69752,6.918246 -0.89887,0.128206 -2.6574,-1.456735 -2.54188,-1.607204 -0.84373,-1.205777 -8.30749,-0.104036 -5.75342,-9.692076 1.80634,-0.476531 3.61238,-1.002139 5.42766,-0.04727 -1.33342,1.139466 -1.73902,-3.783607 -0.28567,-5.324959 0.45437,-0.481888 1.88175,-1.244094 1.88175,-1.244094 l 0.11972,5.996453 c 0,0 2.98987,5.156943 3.40167,5.318667 0.41177,0.161724 2.48253,2.85981 2.48253,2.85981 l -2.92703,4.865418 c -0.15759,0.130868 10.92658,13.331602 14.6731,15.880106" sodipodi:nodetypes="ccsccccsscccccccccccsccccccccccccccsccccccccccccccccccccccccccccccccsccccccsscccscccscccsccccccccccccccccccccccscccccccscccccccsccscccccsscccscsccccccccccccccccccccccccsccsssssscccccccccccsccscscccscssccccccccscscccscsccccccccsssccsscccccccccsccccccccssccsccccccsccccccccccccccccccccccccccccccccccccccccccccccccccccccsccccsscscscccccsccssscccscsscccscccccccccccsccsccccccccccccssccccccccccccccccccccccccccccccccccccccccccccccccccsscccccscccsccsccc" inkscape:export-xdpi="200" inkscape:export-ydpi="200" />
  </g>
</svg>
