<?xml version="1.0" encoding="UTF-8" standalone="no"?>
<svg xmlns:dc="http://purl.org/dc/elements/1.1/" xmlns:cc="http://creativecommons.org/ns#" xmlns:rdf="http://www.w3.org/1999/02/22-rdf-syntax-ns#" xmlns:svg="http://www.w3.org/2000/svg" xmlns="http://www.w3.org/2000/svg" xmlns:sodipodi="http://sodipodi.sourceforge.net/DTD/sodipodi-0.dtd" xmlns:inkscape="http://www.inkscape.org/namespaces/inkscape" width="100.13mm" height="81.188mm" version="1.1" viewBox="0 0 100.13 81.188" id="svg6" sodipodi:docname="svg-768.svg" inkscape:version="1.0.1 (3bc2e813f5, 2020-09-07)">
  <metadata id="metadata12">
    <rdf:RDF>
      <cc:Work rdf:about="">
        <dc:format>image/svg+xml</dc:format>
        <dc:type rdf:resource="http://purl.org/dc/dcmitype/StillImage" />
      </cc:Work>
    </rdf:RDF>
  </metadata>
  <defs id="defs10" />
  <sodipodi:namedview pagecolor="#ffffff" bordercolor="#666666" borderopacity="1" objecttolerance="10" gridtolerance="10" guidetolerance="10" inkscape:pageopacity="0" inkscape:pageshadow="2" inkscape:window-width="1920" inkscape:window-height="1017" id="namedview8" showgrid="false" inkscape:zoom="1.0074671" inkscape:cx="181.37089" inkscape:cy="316.33529" inkscape:window-x="-8" inkscape:window-y="-8" inkscape:window-maximized="1" inkscape:current-layer="svg6" />
  <g transform="translate(-75.982 -132.17)" id="g4" style="stroke-width:0.26458333;stroke-miterlimit:4;stroke-dasharray:none">
    <path d="m176.12 212.17-13.68 0.02c-0.71641-3.983-0.85884-9.3494 0.47437-12.809 1.2729-3.066 0.73192-4.5043-0.41293-5.4006-1.826-0.66522-3.1006-1.1412-4.5133-2.6144-0.71173-0.7422-2.7515-0.24588-3.4169 0.2185-2.5058 0.60414-3.2766 0.0774-4.6222 0.36478-0.96022 0.20508-1.8739 0.72046-2.9919 1.1712-3.4244 0.10223-5.5636 0.1463-9.4589 0.33073-8.9396-0.64975-7.7994-10.213-7.9729-16.517-0.61901-18.493 1.0278-3.6428 0.84387 0.0407-0.18389 3.6834 0.5453 11.114 0.5453 11.114-1.0142-0.10415-1.8351 0.46359-2.9521-0.40865-1.117-0.87225-1.6627-1.6397-0.18759-1.3066 1.4751 0.33303 3.893 3.8515 5.2618 5.0779 1.1017 0.96565 1.8001 1.1421 1.8489 2.262l1.0253-0.4607c0.71311 0.57057 0.44456 1.6917 0.22114 2.2496-1.3962 3.238-2.8256 7.174-7.1003 9.6566 6e-3 -2.0902 2.8322-1.7515-2.3647-8.0036-7.1135-4.7372-5.4008-7.8061-5.6389-9.8557 0.3992-3.0761 0.20029-1.805 1.6867-4.6302 1.2593-2.2364 2.5139-4.4769 2.3093-8.005 0.47112-7.1349 2.7231-11.755 7.4117-14.05 1.8949-0.92759 4.1272-1.8644 6.1448-2.7052-2.741 2.7054-3.7427 8.2131-4.9578 13.377-2.1093 0.72892-2.0893 2.8111-1.6838 3.6208 0.40552 0.80972 1.9474 1.3243 3.074 0.40442 1.1266-0.91991 0.88509-2.7902-0.23905-3.76 0.13203-2.413 1.4973-7.2376 3.9237-13.525-0.41134-0.52888-3.4386 3.671-3.9523 5.7764-0.33489 1.3728 2.8476-0.13109 3.6716-0.32741-0.66969 1.4266-0.654 1.5435-1.4967 2.666 3.7432 2.1888 4.783 5.2358 5.9167 7.7642-0.22408-5.2151-2.2802-10.43-3.695-15.645 2.9616 2.0895 5.8038-0.73444 7.0626 2.7596 0.13052 0.63013-2.5402 3.4043-3.4377 1.9177-1.8931-3.621 0.34081-4.4562 0.37417-0.21047-0.16875 2.2769-0.42738 2.2761-1.1927 4.7474 0.92695 2.0028 1.165 4.1868 1.2628 6.4078 0.34706-1.8628 0.51128-3.7257 1.3947-5.5885l0.0746-4.288c-0.28337-1.3514-1.36-1.1251-0.883 0.58485 0.10131 0.36323 1.0611 3.1928 1.0611 3.1928l6.1168-11.394c0.29284-1.8675 0.54933-3.6987-0.56128-4.1627-1.1541-0.88832-1.642-2.3258-1.9878-4.0224-0.28212-1.8709-5e-3 -2.97-0.11692-4.7708-1.1112-4.5875-3.5154-0.94371-2.3854 1.1693-0.32763 0.56963-1.2628 0.98222-1.2628 0.98222-0.14592-0.77697-1.2906-2.417-2.6015-2.3771-1.0769 0.0328-0.75239-0.44974-0.81285-1.0373 0.25342-2.5988-0.45543-3.6604-1.5435-3.5313-2.8819 2.0879-6.8738 4.5332-8.7698 3.8821-1.896-0.65114 0.15608-3.4687 1.4967-5.1683 1.3406-1.6996 2.2655-2.7452 4.42-4.2095 3.0932-1.5624 3.7718-0.19793 4.9111 0.60804 5.4129-2.8731 8.6658 9.7114 7.0158 12.254-0.64138 0.54843-1.2645 1.2063-1.9644 1.4032 0.85048 1.4118 0.62555 2.9581 0.51451 4.4901-1.4345 3.1202-2.3334 4.9911-4.5369 5.9868-2.1204 0.89237-3.4059 0.40396-4.086-0.71851-0.84965-1.4022 0.12549-1.0001-3.0116-3.7833-0.9702-0.69269-1.0018-2.1818-1.0056-3.2039-0.18264-1.5444-1.0801-1.8493-1.7189-2.7245-1.2143-1.6378-1.5074-4.0185-1.2862-6.2909 1.5438 0.80341 6.7788-2.2165 8.5476-3.8353 0.68943-0.63095 1.9825-2.4573 2.4088-2.935-0.57076 1.7656-0.5043 3.1999-0.0233 4.8643 0.3761 1.4045 3.9684 0.68002 4.9812 1.2862 0.89871 0.46866 0.88759 1.2261 0.99393 1.9995-0.0559 2.1048-0.25331 4.1393-0.44437 6.1973 0.20482 0.94774 0.0296 1.947 0.8653 2.7829 0.66119 0.24565 1.344 0.45797 1.2161 1.9177-0.0364 1.5264-1.0474 2.4294-2.0083 3.7909-1.0234 0.96195-1.9337 1.2581-2.9027 1.7282 0.7498 0.57045 1.622 0.60254 1.7773 3.7886l-3.5547 10.664c1.8122-4.2155 2.9594-8.4754 5.9718-12.611 0.53427-1.9024 1.2098-3.6917 2.4004-5.069 1.0906 3.3848 2.5366 6.8479 1.1272 9.6818-1.4756-0.35447-2.7922-0.86798-4.5473-0.94298 0.62156 0.63006 1.0508 0.92319 1.1887 1.6852-3.1174 2.7063-4.6996 5.5186-6.6086 8.3082 0.44886 5.7604 0.29136 11.718-1.0758 17.423 0.6789 2.7101 1.6965 5.8641-0.70157 6.969-0.9771 0.48332-1.3993 0.96663-3.2741 1.4499-1.3778 0.0214-1.9134-0.44863-5.3788 1.6604-1.0191 0.6228-0.50453-1.8627 0.0702-2.2451 2.4138-2.6049 6.0101-4.6478 5.753-4.724-0.13044-0.30995-3.5078-0.35552-3.0636-0.86529-0.17004-1.2604 4.8852-1.5505 7.5771-1.4499 0.76536 2.0358 0.68782 3.8036 0.28062 5.8933 1.2815 0.8831 3.0225 1.3986 4.5837 2.058 0.98507-3.0107 0.82275-5.4595 0.46773-8.5125 0 0-3.4153 0.44466-3.8797 0.41576-0.5818-0.0362 5.3548-2.0703 6.8722-2.1789 1.3095-0.0938 2.4739 0.0201 3.4111 5e-3 1.7964-0.625 0.28601-2.426 1.9219-2.7322 0.80762-0.15111 2.7952 0.9973 3.1805 2.0112 0.38537 1.0139 2.0931 1.9486 2.2621 1.3692 0.60841-0.86326-1.2129-2.905-4.0394-3.9884-0.11631 0.20935-0.35126-11.575 0.77811-15.136s3.0951-7.5414 4.6241-7.3378c-3.268-0.26617-6.9658-4.1868-9.3076-6.6183 0.77208 2.8687 0.78697 5.6204 0.37417 8.4891 1.4625 0.67774 2.1832 5.0636 1.5201 7.9747s-1.2357 6.8602-2.8063 8.2319c-1.5706 1.3718-3.2943 1.3401-4.904 0.77008-3.2161 0.0824-1.7231-1.6786-1.5014-1.7877 0.46186-0.22725 0.90141-0.29265 1.2137 0.22251 0.27323 0.45069 0.0597 0.76627 0.30091 0.94063 1.1035 0.0584 2.6816 0.37954 3.5509-0.17525 0.86937-0.55479 2.4143-1.8176 2.7066-8.0755 0.0114-0.24606 0.67596-3.9842 0.41389-4.9918-0.26207-1.0076-1.2586-2.7557-3.0879-0.56175-1.873 2.4968-2.5054 9.0746-1.3871 12.092 0.4966 1.109 2.3849 2.1806 4.3026 1.4811-0.1688-0.6842 0.70036-1.0881 1.1957-0.81044 0.62334 0.49257 0.88533 1.8468-0.66839 1.813-1.2137-0.0862-1.7951-0.34526-3.2114-0.1682-0.96546-0.38947-1.607-0.24517-2.203-1.0861-1.5895-1.6767-1.5745-3.775-1.3984-6.1243 0.17608-2.3493 0.65452-5.0468 1.8137-7.1623 0.64117-0.98134 0.69667-1.3767 2.3126-2.074 1.126-0.56948 1.7084-7.5916 0.712-10.782-1.8904-5.0178-2.5611-2.6049-0.14026 0.37462 0.40235 0.5805 0.8491 1.09 1.4291 1.3637 2.1742 1.3648 4.3541 2.7241 7.0158 3.6014 2.4171 1.5116 4.4143 3.3616 4.6071 6.665 0.23779 4.5243-0.11255 8.8962 0.58463 13.353 0.0739 4.0663 1.0662 7.9965-0.18709 12.395-0.76216 1.8103-1.0454 3.6176-2.8063 4.9578-2.4586 1.497-6.4858 2.7147-10.898 2.8999l-4.6304-0.51451-3.8821-0.98221-2.1983-1.3564c-1.5282-0.43716-3.3255-0.55477-5.8465 0.18709l-3.4377 0.46772c0.29601-0.65569 0.72667-1.2964 0.49109-2.0112 1.2799-1.5571 1.2344-2.8318 1.1001-4.7116-0.57684-0.14274-0.85063-0.71783-1.4275-0.15268-0.29829-1.2485-1.2889-1.3325-1.7351-0.49072-0.14224 0.26833-0.82383 0.21276-0.83735-0.0939-0.86233-0.89847-1.2001-0.0748-1.6838 0.79513-0.0452 1.0724 9e-3 0.78038-0.30403 1.637 0.19875-0.90426 0.16351-1.2706-0.11692-2.1749-0.50012-0.59295-0.97967-0.78446-1.3564 1.029-0.0217 0.61672-0.35576 1.1627-0.0468 1.9177 0.023 1.6066-0.20471 2.0588-0.6782 3.2974 0.8242 0.81271 2.8563 5.4684 1.5669 7.2497-1.0479 1.3911-2.1354 1.9581-3.6248 2.783-1.4894 0.82484-7.7236 0.82702-9.1439 0.14032-5.1476-2.4888-7.3042-6.2546-7.8577-10.711-0.21214-3.1664-0.0552-7.2081-0.65482-9.4948-0.59957-2.2866-2.4259-4.0036-2.1515 0.11693 0.30834 4.63 4.0363 11.961 4.5837 13.049 0.54742 1.0885 4.2244 7.0384 4.8175 7.7408 2.2366 2.6485 4.075 3.9711 6.5481 3.5313 2.4731-0.4398 6.6534-2.1967 7.8343-4.6538 1.181-2.4572 0.96557-3.0624 0.95885-4.303-0.77713-2.5001-3.0161-5.9039-5.2151-7.5771-2.1701-1.4103-3.499-4.754-4.9111-9.7052-0.56772-2.0502-1.8505-4.2641-3.6015-6.3142-1.6587-1.5053-2.7874-3.6851-3.7652-6.057-2.7303-4.4369-6.5688-7.7142-11.599-7.7174 0.0872 0.71718 0.19629 1.4344-0.14034 2.1515 0 0 6.8188 2.2273 8.9335 3.7886 2.1146 1.5612 4.3046 4.8975 3.8119 3.999-0.62571-1.1411-0.76949-3.6095 0.0233-3.8119 1.6701-0.42642 3.1374-1.0767 3.0168-2.9934-0.0831-1.3212 1.3303-4.0819 1.8709-4.8175 0.54054-0.73565 0.93289-2.2456 0.17656-4.0014-0.32496-0.75432-0.0596-1.4709-0.0596-1.4709 0.94347-2.9239 1.9575-4.5168 0.0702-8.8166 0.46529 3.0747-9.4483 15.488-13.4 15.832 1.8224 1.6813 7.3374-2.419 8.3488-4.6538 0 0-0.12478 1.4835-0.49112 2.5491 2.012-0.90646 7.6419-5.7556 5.4724-14.125-0.69596-1.7641-0.78684-2.0117-3.1571-3.6015s-5.1422-2.5243-9.3778-1.6136c-2.0228 0.6713-4.0217 1.6489-5.6127 4.9111-1.4483 3.5597-1.3012 10.658 0.46773 14.663 0.31263 0.80561 1.1477 0.82746 1.8007 1.1225-0.0293 1.4168-1.3327 2.7268-2.362 3.4611-7.4985 11.83-11.163 28.058-9.8689 43.124-4.5681-0.46962-9.1362-0.41915-13.704-0.18709" style="fill:none;stroke-width:0.52916666;stroke:#999;stroke-miterlimit:4;stroke-dasharray:none" id="path2" />
  </g>
</svg>
