<?xml version="1.0" encoding="UTF-8" standalone="no"?>
<!-- Created with Inkscape (http://www.inkscape.org/) -->

<svg xmlns:dc="http://purl.org/dc/elements/1.1/" xmlns:cc="http://creativecommons.org/ns#" xmlns:rdf="http://www.w3.org/1999/02/22-rdf-syntax-ns#" xmlns:svg="http://www.w3.org/2000/svg" xmlns="http://www.w3.org/2000/svg" xmlns:sodipodi="http://sodipodi.sourceforge.net/DTD/sodipodi-0.dtd" xmlns:inkscape="http://www.inkscape.org/namespaces/inkscape" width="188.39261mm" height="92.390099mm" viewBox="0 0 188.39261 92.390099" version="1.1" id="svg1491" inkscape:version="1.0.1 (3bc2e813f5, 2020-09-07)" sodipodi:docname="svg-1024.svg">
  <defs id="defs1485" />
  <sodipodi:namedview id="base" pagecolor="#ffffff" bordercolor="#666666" borderopacity="1.0" inkscape:pageopacity="0.0" inkscape:pageshadow="2" inkscape:zoom="1.0074671" inkscape:cx="287.84393" inkscape:cy="328.01677" inkscape:document-units="mm" inkscape:current-layer="layer1" inkscape:document-rotation="0" showgrid="false" inkscape:window-width="1920" inkscape:window-height="1057" inkscape:window-x="1912" inkscape:window-y="-8" inkscape:window-maximized="1" />
  <metadata id="metadata1488">
    <rdf:RDF>
      <cc:Work rdf:about="">
        <dc:format>image/svg+xml</dc:format>
        <dc:type rdf:resource="http://purl.org/dc/dcmitype/StillImage" />
        <dc:title />
      </cc:Work>
    </rdf:RDF>
  </metadata>
  <g inkscape:label="Layer 1" inkscape:groupmode="layer" id="layer1" transform="translate(-6.3453042,30.320012)">
    <path style="display:inline;fill:none;stroke:#999;stroke-width:0.52916667;stroke-linecap:butt;stroke-linejoin:miter;stroke-miterlimit:4;stroke-dasharray:none;stroke-opacity:1" d="m 6.4395048,45.307722 c 1.77152,-1.24558 27.6198002,-1.14157 26.1022802,0.15916 -0.14822,5.13948 0.93951,8.79388 2.467,9.2313 1.79126,-0.78147 3.57632,-1.55583 4.85437,-1.75076 5.82826,-1.07515 15.10612,-4.50983 18.78092,-8.4355 1.35286,-2.6792 1.57236,-5.23974 4.0586,-8.03758 0.69977,-0.42212 1.3213,-0.89939 1.75077,-1.51202 0.12134,-0.27545 -0.0458,-0.48295 -0.15917,-0.87539 -0.137,-0.47427 0.25545,-0.68274 0.47747,-0.87538 0.9939,-1.02905 1.13424,-1.70958 -0.52047,-1.83727 -1.31667,0.58283 -1.99728,-0.1597 -2.42398,-0.86846 -1.32924,-1.75174 -2.66107,-3.33969 -4.51688,-5.08812 -1.62685,-1.06783 -1.87542,-0.15554 -1.13332,0.55207 1.49519,2.2489 3.91832,4.50003 5.45949,6.36142 -0.89133,-0.67643 -1.49923,-0.034 -2.11714,0.56204 -1.17959,0.93819 -1.98713,7.5308 -5.17268,8.91297 -1.71469,0.41323 -2.65028,0.9483 -6.55897,1.01848 -3.54817,-0.30347 -4.75726,0.39529 -6.25346,0.97102 -1.04335,0.40789 -2.08899,0.83489 -3.1832,1.67118 -1.57996,1.71419 -1.2509,-0.23738 0.0851,-1.3409 0.52255,-0.25568 1.59729,-1.58415 2.62062,-1.0465 -2.96217,1.4709 -5.29698,1.13815 -8.37107,0.9821 -2.008,-0.19721 -1.61671,-1.8079 -1.33768,-4.72236 0.54044,-5.64565 -0.22725,-10.28376 0.63664,-15.19981 1.19248,-3.61969 2.85001,-6.27606 5.0931,-7.71926 2.47623,-1.45386 4.97879,-2.59163 7.40095,-4.69523 0.9634,-0.55171 1.48926,-1.53552 2.14868,-2.3874101 1.24145,3.1055801 0.67754,5.2410301 0.15914,7.4009601 -2.43533,1.03555 -2.64117,1.6745 -3.26278,2.38739 -0.9501,4.9837 -0.51716,8.13138 0.0796,11.06165 1.11246,3.21964 2.65194,4.78826 4.45648,5.33187 0.69265,0.14657 1.15353,0.0357 1.90989,0 1.10414,-0.15336 1.19343,-0.93332 -0.0796,-0.95497 -3.55533,0.36034 -4.60639,-2.57581 -5.25227,-4.05859 -0.85897,-5.10399 -0.92096,-8.66199 -0.17475,-10.06662 1.25756,-3.91356 5.66613,-1.6897 5.50658,-0.99502 1.36631,3.41775 0.23712,5.33189 -0.2387,7.6397 -0.68821,1.93293 -1.60044,3.47333 -2.78532,4.53607 -1.5489,1.69101 -3.42215,2.11851 -5.17269,3.02404 -0.6324,0.26463 -1.5604,1.45289 0.47747,0.71622 3.39897,-0.76856 4.67122,-2.56507 5.88894,-3.66068 1.95185,-2.22854 2.75055,-4.49104 3.18322,-6.7643 0.23228,-1.85716 0.69507,-3.35721 -0.0416,-5.46287 -0.63497,-0.90206 -1.27296,-1.83463 -2.3377,-1.91852 -0.80623,-0.13112 -1.1349,-0.51428 -0.85957,-1.90506 0.0651,-1.07531 0.49175,-1.61549 -0.14709,-3.7324 -0.76342,-2.5331301 0.39788,-2.7367401 0.6903,-3.1302001 1.95157,5.4183101 2.76881,5.5737501 4.07011,6.9749701 2.35281,1.9244 3.53754,1.48369 4.11655,1.4548 3.91766,-0.63091 3.75886,-2.13611 5.5571,-3.27811 -1.95302,1.02761 -3.41704,2.39275 -6.2452,2.01805 -4.28892,-0.6447 -5.50625,-4.15118 -6.87202,-7.4937501 2.1664,-2.15029 3.02312,-4.64439 3.18322,-7.32138 -0.0198,-1.17188 0.13351,-2.31024 -0.3979,-3.58111 -2.31429,-1.33676 -0.71475,-4.80693 -0.0796,-4.93397 1.10183,-0.18664 1.20975,0.0247 1.69423,0.55485 0.58883,0.64439 1.56033,-0.41505 1.68397,-1.59093 0.21262,-0.88628 0.44249,-1.7428599 0.87214,-2.2548299 5.30651,2.0536299 6.10362,0.9768699 8.7943,-0.57157 4.83712,-2.95096 5.29321,5.1729199 5.49752,5.7724199 -0.30972,4.73676 -1.50569,4.72582 -2.36435,6.80461 -1.40348,2.70689 -3.29829,4.89767 -6.07113,5.9282 -4.24174,1.74527 -4.86939,-0.56089 -5.57061,-1.03454 -0.7012,-0.47365 -2.27455,-3.37095 -2.38742,-4.45649 -0.1129,-1.08554 -0.71622,-3.42194 -0.71622,-3.42194 l -2.70574,4.05858 c -0.97264,1.23954 -2.14694,1.66584 -3.89941,-0.23874 -3.19998,-7.96829 -1.53588,-11.65779 -0.23746,-13.4851099 1.29841,-1.82733 3.15367,-1.44535 3.39579,-1.38842 2.19353,0.63492 0.52933,1.66155 0.32734,0.42293 0.12219,-1.05962 0.0456,-0.68206 0.0869,-1.21525 0.39286,-3.67082 5.80613,-6.30611 7.74968,-7.10774 3.68511,-1.51997 7.29469,-0.45769 10.4031,1.84401 1.50907,1.58649 3.39346,3.08962 2.3078,5.25229 2.80633,-1.97634 2.59371,5.8318499 2.14868,8.7538199 -0.69056,2.25993 -1.15996,5.39545 -2.87361,6.76868 -4.43188,3.55142 -8.31753,2.67255 -7.24297,9.2905101 1.30775,3.15923 0.8822,3.51619 0.72612,6.14367 -0.2462,2.35225 -1.00859,4.32238 -1.67116,6.36642 -0.52896,-0.23386 -1.72225,0.55054 -0.39793,1.9895 0.43878,0.4667 2.1623,0.75095 2.30782,-1.11414 -0.0799,-0.51957 -1.73593,-2.90521 -3.49715,-1.82162 -0.72229,0.78938 -2.18311,3.0251 1.18933,4.84567 0.37031,-0.0682 3.08453,0.72307 3.81984,-1.98949 0.71062,-1.69879 -0.0768,-2.69191 -1.5916,-3.34237 0.47244,-3.50136 2.59707,-3.74956 -0.15915,-13.6082201 1.87751,2.3470801 3.94946,4.3488301 6.6847,5.1727301 1.80729,0.50631 3.57259,0.43717 5.49105,2.46698 0.71144,1.38314 1.15308,2.71407 1.31795,3.99146 1.64925,1.79578 1.77204,3.17784 1.46735,4.44402 -1.19536,2.37061 -7.49054,1.33776 -12.09617,1.43246 -0.6201,1.57618 -1.06767,2.97768 -1.5916,4.45649 0.91202,-1.42016 1.84121,-2.9018 2.54656,-3.58112 4.50472,-0.0898 8.52387,0.21378 12.49405,0.55706 -2.11095,4.80845 -3.71824,9.61374 -5.17877,14.41809 0.0387,1.43313 0.63807,2.40286 1.43854,3.48743 -0.48091,-0.3383 -0.978,-0.59271 -1.42457,-1.10839 -0.96925,0.23894 -3.53033,0.11874 -4.99462,-0.004 -0.22857,-0.69823 -0.41539,-1.02366 -0.5221,-1.74276 -0.20508,-1.38161 -1.28156,-2.22746 -2.12958,-2.75146 -0.69196,-0.29735 -1.86219,-1.22193 -2.94571,-2.03301 -0.31128,-0.0307 -0.5752,0.0123 -0.1592,1.11414 0.26427,0.6725 0.86421,1.12617 1.5916,2.06907 -0.88479,0.64813 -2.54831,-0.0121 -5.17271,-2.62615 -0.36579,0.16288 -1.03343,-0.0341 -0.91151,1.27302 0.42312,0.54526 0.85206,0.78292 1.30942,1.11439 -1.3e-4,-0.0199 -1.2377,-0.83941 -1.4042,-0.81673 -0.16647,0.0227 -0.90815,-0.57437 -0.58528,1.13505 0.11332,0.40614 0.67971,0.65807 1.11408,0.95496 -0.4558,-0.12804 -0.80415,-0.36489 -1.4324,-0.31833 -0.23046,0.0682 -0.63958,-0.17517 -0.39791,0.71623 0.27387,0.57637 0.73866,0.69941 1.11411,1.03453 -0.43149,-0.25305 -0.91316,-0.79599 -1.27326,-0.63664 -0.18341,0.24212 -0.34822,0.49732 0,1.11412 1.34432,1.30915 2.77196,2.73599 4.64053,3.5508 2.78932,1.2163 5.72791,2.28119 7.53523,3.92974 -4.21609,-0.36692 -8.48458,-0.61526 -12.25534,-1.98951 -0.66032,-0.17513 -0.8254,-0.54394 -0.63916,-0.96387 0.061,-0.13765 0.19151,-0.43851 0.19283,-0.60039 0.006,-0.73745 0.75195,-0.81527 1.17017,-0.44746 4.03146,0.8202 5.79377,-0.27777 8.42786,0.5793 2.92134,1.57417 4.41684,3.83453 7.12536,5.06863 4.31596,2.17378 5.93714,-6.4528 6.39233,-10.01257 0.0821,-0.75656 -0.1256,-1.617 -0.19915,-2.60257 -0.33634,-4.50624 1.77056,-18.08504 4.38663,-25.08104 1.96863,-5.26457 6.84006,-2.13359 7.60132,-0.63695 2.6448,3.24981 2.98281,7.2401 3.61548,10.66144 -0.0682,3.91745 0.61743,7.78067 -0.59145,11.78015 -1.04423,3.54832 -1.19062,5.87864 -0.5643,5.78451 1.48397,-0.22303 2.88089,-0.0743 4.14208,0.65417 3.418065,1.14784 5.009715,2.33852 8.919015,3.18963 3.9093,0.85111 4.95718,-0.31568 6.76159,2.86578 1.45706,-2.63469 3.00754,-2.00887 4.53607,-2.14867 l -1.23619,-1.5125 c -0.49987,-2.22889 0.99195,-1.46609 1.71368,-1.6707 0.71708,0.56354 1.157,1.21522 2.0682,1.5102 -0.77468,-0.21339 -1.54041,-1.2163 -2.30696,-2.14684 -0.52792,-1.346 0.82569,-1.33669 1.66942,-1.43336 0.46566,1.17968 1.4297,1.56839 2.86665,1.27418 4.06731,-0.8241 3.8259,-2.73221 4.0586,-3.81982 -0.25085,-0.58088 -0.47902,-1.17277 -1.35244,-1.45113 -0.98528,-0.50415 -0.97258,-0.99697 -1.39306,-1.49471 -2.4521,-2.53889 -2.19464,0.0976 -1.95246,1.0395 0.20277,1.35733 0.69111,2.21404 1.43518,2.62255 1.31286,0.75281 1.36149,1.40402 -0.39794,1.90992 -3.1845,1.5593 -5.76432,1.40027 -8.83473,1.39715 -0.82182,-5.90852 -1.63935,-12.19355 -2.46562,-17.71107 5.32109,0.34768 10.52338,0.26111 15.43854,-0.87538 1.75747,-0.50332 3.46856,-1.04818 3.58111,-3.02404 1.09093,5.98048 3.01429,12.52971 2.98246,17.74319 0.20373,1.43674 -0.65762,1.56555 -1.47042,1.75393 -1.63835,0.64525 -2.89216,0.17912 -4.21775,-0.0796 1.78194,-1.60276 2.84695,4.3925 2.46695,5.88893 -0.33279,2.16454 -2.61374,3.48944 -0.71845,4.41667 3.86435,0.64817 7.04758,0.50711 9.31312,-1.55178 -2.11756,2.55414 -4.22799,2.85911 -6.5646,2.92093 -2.07142,0.0548 -3.54108,-0.43961 -5.13366,0.0235 -1.99025,-1.41113 -0.49572,-3.56691 0.76184,-4.33663 -2.74328,6.3117 -8.20081,0.37354 -10.09004,0.28572 -1.88921,-0.0878 -3.93671,-0.54718 -2.92714,-0.80348 1.00952,-0.25629 5.65224,0.73508 5.87843,1.97443 0.2262,1.23937 -0.2922,0.95221 -1.02407,0.97005 -1.82999,0.0446 -4.93286,-0.51182 -2.82299,-0.4064 1.35948,0.0679 1.56808,1.74388 2.7051,2.04631 0.50945,0.13549 2.09949,0.005 3.22087,-0.0711 0.52584,-0.0746 2.43499,-0.0611 0.63728,1.85312 -0.8323,0.59009 -2.11063,0.9053 -3.81984,0.95494 1.77543,-0.35352 1.52236,-0.98442 3.74025,-0.47748 0.36529,0.47124 1.10673,1.07229 -0.73144,2.216 -1.24629,0.43285 -1.8978,0.74544 -3.41013,0.86307 1.12712,-0.92691 5.04753,-0.86308 2.5101,0.85413 -0.98375,0.47298 -1.72241,0.53618 -3.87191,1.29208 2.89771,-1.02096 2.74134,1.17467 1.32895,1.1769 -2.42668,0.31673 -7.27692,0.0313 -8.31962,-4.96972 0.10478,-2.45954 1.04265,-3.75842 2.06907,-4.93397 -4.35297,2.1458 -2.90147,4.13443 -3.27022,7.02073 -0.0848,0.6634 -0.20167,1.69265 -1.89529,1.90037 -10.306735,-0.22295 -16.822995,-3.38201 -25.733505,-9.58817 -1.62018,-2.8922 -2.79093,-11.35688 -1.38935,-20.32079 1.98069,-12.66757 0.6173,-11.22678 2.09018,-16.56465 0.85095,-3.0186 3.27655,-5.5129101 6.81559,-7.1175101 3.82373,-1.7337 6.60445,-4.06441 8.26238,-6.26126 -1.11347,10.6925601 3.834385,18.6399801 5.864135,26.6732901 0.0167,0.78755 -0.0948,0.35286 -0.0576,1.77141 0.1051,4.25871 3.52378,2.70007 3.3623,1.73798 -0.16144,-0.9621 -0.19968,-3.33095 -3.70546,-2.1921 -0.66823,0.88834 -0.91734,1.66341 -0.37023,3.20482 0.60351,1.70042 2.89875,3.70501 5.01354,2.38742 1.23412,-0.76892 2.30891,-1.25515 1.6162,-4.78872 -0.34591,-1.63228 -1.62742,-2.82453 -3.36007,-3.15189 -1.57166,-0.0766 -1.72564,-1.02923 -2.20504,-1.96475 -3.32761,-8.14591 -6.547565,-16.5063501 -4.64577,-24.6324201 2.00329,3.49158 3.86366,7.17137 6.59784,9.70037 6.58371,7.2705801 6.12428,8.1077801 6.77164,9.9559201 3.532,-6.27235 4.33268,-12.1123701 4.88532,-17.0611301 -5.73654,13.2761501 -12.91318,1.64989 -14.15815,-3.76976 0.14274,-7.82252 -0.42436,-6.79882 -1.62555,-7.3906 -1.43959,-0.70924 -2.76733,-4.5751499 -2.84067,-6.3338199 -0.626505,-7.8825 5.5476,-13.93588 8.34846,-14.91114 2.44763,-0.85226 6.24125,-0.11654 7.64648,0.96185 4.08734,-2.25133 7.65678,3.73104 7.94819,4.62196 0.70289,2.18035 1.43409,6.85207 -0.24456,11.77744 -1.10656,2.03146 -2.25938,2.5694199 -3.00397,5.5382599 -0.38867,1.54979 -1.55495,3.55481 -2.3559,5.1963 -1.0169,0.56434 -2.39475,3.73632 -7.36822,1.69319 -1.51551,-0.62259 -3.13317,-0.98352 -4.31404,-2.84372 l -1.90992,-5.25229 c -0.3692,-0.4017 -0.33562,-0.94565 -2.03721,-0.87675 -0.81741,-1.7099299 -3.03803,-4.2758099 -1.66211,-7.3202699 0.70871,-0.55165 1.657,-0.15584 1.70979,1.0348 0.21336,2.50769 0.75551,2.84457 1.2733,3.34237 -0.20079,-1.51094 -0.7443,-3.28053 -0.0796,-4.13817 3.55101,-0.0996 6.31993,-1.8843 10.90251,0.23874 -1.09813,0.53744 -0.98642,1.25277 -1.22409,1.75538 -0.38574,0.81578 -0.32925,1.54693 -1.09043,1.9478 -0.76116,0.40086 -3.91576,0.66205 -4.76814,-0.20165 -0.67471,-0.68364 -0.85397,-1.68064 -0.95496,-3.18321 -1.05702,-0.007 -2.23986,0.24084 -3.10365,-0.15916 -0.19772,-1.03967 0.30245,-5.53689 4.22665,-5.78565 3.92419,-0.24875 5.685,0.95057 7.46882,-2.50522 0.34126,-0.66109 0.66447,-1.83499 2.38402,-1.51334 3.33412,1.05527 4.27853,4.26354 4.32139,5.65998 0.11978,3.1563 -0.32996,3.23071 -0.57491,5.09919 -0.42492,3.53561 -1.63735,3.07343 -2.70574,3.34237 -3.01186,0.18399 -3.42117,-2.37184 -3.26276,-4.45649 3.76214,-0.7635 4.83833,0.0385 6.12767,0.71622 0.18225,-0.74686 0.50874,-0.79518 0.79579,-1.03454 0.71895,3.19374 -0.007,3.74528 -0.0228,5.49167 -0.95816,2.5436899 -2.13378,6.1118299 -2.68295,8.7531799 -1.07005,2.12021 -0.83235,3.92904 -0.0648,5.55331 0.60841,1.2874 2.7971,3.69802 0.32465,5.09184 -3.11904,6.2602601 -0.69543,11.3989201 -0.47347,15.7742901 0.39372,1.24972 1.22369,0.1049 1.08898,-0.5559 -1.49455,-8.91568 -1.54424,-13.2117 0.87861,-14.9774401 1.53537,-0.3661 2.16868,0.3403 2.46377,1.4488101 1.20705,6.061 -0.95964,9.68932 -1.83303,13.67757 -0.66099,2.16075 -0.27234,1.61446 1.02774,-0.0576 1.59512,-4.75579 2.98276,-9.18533 2.39424,-13.07314 -0.39825,-2.4867101 -0.90521,-2.3305401 -1.58697,-2.7522001 -0.68175,-0.42166 -1.93452,-1.02699 -1.59276,-2.5456 0.34179,-1.51861 -1.07159,-2.39764 -1.83192,-3.67711 3.82669,3.96357 13.40733,4.84684 13.74743,7.5389 1.91664,4.6681501 2.55101,9.0958701 4.04331,12.9986401 3.06702,8.02108 4.38277,17.0409 3.91057,22.07248 4.09437,0.17221 10.57666,1.65762 12.28016,0.51497 0.83597,-1.07987 0.59359,-5.9624 1.61427,-9.12214 -2.12616,5.02099 -2.45435,5.78108 -2.58116,9.14996 0.18846,1.01322 0.38862,1.45021 1.72246,1.96146 4.22066,1.44446 6.72674,3.98654 10.03181,6.60713 1.84409,1.67563 3.52439,0.69691 5.00372,-1.02032 0.35618,-0.41344 0.78475,-0.6576 1.99673,-1.07737 1.23275,-1.21974 2.73772,-3.61617 3.3234,-5.10078 0.91744,-0.21823 1.23069,0.43829 1.01204,1.86483 -0.17182,1.35078 -0.96208,2.54166 -1.53353,3.89495 -0.56988,3.02528 1.38737,2.1439 1.85185,1.59608 l 1.40994,-2.31692 c 0.57025,0.44674 1.80409,-0.11445 1.41002,2.34098 -0.53483,1.64961 -1.52818,2.60671 -2.58122,3.79579 0.83403,-0.73692 1.89708,-1.28004 2.38744,-2.30783 0.0741,0.48785 0.23955,0.89253 -0.28407,1.63384 -0.49109,0.49734 -0.83627,0.94447 -1.70548,1.39021 0.24641,-0.0498 0.56916,0.19786 0.71627,-0.23874 -0.32795,0.63466 -0.79196,1.03326 -1.67122,1.51202 h 0.71622 c -0.52544,0.6699 -1.08524,1.3195 -2.14865,1.67117 -2.19605,-0.21558 -6.40805,-1.96447 -8.5856,-1.73278 -2.31137,-1.11298 -4.94038,-1.6512 -6.69377,-2.72369 -2.41591,-1.13469 -10.59227,-3.18927 -15.43857,-7.63968 -0.41807,-4.72713 -0.68247,-10.60653 0.98798,-19.76296 1.63867,-6.91338 0.036,-15.75847 5.85591,-18.75383 2.9119,-1.3177901 4.75089,-3.2282401 8.83341,-3.8994101 -0.91792,1.01362 -1.75614,7.3650101 -1.52887,12.5111401 0.25546,3.41956 0.51001,6.44908 1.44928,9.13465 0.32692,0.72904 0.50636,1.68513 1.03905,2.09731 0.47244,0.25805 0.97819,1.21443 1.22338,0.40335 0.1501,-0.91049 0.66789,-3.31755 2.82543,-1.17222 0.35248,0.60214 1.39438,2.57468 -0.71093,3.76467 -1.19433,0.11471 -2.29235,-0.12 -2.88706,-2.181 0.248,-1.5616 -0.82203,-3.22902 1.68855,-4.53987 1.19763,-0.20574 2.79206,-0.45738 4.18415,1.45643 0.98914,1.49757 1.75218,4.26002 -0.51867,6.6969 -1.10961,0.61767 -1.38501,1.26484 -4.53379,0.12153 -0.63231,-0.97487 -1.0219,-0.55283 -1.83261,-4.02097 -0.31906,-5.12835 -0.9815,-9.03086 -0.87538,-15.67728 0.21386,-2.74633 0.15084,-6.6939301 1.51202,-8.3559201 0.45265,-1.14889 2.89184,-0.15664 2.72105,-1.55904 -0.31443,-1.0897 0.18513,-1.55198 -2.22544,-2.81178 -2.50306,0.0456 -5.18017,0.0605 -6.7029,-3.66676 -0.48067,-1.71699 -2.79365,-7.93703 0.14947,-17.7036199 1.66499,-3.36119 3.18797,-3.50407 5.28942,-2.29381 3.123,-3.9344 6.90506,-2.91832 10.30886,-2.39831 4.38253,1.68068 8.93985,4.01391 11.52533,11.84679 0.51559,1.6552099 3.28618,6.6286699 0.10252,9.6735699 -0.54549,0.27225 -3.08349,2.21408 -6.03874,-0.35378 -0.42908,-0.56618 -0.90726,-0.69686 -1.46907,-0.0861 -1.00643,1.96225 -1.84044,3.45346 -3.71298,5.29424 -1.71514,1.17676 -3.50472,2.20116 -6.28684,1.19369 -3.17884,-1.88686 -6.62438,-3.27163 -6.78382,-10.84409 3.32672,1.97535 4.79502,1.46836 5.7766,-0.35569 1.08622,-1.39608 0.55769,-1.39256 1.99049,-0.62031 4.80102,2.78184 8.03971,-4.5846299 5.00565,-4.9232599 -1.68005,0.17798 -3.12415,-0.11701 -5.90177,1.71453 0.0389,1.2902799 -0.49437,1.9756899 -1.5785,0.38848 -2.02872,0.0951 -4.27863,0.6344399 -6.14831,3.0216499 0,0 -1.94247,-4.3095399 1.66428,-6.8356499 1.2038,-0.84312 2.03652,-3.57122 2.2701,-4.39616 1.87179,0.86523 4.3742,0.53898 6.81947,1.19897 2.47918,1.09383 3.42363,2.94176 4.94599,5.17193 1.22037,0.74024 1.99335,-1.7653 2.73452,0.81311 0,0 1.02844,4.5541999 -0.0874,4.8086399 -1.15342,0.26303 -1.13845,-0.18354 -1.17628,1.10228 -0.0233,0.79223 1.61851,11.96458 1.84891,13.09794 0.10533,0.63774 -4.79378,13.1665501 -5.65018,13.3694601 -0.83952,0.19889 -7.31732,-9.77279 -7.32137,-10.10668 -0.2641,0.28317 6.61104,13.1 7.40096,12.97157 0.75067,-0.12207 6.10057,-15.5854101 6.3664,-15.7568701 0.13787,0.34556 0.55237,0.4775 0.91863,0.51397 -0.1329,3.2266301 1.83222,8.0912401 0.54597,10.4697401 -0.4414,0.46485 -1.50495,2.11191 -1.94209,4.614 0.047,3.15063 0.19637,7.12853 2.94449,9.62919 0.55499,0.21478 -3.35886,-6.11412 -1.79258,-11.04715 1.37052,-4.31646 5.29905,-2.36858 5.07384,-0.34165 0.29707,2.23016 0.0151,4.40784 -0.7347,7.01189 0,0 -1.27878,3.2671 -1.35286,3.89943 -0.2512,2.1438 1.69971,-1.75694 2.50676,-3.42195 0.35386,-0.72999 1.06323,-6.54271 0.35812,-8.11718 -1.0672,-2.38294 -3.0358,-2.62943 -3.14341,-3.50153 -0.9031,-1.66384 -1.05066,-6.60853 -1.57512,-9.8815801 3.82863,2.4804101 8.27352,3.4142201 10.12434,6.3301301 1.65073,1.73977 0.59547,9.09894 1.98122,14.79641 1.70117,6.99433 3.51219,13.38698 1.73572,16.61774 -2.46293,3.35158 -7.84352,6.42353 -10.37672,7.62439 -2.53323,1.20084 -1.25738,-7.54244 0.81346,-8.51343 4.67318,-2.19119 3.26449,-0.51354 11.02381,-1.12311" id="path837-2" sodipodi:nodetypes="cccccccsccccccccccccccsccccccccccccccccccccccccccccccccscccccczzccczcccscccsccccccccccccccccccccccsccccccczcccccccsccssccccsscccsczccccccccccccccccccccccccscczzzssscccccccccccsccscsccczcssccccccccscscccscsccccccccszscczscccccccccscccccccczzccsccccccsccccccccccccccccccccccccccccccccccccccccccccccccccccccsccccsscscscccccsccssscccsczsc" inkscape:export-xdpi="200" inkscape:export-ydpi="200" />
  </g>
</svg>
