<?xml version="1.0" encoding="UTF-8" standalone="no"?>
<!-- Created with Inkscape (http://www.inkscape.org/) -->

<svg xmlns:dc="http://purl.org/dc/elements/1.1/" xmlns:cc="http://creativecommons.org/ns#" xmlns:rdf="http://www.w3.org/1999/02/22-rdf-syntax-ns#" xmlns:svg="http://www.w3.org/2000/svg" xmlns="http://www.w3.org/2000/svg" xmlns:sodipodi="http://sodipodi.sourceforge.net/DTD/sodipodi-0.dtd" xmlns:inkscape="http://www.inkscape.org/namespaces/inkscape" width="109.13853mm" height="56.656715mm" viewBox="0 0 412.49207 214.13562" version="1.1" id="svg129" inkscape:version="1.0.1 (3bc2e813f5, 2020-09-07)" sodipodi:docname="eca-svg-768.svg">
  <defs id="defs123" />
  <sodipodi:namedview id="base" pagecolor="#ffffff" bordercolor="#666666" borderopacity="1.0" inkscape:pageopacity="0.0" inkscape:pageshadow="2" inkscape:zoom="1.4" inkscape:cx="231.7003" inkscape:cy="222.62172" inkscape:document-units="px" inkscape:current-layer="layer1" inkscape:document-rotation="0" showgrid="false" inkscape:window-width="1512" inkscape:window-height="1040" inkscape:window-x="156" inkscape:window-y="0" inkscape:window-maximized="0" />
  <metadata id="metadata126">
    <rdf:RDF>
      <cc:Work rdf:about="">
        <dc:format>image/svg+xml</dc:format>
        <dc:type rdf:resource="http://purl.org/dc/dcmitype/StillImage" />
        <dc:title></dc:title>
      </cc:Work>
    </rdf:RDF>
  </metadata>
  <g inkscape:label="Layer 1" inkscape:groupmode="layer" id="layer1" transform="translate(-253.75392,-444.36077)">
    <g id="g113" transform="translate(1631.4511,-829.07677)" inkscape:export-xdpi="200" inkscape:export-ydpi="200">
      <path id="path852-7-8-6-0-2-0" style="display:inline;fill:#ffdb28;fill-opacity:1;stroke:none;stroke-width:0.875345px;stroke-linecap:butt;stroke-linejoin:miter;stroke-opacity:1" d="m -1040.639,1273.4402 c -36.2757,0.3514 -73.0879,37.0948 -77.7827,84.1427 -4.7693,47.7946 3.2559,93.1871 45.1743,120.1222 17.9597,11.5402 50.0977,11.7529 72.8281,-12.7113 1.27099,24.3281 29.79659,33.599 34.14869,1.2874 3.0894,-41.4293 -1.6334,-63.4894 -0.5351,-93.679 0.8065,-43.2694 -28.7424,-98.1821 -72.10659,-99.1517 -0.5754,-0.013 -1.1509,-0.016 -1.7267,-0.01 z m -0.8669,46.4976 c 29.6348,0.5776 42.07359,31.4519 41.52249,57.2223 -0.65569,17.5914 -5.15749,58.504 -40.35129,63.0762 -32.559,4.2298 -51.0087,-43.9997 -45.4684,-72.4639 5.5403,-28.4642 19.1308,-48.325 44.2972,-47.8346 z" />
      <path style="display:inline;fill:#77fde0;fill-opacity:1;stroke:none;stroke-width:0.875345px;stroke-linecap:butt;stroke-linejoin:miter;stroke-opacity:1" d="m -1128.1945,1425.5755 c -21.8888,24.9961 -70.0551,25.7641 -72.9936,-39.8975 -2.9386,-65.6615 50.2067,-79.439 69.7207,-52.4154 24.4495,25.5203 37.1299,-7.894 26.2403,-26.7859 -9.2285,-16.0099 -27.8424,-31.7417 -47.7343,-32.1865 -36.8258,-0.8234 -74.7397,36.3373 -79.5091,84.132 -4.7693,47.7946 3.2551,93.1873 45.1735,120.1224 21.7059,13.9474 66.1184,15.3477 86.7738,-29.032 5.2297,-15.716 -7.7687,-46.6649 -27.6713,-23.9371 z" id="path852-3-9-1-9-0-3" sodipodi:nodetypes="szcsszscss" />
      <path id="path852-4-1-6-1-1" style="display:inline;fill:#952790;fill-opacity:1;stroke:none;stroke-width:0.875345px;stroke-linecap:butt;stroke-linejoin:miter;stroke-opacity:1" d="m -1298.6932,1274.6627 c -36.2757,0.3513 -73.0879,37.0946 -77.7828,84.1425 -4.7693,47.7947 3.2543,93.1872 45.1727,120.1223 21.7059,13.9474 66.1185,15.348 86.7737,-29.0317 5.2297,-15.7158 -7.7681,-46.6648 -27.6707,-23.9369 -21.8889,24.9961 -55.9688,22.2185 -69.8106,-22.5607 l 101.9982,0.046 c 9.1054,-2.6981 14.5328,-12.0927 14.6895,-20.4971 0.8064,-43.2694 -28.279,-107.3048 -71.6433,-108.2744 -0.5754,-0.013 -1.151,-0.016 -1.7267,-0.01 z m -3.0449,45.9642 c 16.4991,0.073 32.248,14.1634 39.9068,36.2327 l -80.289,0.4548 c 10.6832,-25.9047 25.8241,-36.7521 40.3822,-36.6875 z" />
      <g id="g1091" transform="matrix(0.72546734,0,0,0.72546734,-2865.777,1341.9144)">
        <path id="path1007" style="display:inline;fill:#4d4d4d;stroke:none;stroke-width:1px;stroke-linecap:butt;stroke-linejoin:miter;stroke-opacity:1" d="m 2319.7799,23.353469 c -1.0231,-0.07505 -2.3951,0.923483 -2.4395,1.660157 -0.5122,8.456059 7.1128,17.94709 5.5078,22.052734 -6.8334,4.290552 -7.5334,6.619728 -10.248,11.132812 -8.5896,14.28053 -2.6316,32.072284 -3.2754,36.8125 -4.8454,2.673778 -4.6172,5.230138 -4.7344,8.458988 -0.1516,4.17286 1.284,10.60718 5.3086,11.34765 4.0245,0.74048 6.2305,-1.30093 7.623,-5.90234 1.696,2.75553 11.1588,9.64373 11.7188,8.96289 -1.7719,2.62339 -2.2121,4.68329 -4.4258,8.11523 0,0 -7.7614,2.52844 -14.2012,7.16016 -13.7271,9.87299 -10.996,22.83789 -10.996,22.83789 0,0 -4.7489,5.93761 -1.7891,12.94531 3.8428,9.0983 8.1487,9.2837 12.4883,7.21485 2.4372,-1.16193 9.5645,-7.16141 3.3437,-17.47266 -6.1367,-10.17175 -10.6447,0.65678 -10.9179,-7.76758 -0.4241,-13.08279 21.3359,-20 21.3359,-20 -2.0282,10.55244 -1.9821,22.90273 -1.9531,33.22657 1.546,0.83737 2.564,0.19466 2.9511,-2.2129 -0.2296,-9.53616 0.081,-20.97288 1.7051,-30.27734 1.2126,-5.23394 3.0261,-9.4167 5.1641,-13.03125 4.6297,-0.008 6.6921,-0.52915 9.0976,-0.98242 4.5603,7.67057 8.8014,14.12444 11.5567,19.91601 l 3.9336,-2.70507 c 1.5036,-1.03372 -13.1869,-17.30182 -11.1817,-18.09375 8.9289,-3.52639 13.5423,-8.21638 18.5645,-13.92774 9.9924,1.88429 10.5664,-11.253904 10.5664,-11.253904 -0.1655,-5.131791 -2.7423,-7.668283 -5.4531,-9.560547 0.6791,-1.223948 -1.1373,-17.721976 -4.3809,-24.125 -4.4979,-8.8792 -15.0875,-13.979261 -15.9297,-13.363281 2.1379,-3.159148 2.7825,-6.491662 4.9199,-9.824219 2.1566,-3.362425 -1.0369,-8.340862 -3.0078,-0.720703 -0.9269,3.612644 -2.2333,8.354149 -3.9316,9.892578 -3.4955,-1.558186 -7.1309,-0.992854 -7.1309,-0.738281 0.1978,-3.997503 0.9427,-7.48321 2.2129,-12.539062 0.3497,-1.39187 -2.1947,-5.856941 -2.9512,0 -0.5737,4.442211 -1.147,8.819779 -1.7207,13.03125 -1.9671,-0.682152 -3.9352,0.06987 -5.9023,1.228515 -0.6313,-5.703598 -1.226,-10.763218 -0.2441,-17.457031 0.2554,-1.741054 -2.8522,-4.573366 -2.9512,-1.228516 -0.1646,5.580573 -0.3777,11.233557 0.7363,18.673829 -1.0655,-0.549437 -2.1298,0.187721 -3.1953,0.75 0,-1e-6 -4.6719,-17.7037 -4.6719,-20.654297 0,-1.106473 -0.4877,-1.537002 -1.1015,-1.582032 z m 27.0547,23.164063 c 0.401,0.02922 0.8287,0.203809 1.2812,0.632812 2.7772,1.645093 8.4517,4.815405 11.5703,10.291016 5.7812,10.150591 9.1251,30.922966 1.1582,42.246094 -1.5144,2.197286 -17.0033,28.789326 -40.8418,5.763676 -19.9703,-19.289514 -4.4909,-56.143787 10.2774,-56.187504 4.8164,-0.01426 9.068,-2.26282 14.0468,-1.984375 0.5512,0.03083 1.2651,-0.623976 2.1153,-0.746094 0.1275,-0.01832 0.2587,-0.02536 0.3926,-0.01563 z m -4.7618,17.693359 c -0.6146,0.09887 -1.203,0.652942 -1.2285,1.28125 -0.1518,3.725513 -0.2265,12.691407 -0.2265,12.691407 -0.046,2.565777 2.8791,2.405718 2.8691,0.166015 0,0 0.4201,-8.33396 -0.035,-12.691406 -0.1244,-1.190518 -0.7642,-1.546135 -1.3789,-1.447266 z m -7.8554,1.154297 c -0.4744,-0.04597 -1.0497,0.745514 -1.1602,1.136719 -0.9784,3.464504 -0.6693,7.132513 -0.4629,10.697265 0.3059,1.268109 1.4696,1.834731 2.6465,1.09961 1.3297,-0.830567 0.7273,-2.065559 -0.4375,-3.050781 l -0.6465,-0.544922 c -0.6363,-0.538602 0.049,-1.885345 0.068,-2.806641 0.068,-3.30734 0.7874,-3.556207 0.6152,-5.27539 -0.09,-0.898416 -0.3384,-1.228276 -0.623,-1.25586 z m -14.293,11.919922 c -0.1704,1.275485 -0.6795,2.326599 -0.5117,3.826172 16.4338,38.301188 34.3399,19.906148 39.6523,3.716797 0.6592,-2.008749 -1.8262,-5.001981 -3.1347,-1.730469 -11.2014,28.00487 -28.0799,16.870913 -36.0059,-5.8125 z m 49.5918,9.484375 c 4.3665,0.192017 2.5911,15.062185 -4.377,12.945313 1.8803,-2.777282 4.1148,-10.770298 3.9356,-12.917969 0.1537,-0.02542 0.3005,-0.03354 0.4414,-0.02734 z m -59.1895,11.0625 c 0.9426,3.236315 2.7081,6.369875 5.1465,9.003905 -7.8669,10.58247 -10.2112,-4.45281 -5.1465,-9.003905 z m -2.1367,60.457035 c 0.7658,0.0397 1.4446,0.35784 1.8242,0.85156 3.3543,4.36211 2.5945,7.72952 1.9981,11.55078 -0.6219,3.98451 -7.5407,2.38915 -9.4317,-0.0742 -2.0577,-2.68063 -3.5048,-6.60655 -2.4843,-9.82812 1.5042,-4.74822 3.9769,-0.66196 4.5117,0.0879 0.7854,-1.94784 2.3057,-2.65416 3.582,-2.58789 z" />
        <path id="path1057" style="display:inline;fill:#4d4d4d;stroke:none;stroke-width:1px;stroke-linecap:butt;stroke-linejoin:miter;stroke-opacity:1" d="m 2379.2383,98.617188 c -3.7238,0.379447 -5.1475,5.855692 -5.8945,9.150392 -0.7169,3.16149 -0.5165,4.56225 0.4726,7.23047 1.1156,3.00955 3.8623,4.06759 3.7148,3.96093 -0.07,1.79357 -2.365,9.34946 -4.3242,10.68946 1.1608,-0.18791 3.4922,-0.60547 3.4922,-0.60547 0,0 4.083,-5.35548 3.3555,-9.35156 4.1505,-0.4017 6.3895,-2.87675 7.1387,-5.86329 1.3199,-5.26131 -1.1684,-13.64098 -6.2129,-15.041011 -0.6306,-0.175004 -1.2102,-0.224128 -1.7422,-0.169921 z m -6.0313,31.031252 c -0.2751,0.0445 -0.824,0.1444 -0.8711,0.14453 0.2763,0.13255 0.5696,0.0617 0.8711,-0.14453 z m 5.0215,-26.33008 c 1.1943,-0.006 2.6663,0.82867 3.8516,1.48437 2.7358,1.51341 4.1664,6.99864 2.3301,9.81641 -0.9729,1.49286 -5.5283,2.74204 -5.2559,0.9707 0.3328,-2.16401 -1.6878,-1.53363 -2.1777,-1.86328 -1.7115,-1.15155 -1.8706,-3.25167 -0.7618,-8.38672 0.3247,-1.50365 1.0848,-2.01663 2.0137,-2.02148 z" />
        <path style="fill:#ffe680;stroke:none;stroke-width:1px;stroke-linecap:butt;stroke-linejoin:miter;stroke-opacity:1" d="m 2327.1462,156.18922 c 0,0 16.9242,-16.92923 22.7706,-17.59833 3.6664,-4.92717 2.8933,-7.53493 2.8933,-7.53493 -1.1161,-3.3116 -3.2133,-1.92321 -5.1882,-1.12062 -0.8687,0.61067 -1.7497,1.1465 -2.2527,3.98235 0.2432,-3.55743 -0.8531,-5.79878 -2.9548,-11.86584 -0.9416,-2.71807 -4.3778,-4.22342 -6.2531,-0.007 -1.3207,2.96971 0.2673,6.4973 1.0645,10.56804 -0.015,-1.1022 -1.1051,-2.40159 -2.8514,-6.70086 -1.9777,-2.4338 -3.8888,-1.94889 -5.7563,0.85635 -3.6914,6.50197 -1.8445,18.72232 -1.4719,29.42047 z" id="path1082" sodipodi:nodetypes="cccccsscccc" />
      </g>
    </g>
  </g>
</svg>
