<?xml version="1.0" encoding="UTF-8" standalone="no"?>
<!-- Created with Inkscape (http://www.inkscape.org/) -->

<svg xmlns:dc="http://purl.org/dc/elements/1.1/" xmlns:cc="http://creativecommons.org/ns#" xmlns:rdf="http://www.w3.org/1999/02/22-rdf-syntax-ns#" xmlns:svg="http://www.w3.org/2000/svg" xmlns="http://www.w3.org/2000/svg" xmlns:sodipodi="http://sodipodi.sourceforge.net/DTD/sodipodi-0.dtd" xmlns:inkscape="http://www.inkscape.org/namespaces/inkscape" width="176.36169mm" height="146.31596mm" viewBox="0 0 176.36169 146.31596" version="1.1" id="svg1333" inkscape:version="1.0.1 (3bc2e813f5, 2020-09-07)" sodipodi:docname="svg-1024.svg">
  <defs id="defs1327" />
  <sodipodi:namedview id="base" pagecolor="#ffffff" bordercolor="#666666" borderopacity="1.0" inkscape:pageopacity="0.0" inkscape:pageshadow="2" inkscape:zoom="0.96377841" inkscape:cx="183.29402" inkscape:cy="250.02649" inkscape:document-units="mm" inkscape:current-layer="layer1" inkscape:document-rotation="0" showgrid="false" inkscape:window-width="1920" inkscape:window-height="1017" inkscape:window-x="-8" inkscape:window-y="-8" inkscape:window-maximized="1" />
  <metadata id="metadata1330">
    <rdf:RDF>
      <cc:Work rdf:about="">
        <dc:format>image/svg+xml</dc:format>
        <dc:type rdf:resource="http://purl.org/dc/dcmitype/StillImage" />
        <dc:title />
      </cc:Work>
    </rdf:RDF>
  </metadata>
  <g inkscape:label="Layer 1" inkscape:groupmode="layer" id="layer1" transform="translate(-28.235826,-32.675349)">
    <g id="g1341" style="display:inline" transform="matrix(0.26458333,0,0,0.26458333,849.31581,144.49344)" inkscape:export-xdpi="200" inkscape:export-ydpi="200">
      <path id="path852-7-8-6-0-2-1-4" style="display:inline;fill:#ffdb28;fill-opacity:1;stroke:none;stroke-width:0.899937px;stroke-linecap:butt;stroke-linejoin:miter;stroke-opacity:1" d="m -2644.0545,-89.76374 c -37.2949,0.3613 -75.1414,38.137 -79.9681,86.5068 -4.9034,49.1375 3.3474,95.8054 46.4435,123.49729 18.4643,11.8645 51.5053,12.0831 74.8743,-13.0684 1.3068,25.0116 30.6338,34.543 35.1082,1.3235 3.1763,-42.59329 -1.6792,-65.27319 -0.5501,-96.31109 0.8291,-44.4851 -29.5499,-100.9407 -74.1326,-101.9375 -0.5916,-0.013 -1.1832,-0.016 -1.7752,-0.011 z m -0.8912,47.8041 c 30.4674,0.5937 43.2557,32.3356 42.6891,58.83 -0.6741,18.0857 -5.3024,60.1478 -41.4851,64.8485 -33.4738,4.3486 -52.4418,-45.236 -46.7458,-74.4999 5.6959,-29.2639 19.6683,-49.6828 45.5418,-49.1786 z" inkscape:export-xdpi="200" inkscape:export-ydpi="200" />
      <path style="display:inline;fill:#77fde0;fill-opacity:1;stroke:none;stroke-width:0.899937px;stroke-linecap:butt;stroke-linejoin:miter;stroke-opacity:1" d="m -2734.07,66.64616 c -22.5038,25.6984 -72.0234,26.488 -75.0445,-41.0185 -3.0212,-67.5065 51.6173,-81.6711 71.6796,-53.8882 25.1366,26.2374 38.1732,-8.1158 26.9776,-27.5384 -9.4878,-16.4598 -28.6247,-32.6337 -49.0755,-33.0909 -37.8604,-0.8466 -76.8396,37.3582 -81.743,86.4958 -4.9033,49.1376 3.3465,95.8056 46.4427,123.49749 22.3158,14.3393 67.9761,15.7789 89.2119,-29.84779 5.3766,-16.1575 -7.987,-47.976 -28.4488,-24.6095 z" id="path852-3-9-1-9-0-1-9" sodipodi:nodetypes="szcsszscss" inkscape:export-xdpi="200" inkscape:export-ydpi="200" />
      <path id="path852-4-1-6-1-4-9" style="display:inline;fill:#952790;fill-opacity:1;stroke:none;stroke-width:0.899937px;stroke-linecap:butt;stroke-linejoin:miter;stroke-opacity:1" d="m -2909.3592,-88.50694 c -37.2949,0.3612 -75.1414,38.1369 -79.9681,86.5067 -4.9034,49.1376 3.3456,95.8055 46.4418,123.49739 22.3158,14.3392 67.9762,15.7792 89.2118,-29.84739 5.3766,-16.1574 -7.9864,-47.9759 -28.4482,-24.6095 -22.5039,25.6984 -57.5414,22.8427 -71.772,-23.1945 l 104.864,0.048 c 9.3612,-2.774 14.9411,-12.4325 15.1021,-21.073 0.8292,-44.4852 -29.0735,-110.3198 -73.6562,-111.3166 -0.5915,-0.013 -1.1833,-0.016 -1.7752,-0.01 z m -3.1305,47.2557 c 16.9627,0.075 33.1541,14.5613 41.0282,37.2508 l -82.5449,0.4675 c 10.9833,-26.6326 26.5496,-37.7848 41.5167,-37.7183 z" inkscape:export-xdpi="200" inkscape:export-ydpi="200" />
      <g id="g477" transform="matrix(1.1002193,0,0,1.1002193,-35.45993,-1192.1392)" style="stroke-width:2.5;stroke-miterlimit:4;stroke-dasharray:none" inkscape:export-xdpi="200" inkscape:export-ydpi="200">
        <path style="fill:none;stroke:#999;stroke-width:1.81781943;stroke-linecap:butt;stroke-linejoin:miter;stroke-miterlimit:4;stroke-dasharray:none;stroke-opacity:1" d="m -2787.0406,931.9483 c -4.1613,-1.92375 130.3122,-134.33754 245.8191,-95.26375 15.6738,5.30214 26.5641,45.56083 24.7358,52.50994 -12.2718,-1.48341 -9.5109,19.13865 -9.5109,19.13865 0,0 8.2135,31.7794 12.3538,36.41596 6.0395,6.76336 18.093,20.3414 20.2862,18.12264 1.9256,-1.94799 -8.6033,-14.04424 -16.3845,-12.14243 -10.2357,2.50173 -15.5708,6.53583 -23.7351,6.1534 -5.7599,-0.2698 -13.2426,-8.10759 -18.8882,-4.88042 -5.2108,2.97867 -5.7974,11.81313 -4.9648,17.30834 2.0611,13.60439 -4.0171,15.28893 -3.6509,23.27026 0.3006,6.55425 3.0843,5.14512 6.388,4.35701 2.6117,-0.62303 3.8199,-8.98117 9.1043,-13.85715 4.0363,-3.72446 -0.1171,-9.25433 3.6534,-10.37923 13.1427,-3.92105 31.7268,6.15514 39.0996,6.42105 7.3727,0.26591 13.9943,4.52563 20.5451,-8.49424 6.3605,-6.86993 -17.6298,-68.81761 -2.1467,-76.51762 2.5026,-1.24458 4.7334,19.8968 5.0249,25.79239 0.2398,4.84865 -4.4318,4.96744 -8.3854,6.33849 -11.8379,4.10521 -24.5355,2.55806 -36.7797,0.86151 -8.5809,-3.60926 -4.0833,-30.19575 -16.2929,-33.66913 -7.8722,0.19965 -5.8553,1.17758 -13.8712,0.58371 -1.6734,-2.70311 -0.708,-6.86232 -0.5082,-12.84439 0.4812,-14.41091 -11.146,-33.03505 -7.0136,-32.67051 7.2367,0.89467 11.2011,18.73469 12.5431,24.58862 1.5338,6.69083 3.3696,9.8522 -5.3634,10.68211 -8.4332,0.80142 -25.8766,-3.3102 -25.8766,-3.3102 9.0653,0.61876 5.0606,30.46266 -1.8599,36.49029 -6.9204,6.02763 -3.0807,-2.76651 2.0071,-2.74448 0.7838,0.003 1.8091,15.78726 -2.8259,16.34933 -3.5133,0.42606 -17.3461,2.49701 -26.0526,2.14571 -5.0448,-0.20355 -11.6647,-0.84928 -14.9463,-2.45545 -4.0876,-2.00064 -0.3414,-11.71741 5.4059,-12.67733 5.1966,-0.86794 16.5287,-4.41949 20.7063,-11.03052 4.3979,-6.95964 5.2039,-18.07424 1.1305,-24.67233 -3.7307,-6.04299 -0.9643,-20.73301 5.9237,-24.06711 5.621,-2.72076 57.272,-11.15754 64.1041,-5.85363 13.4377,13.45226 31.2592,11.80293 50.6366,8.59602 3.5086,-1.36754 4.843,-8.14075 0.1821,-10.29842 -10.176,-3.51376 -27.9467,8.85544 -37.1307,4.77667 -2.1834,-1.48037 -5.8006,-1.9109 -5.4759,-5.7134 0.4297,-5.03182 3.0359,-9.98014 2.9735,-15.11449 -0.1075,-8.82404 -9.3937,-13.02445 -16.2162,-17.52348 -9.7033,-6.39879 -28.7995,-5.51053 -31.3529,-15.2607 -2.5535,-9.75017 -4.9243,-29.87521 -9.4585,-33.20365 -2.8904,-2.12178 -5.0517,-4.0962 -9.8541,-3.77381 -1.4087,0.0946 -1.8436,-2.1002 -0.752,-2.99598 1.6558,-1.35908 4.8261,0.896 6.4023,-0.55455 0.868,-0.79883 0.8244,-2.62108 0.4691,-3.74599 -0.7432,-2.35383 -4.657,-2.85375 -5.2139,-5.25853 -0.1384,-0.59747 0.022,-1.51065 0.5892,-1.74293 2.0068,-0.82121 3.7222,3.53434 5.8057,2.9338 0.6053,-0.17448 1.1622,-0.64848 0.9743,-1.61937 -0.5311,-2.7461 -4.257,-4.61139 -3.338,-7.25309 0.403,-1.15848 0.9198,-1.80169 2.0828,-1.41186 2.2446,0.75235 1.6345,4.09309 3.794,5.06296 1.4263,0.64059 2.4828,0.6823 3.4227,-0.56724 1.4183,-1.88547 0.8138,-2.15282 0.8823,-4.50966 0.055,-1.88699 2.4977,-3.76251 3.0925,-0.80304 1.0568,5.25886 -0.3953,14.47126 4.9441,14.98425 2.466,0.23692 1.2258,-2.97875 0.8207,-5.4228 -0.4356,-2.62802 2.8367,-5.48156 3.4526,-0.84283 0.2818,2.12256 0.7675,10.47377 -1.1018,13.45059 -1.8693,2.97683 0.4869,10.00113 2.9637,15.7892 2.6225,6.12844 8.9559,15.01642 14.6697,13.48049 14.1504,-3.80376 21.0283,9.68305 19.5355,15.10133 -1.4248,5.1713 -14.8475,-7.71804 -13.324,-13.51118 1.5953,-6.06678 3.1225,-9.90682 10.7227,-7.5179 7.5494,2.37293 10.0275,8.58233 14.2714,13.07887 9.0723,9.61219 13.9125,11.00175 20.3309,7.65017 4.9437,-2.5814 13.6149,-18.0453 3.4617,-18.74866 -11.4765,-0.79502 -23.5632,0.0342 -28.3797,-4.70275 -4.8165,-4.73699 -2.6455,-8.43039 -6.4618,-10.48431 -3.8163,-2.05392 -17.1528,-10.59855 -13.4343,-19.23461 1.7338,-4.02658 9.484,5.10654 9.4963,2.19752 0.013,-2.90901 0.5203,-18.87957 -2.3886,-18.89196 -2.9091,-0.0123 -4.3504,6.22092 -6.8244,4.43262 -7.5509,-5.45809 -3.256,-26.53345 2.5572,-25.34507 5.8131,1.18839 8.1157,4.61936 11.7088,2.7151 3.4485,-1.82764 7.5045,-4.7888 7.1366,-8.51392 -4.0475,-0.0127 -11.6129,-5.48526 -6.8057,-9.58516 4.5145,-3.85028 11.8934,1.27701 17.1875,4.65349 2.8603,1.82422 3.7445,5.93024 6.7534,5.99204 4.2701,0.0877 2.4487,-3.81259 6.6949,-4.19596 7.5724,-0.68367 12.8239,6.85255 15.6421,13.34632 2.3934,5.51505 4.6619,16.48142 1.3978,18.87779 -3.3253,1.68906 -8.1502,1.12891 -9.8833,-1.78755 -1.733,-2.91645 -1.0721,-8.34736 -6.6942,-8.69807 -2.5742,2.47332 -10.4595,12.46628 -16.5977,13.25337 -6.1382,0.78709 -11.8923,-2.392 -14.5178,-6.46178 -2.6255,-4.06978 -5.3493,-1.96074 -4.5729,-7.19408 0.7765,-5.23334 10.1114,-7.91652 16.9255,-9.30783 7.9668,-0.35796 7.9797,-0.56401 19.7135,0.92953 11.3998,4.44888 6.1081,17.63068 10.3807,21.57132 2.2987,2.12014 8.4001,4.20316 9.3039,1.20325 0.7189,-2.3861 5.2204,-3.18557 5.2239,2.93132 0,8.33023 -0.4065,15.25425 -5.1729,18.39321 -2.1609,1.42312 -3.3576,-2.05878 -5.3803,0.48135 -2.0226,2.54013 -0.3385,7.30818 -1.9759,11.06263 -1.6375,3.75446 -6.5184,6.11657 -8.5825,8.9544 6.4627,1.92067 8.7602,2.65937 12.7946,1.21812 3.8742,-1.38402 4.6751,-9.14073 8.7643,-8.68988 3.9033,0.43034 2.4812,10.54512 6.3577,9.91792 3.9468,-0.63857 1.4766,-7.91037 2.9585,-11.62367 6.0814,-15.23812 23.3426,-26.55972 24.0373,-42.95181 0.2168,-5.11546 -8.3613,-7.6331 -5.5777,-11.93041 5.6678,-1.74274 8.3415,6.03898 11.1742,5.16536 6.184,-2.32105 -3.0918,-18.65609 2.6628,-19.96316 2.7493,-0.62446 1.2209,10.23738 4.6074,10.29281 3.2098,0.0525 0.3545,-10.10913 3.5354,-9.67631 3.3173,0.45137 -1.4854,8.87801 1.7033,9.89809 2.0898,0.66854 2.6705,-5.52861 4.6742,-4.6346 3.9004,1.74024 -5.0195,10.29742 -1.6007,12.85736 2.7986,2.09555 8.7308,-5.85658 9.3869,-2.42246 0.8631,4.5182 -12.5433,10.40832 -16.6278,13.3142 -5.7123,7.78402 0.7152,24.37349 -13.264,34.1431 -2.9373,2.05288 0.1494,6.04451 -1.9515,6.2811 -6.5683,0.7397 -4.4116,3.83186 -7.5568,5.27472 -2.7656,1.26876 -17.8849,27.18593 -24.7468,35.75527 -3.2729,4.08735 11.1826,30.33446 9.2018,45.76752 -0.9877,7.69432 -5.2623,14.04378 -12.797,15.8894 -6.6572,1.63067 -17.5472,-2.6027 -13.8513,-8.3748 7.7579,-12.11591 63.2601,-9.98621 90.5798,1.58476 24.0588,10.9784 46.383,28.75575 60.8744,50.877 13.3789,20.42302 23.3611,33.07619 38.1045,56.75046 10.6736,17.13922 48.175,53.11532 105.2092,35.78652" id="path460" sodipodi:nodetypes="csccssssassssszcssscccscssczssassassccccssszsssssssasssssssssszsssssssszzsssssscssssscsczzzccsssszzcaaassccssssssscssssssscssc" />
        <path style="fill:none;stroke:#999;stroke-width:1.81781943;stroke-linecap:butt;stroke-linejoin:miter;stroke-miterlimit:4;stroke-dasharray:none;stroke-opacity:1" d="m -2508.6702,767.60807 c 18.9756,20.89634 22.3377,5.07197 27.6624,-6.13667 -7.6916,5.03316 -14.4452,11.89882 -27.6624,6.13667 z" id="path471" sodipodi:nodetypes="ccc" />
      </g>
    </g>
  </g>
</svg>
