<?xml version="1.0" encoding="UTF-8" standalone="no"?>
<!-- Created with Inkscape (http://www.inkscape.org/) -->

<svg xmlns:dc="http://purl.org/dc/elements/1.1/" xmlns:cc="http://creativecommons.org/ns#" xmlns:rdf="http://www.w3.org/1999/02/22-rdf-syntax-ns#" xmlns:svg="http://www.w3.org/2000/svg" xmlns="http://www.w3.org/2000/svg" xmlns:sodipodi="http://sodipodi.sourceforge.net/DTD/sodipodi-0.dtd" xmlns:inkscape="http://www.inkscape.org/namespaces/inkscape" width="332.87289mm" height="151.84286mm" viewBox="0 0 332.87289 151.84286" version="1.1" id="svg1382" inkscape:version="1.0.1 (3bc2e813f5, 2020-09-07)" sodipodi:docname="svg-1024+.svg">
  <defs id="defs1376" />
  <sodipodi:namedview id="base" pagecolor="#ffffff" bordercolor="#666666" borderopacity="1.0" inkscape:pageopacity="0.0" inkscape:pageshadow="2" inkscape:zoom="0.68149426" inkscape:cx="681.75776" inkscape:cy="256.60757" inkscape:document-units="mm" inkscape:current-layer="layer1" inkscape:document-rotation="0" showgrid="false" inkscape:window-width="1920" inkscape:window-height="1017" inkscape:window-x="-8" inkscape:window-y="-8" inkscape:window-maximized="1" />
  <metadata id="metadata1379">
    <rdf:RDF>
      <cc:Work rdf:about="">
        <dc:format>image/svg+xml</dc:format>
        <dc:type rdf:resource="http://purl.org/dc/dcmitype/StillImage" />
        <dc:title />
      </cc:Work>
    </rdf:RDF>
  </metadata>
  <g inkscape:label="Layer 1" inkscape:groupmode="layer" id="layer1" transform="translate(247.32336,-59.394044)">
    <g id="g1388" style="display:inline" transform="matrix(0.26458333,0,0,0.26458333,286.15042,176.76527)" inkscape:export-xdpi="200" inkscape:export-ydpi="200">
      <path id="path1197-4" style="display:inline;fill:none;stroke:#999;stroke-width:2.00000003;stroke-linecap:butt;stroke-linejoin:miter;stroke-miterlimit:4;stroke-dasharray:none;stroke-opacity:1" d="m -1389.691,-298.90301 c 9.5224,3.29326 17.1829,15.92429 24.0188,31.1142 2.5718,7.08231 10.3702,16.1913 19.9477,27.39182 6.8877,1.75823 13.3718,2.9226 25.7638,12.77854 4.6208,3.74453 4.6472,3.67181 17.5999,14.33887 2.42,3.50944 7.0946,6.10878 0.083,11.32355 -3.3942,1.8066 -9.2337,3.7639 -1.6153,10.7945 26.0384,16.7593 19.2577,36.7923 26.7559,54.6016 0.6645,-10.8989 -0.6625,-22.9121 4.5511,-31.2656 9.4715,-7.7713 18.4323,-11.5762 24.2436,9.075 -0.4941,16.0279 -5.284,30.4889 -13.7331,43.6151 -8.6779,10.96439 -12.3294,5.3213 -16.3478,0.8905 -0.9177,-2.9656 -1.6413,-4.6186 -6.7138,-7.5468 -11.6429,-10.1085 5.1529,-5.4905 -4.3128,-16.9328 -11.1608,-15.5138 -19.875,-13.5572 -35.2131,-33.0932 -6.1403,-8.4256 -6.7349,-15.3071 -1.9697,-22.3759 9.696,-6.9963 6.3729,-8.6141 -0.8796,-5.106 -7.0505,2.9133 -10.7353,7.6176 -15.9037,8.9369 -7.228,-3.8645 -11.198,-21.49684 -22.6192,-35.11023 -12.5798,5.40593 -16.6552,16.11949 -23.5092,26.22433 -3.6783,5.4228 -5.9505,-13.44308 -9.3345,-11.69456 -5.5551,24.73636 -9.0101,19.96236 -16.6381,24.98356 -14.6912,4.3408 -25.6584,-2.0772 -38.462,-15.3849 -10.56,-10.97573 -15.3074,-13.63498 -19.0724,-19.69277 -10.2313,-2.43092 -9.121,-17.77277 -0.5589,-20.81143 2.1839,1.54233 2.3865,10.95312 0.2253,17.95727 l -9.5483,20.04233 c -8.356,5.1901 -13.9997,2.5644 -17.5264,-6.16168 -2.573,-29.88669 0.3482,-31.4042 3.6086,-43.38096 2.389,-6.60109 8.0336,-15.81059 14.4746,-12.54009 5.4504,4.44491 11.4707,10.23412 16.7661,16.24783 12.2161,13.87309 26.134,14.02364 47.3149,41.16451 -1.9238,-7.87105 -15.2181,-23.14885 -13.2999,-32.19381 10.3987,-16.01717 19.6043,-21.80169 23.5023,-29.07822 -1.7319,-16.42611 1.6714,-15.45915 5.4258,-21.69117 2.8326,-3.44934 8.133,-5.28528 12.9761,-7.42029 z m 380.3097,3.11305 c 3.0643,-6.67412 -1.8415,-3.21002 -4.2804,-1.34419 -5.3683,0.88342 -2.2697,-6.79743 -2.0379,-8.06779 0,0 4.1166,-13.37811 4.6749,-14.36112 4.8784,-8.52704 7.85,-0.29628 9.7956,3.43159 2.7563,4.59078 11.72433,-21.11159 32.75173,-14.09648 10.8666,5.53368 23.7207,13.76043 25.2464,24.27135 0.3617,2.49096 -0.9742,17.08442 0.931,17.64972 2.6303,0.49413 5.8367,-2.22595 8.9349,-7.62328 3.8395,-7.58763 13.878,-24.35111 10.9074,-23.53214 -4.5372,-6.6e-4 -22.0561,5.79717 -15.0595,-0.49309 2.8451,-1.70804 7.6048,-6.30232 5.864,-8.05307 -0.8112,-0.81577 -0.068,-6.52167 -3.5572,-11.20741 -1.1869,-2.49335 -6.6554,-11.30298 -3.9846,0.87739 0.9556,4.30754 -0.2533,6.458 -5.3084,7.86142 -4.5175,0.95788 -12.1989,-0.86164 -16.2457,-7.26578 0.5408,-4.55502 6.9917,-3.95651 6.9081,-5.6434 -11.869,-2.73527 -29.1229,-4.16776 -40.16513,15.74895 -1.7062,6.72333 -5.4079,8.32201 1.6043,11.13206 3.80443,0.68921 10.13393,-8.76876 11.15723,-8.2001 1.5861,0.88139 23.2683,19.27576 24.5366,18.14564 4.0045,1.30483 7.9823,2.30026 11.714,0.43588 -0.6546,5.87399 -3.1753,11.06723 -5.779,16.23019 -1.9954,4.50193 -4.3906,3.8048 -6.7758,9.73531 0.8718,4.91689 6.8464,0.88671 9.2132,1.3015 5.8787,3.25423 -7.9316,11.56074 -11.5679,13.12832 -5.7001,2.56732 -4.7151,0.6965 -10.3077,1.31584 -5.2177,6.55094 -10.4195,6.95978 -17.4079,5.85073 -9.85353,-1.56375 -11.46783,-4.38389 -17.95833,-9.95975 -7.258,-6.23498 -7.9213,-11.163 -7.412,-15.81489 0.5093,-4.65188 3.6081,-11.45344 3.6081,-11.45344 z m 12.5199,6.84216 c 2.8171,5.8193 14.55433,10.45065 25.01953,10.33097 2.208,-0.42799 5.9465,-0.28663 7.4169,-1.47 1.3237,-1.06529 -0.2293,-3.0495 -2.1731,-3.41707 -1.8388,-0.68996 -6.4158,9.03512 -11.2168,11.64007 -19.72863,9.97208 -23.93903,-24.73267 -19.04653,-17.08397 z M -2015.9668,95.324964 c 42.4531,-10.8443 83.6631,-24.2413 101.562,-70.7304 12.1114,-48.2602 1.9655,-114.3401 72.3719,-138.796794 59.4822,-12.9767 100.3615,-22.3653 116.7409,-37.1528 16.3795,-14.7874 25.7376,-29.6808 51.4667,-37.1664 9.3863,0.6029 14.2911,7.6616 30.9334,-5.4941 11.9241,-9.4259 12.8219,-19.46197 25.8265,-21.48775 24.2804,26.52325 9.1726,34.32185 0,0 7.8323,-9.1987 8.8837,3.9817 20.1444,2.49932 22.4617,-13.48577 32.3253,-24.48165 45.3122,-35.14788 5.1892,-6.84708 -12.0535,-27.16679 2.3131,-24.72634 9.1498,1.5543 10.2239,7.90715 9.8793,17.53686 -0.2589,14.22258 18.0748,12.0435 14.088,21.43216 -3.1191,7.34516 -17.5316,4.53969 -23.4458,7.80398 -12.805,7.06761 -19.1935,18.12394 -24.5222,27.02705 -5.1843,8.6618 -18.6984,15.5679 -21.4621,11.1576 1.5191,3.9081 -5.1659,9.1402 -11.4633,14.3098 -10.3358,7.3755 -20.719,9.4858 -31.0866,13.3334 -15.1003,3.5807 -23.3459,-9.4104 -12.8548,-9.1349 14.3371,2.5075 25.9862,-11.4712 36.1746,-0.4005 7.1371,16.4294 -6.82,2.7272 -10.3069,9.772 -1.3449,2.7172 -3.546,4.4492 1.1614,4.4486 5.1959,1.2683 15.8918,2.179 20.758,-0.3634 5.6045,-2.9281 14.9734,-0.03 23.1127,1.0229 31.9442,2.1647 29.1656,-6.5088 42.6437,-10.1079 6.9086,-2.8139 8.3745,1.5352 13.5812,4.6404 3.3535,-7.5289 -19.8918,-20.319 -7.3946,-27.8611 -8.0444,-6.2936 -4.3636,-11.62 -0.687,-11.297 7.9205,0.6959 15.1643,10.0743 20.0001,20.1271 -2.8823,21.5307 13.8999,23.8856 7.007,30.4089 -9.9713,6.7445 -17.6181,-0.7259 -29.4703,1.3142 -55.5602,37.7598 -49.349,20.4802 -75.1139,22.0759 l -6.2337,8.2428 c -10.3264,-6.291 -23.5547,-24.4568 -16.0993,-32.0649 4.6272,-3.1183 11.0141,13.9979 16.3744,22.7688 l 2.373,13.7293 c -4.9359,3.316 -18.0929,0.8186 -34.9167,-5.6791 -21.8722,3.9513 -47.6393,3.1009 -54.6744,-30.563 6.7833,-19.2788 39.9902,-26.8116 31.5741,-29.5691 -13.795,-2.6817 -36.5508,13.864 -52.6416,38.8417 -8.4443,7.6652 -25.3277,20.2511 -13.8894,-46.4539 13.8966,-36.16233 -3.0928,-31.56193 -12.0048,-42.60087 -2.3592,-2.92218 -5.4815,-5.25124 -8.2237,-8.11567 -16.5905,-15.21504 -30.3322,-18.47892 -52.0314,-34.7736 -25.0493,-14.12333 -30.1956,-8.68201 -40.3128,0.45837 -6.5483,5.05889 -7.1507,-0.75654 -9.3468,-0.48609 -10.3996,5.73245 -13.1293,-1.25083 -8.7543,-4.7889 5.1163,-4.06127 12.7825,-3.69417 12.7361,-5.57799 0.3888,-4.169 -14.9078,2.51039 -14.2594,-0.001 -0.3704,-6.775 21.4854,-5.30783 24.0506,-8.93194 4.7176,-3.7829 -4.4424,-8.90495 -1.3372,-11.07029 4.1779,-0.8436 9.325,6.68837 17.6837,10.15703 14.6354,-1.54311 32.6611,6.25884 42.8445,9.21982 7.3687,3.61319 12.3072,18.35402 32.9016,18.24459 11.2437,-0.0597 21.41,3.17526 29.1323,12.98093 18.8734,4.66246 32.0172,-0.86631 25.6934,-4.63097 -9.4161,-3.54705 -6.3856,9.89164 -29.6009,-13.35103 -5.4053,-4.61954 -6.5376,-6.52407 -9.8406,-6.09831 -20.3223,12.84487 -24.993,9.16664 -36.3184,-0.20669 -12.6411,-6.92206 -12.1959,-17.38397 -39.2435,-20.40908 -18.9055,-4.40531 -12.6246,-19.45721 -10.1554,-29.44503 10.3133,4.59741 14.2543,5.87783 14.3299,1.89382 -5.2056,-16.69575 4.19,-44.35807 6.2578,-41.14039 4.1055,12.21676 2.9472,15.72332 14.9906,28.83981 9.5494,2.44382 7.606,-2.16655 8.8813,-3.99489 -0.6363,-5.61471 -1.8111,-16.35743 1.1472,-14.51112 12.6408,12.06905 17.6252,18.47436 15.531,28.83083 -4.6605,15.87026 -1.3225,20.70414 0.2565,23.79048 5.9442,4.67847 14.0925,8.53294 15.0258,15.08474 0.5787,7.18476 -19.577,8.05009 -27.5319,-2.31607 -7.1782,-11.78808 -9.442,-25.70941 -2.0329,-34.45584 4.3985,-5.1925 4.0305,-8.08243 8.2688,-9.289 11.133,-0.11373 14.3192,2.27499 21.7042,4.51157 7.3829,2.37857 10.1587,-4.4211 11.4018,-2.4372 0.8487,1.66484 6.4359,5.26505 10.0935,5.47106 3.0544,7.492 -8.9297,18.56103 -4.999,19.75349 8.7163,0.90871 8.1676,-7.12934 14.0624,-6.09372 8.5257,8.18249 7.3169,9.08603 7.0493,16.46735 -5.91,5.7532 -20.0179,2.30237 -12.844,7.5738 13.8205,11.9187 11.6341,9.33604 20.2172,13.44321 -0.8319,-12.54814 4.458,-32.08763 19.1954,-41.57732 8.999,-5.79467 8.1957,-15.92046 11.6749,-37.2676 0.659,-4.33404 2.5014,1.09862 5.6116,11.83479 1.4109,3.88106 5.0337,-4.21054 9.7386,-10.04306 7.4633,-7.09401 9.3886,-0.25373 5.2437,3.66176 -5.4132,4.44374 -6.6668,7.48544 -3.7405,6.63844 10.0318,-3.64627 6.8686,-4.12355 12.5712,-6.44997 8.602,-2.67456 5.5914,2.63705 1.8222,5.36893 -5.6564,1.97749 -13.3619,5.64615 -11.3698,5.88209 4.7797,1.42626 6.2919,-1.12335 11.8831,-1.05587 4.8936,-0.10603 4.8013,1.93644 1.8887,2.77144 -4.2397,1.62495 -13.0175,4.74792 -11.4644,5.69501 3.0016,2.88194 3.6493,2.36214 6.7303,3.73719 3.7655,2.1645 3.6799,4.58456 -1.4379,4.75757 -4.7799,-1.92378 -9.3079,-3.71954 -14.5267,-2.82291 -17.0328,17.02531 -12.4407,32.79237 -23.7349,41.13661 -7.5426,4.32746 -5.6386,12.13251 -4.2556,19.74576 16.8663,12.52735 12.9622,15.16956 16.3209,32.72782 6.6031,33.93011 12.6069,32.39571 12.6069,32.39571 7.242,-9.0389 13.8032,-12.203 20.633,-17.68553 3.1995,-4.24825 7.0128,-2.35745 9.5249,-13.48114 1.9598,-19.65775 15.2164,-22.53292 32.2629,-29.39623 3.6401,-0.56507 6.7621,-4.37374 9.2075,-9.11659 6.2305,-12.08412 -2.5966,-9.93388 13.0077,-27.45995 44.6772,-50.17941 141.9901,-45.86695 184.4544,-22.20981 5.8563,3.41888 1.8061,5.59159 -5.8085,10.47549 -6.0676,4.91806 -6.2882,6.82562 4.0577,5.6394 6.9846,-4.30457 15.6944,-6.7191 24.519,-7.11503 10.0115,-1.49192 12.1178,6.38869 11.2089,9.76513 -5.3897,9.66043 -3.4089,8.61555 2.0859,8.50494 8.8654,-1.54162 10.3724,-2.25492 14.8328,-3.49964 2.3977,-1.53402 3.3448,-2.54604 -1.3543,-5.8672 -11.8102,-7.9593 -20.6857,-18.48013 -25.6146,-32.44594 -1.6948,-15.41161 -3.6784,-19.85046 -9.1162,-29.02099 -15.8107,-12.86977 -14.0779,-25.89472 -37.2243,-30.72317 -4.4788,-4.82353 1.4636,-4.81789 5.538,-3.39738 l 6.7135,2.16062 c 12.2843,-2.12367 -5.9074,-13.69703 -10.5892,-17.36434 -3.1049,-9.09001 1.1059,-7.41739 5.8973,-4.89061 l 5.6652,8.48827 c 17.4494,10.01056 -12.0522,-25.02693 5.7915,-14.92667 3.6644,9.25109 5.5094,20.77878 7.7323,15.88857 2.1438,-16.68264 4.1892,-27.32255 6.9604,2.9169 0,0 3.7632,4.42165 5.5908,1.42885 1.8275,-2.99282 3.0628,-9.32786 3.0628,-9.32786 2.3071,-4.52894 4.4481,-7.23102 5.4204,2.92035 -0.879,9.15846 -7.7528,12.04375 -6.957,21.26884 8.9172,15.35096 17.5073,15.92836 26.4072,26.11023 5.7329,7.56505 9.9304,14.37964 17.5353,22.8598 1.5809,6.19273 -1.0526,14.0797 -8.5694,17.19365 -2.2496,0.41047 -12.0608,4.52837 5.2422,3.66282 0,0 9.258,-3.60927 9.1687,-12.73399 -0.051,-5.20366 0.4196,-12.45801 0.4196,-12.45801 -1.4869,-10.61718 3.6296,-4.51601 6.8442,-3.23002 1.7515,2.47516 1.9198,2.20517 4.1898,9.43346 0.8532,2.87203 0.605,10.347 7.4561,2.34085 3.5384,-24.41108 9.907,-34.19831 17.0561,-39.95204 l 0.8496,-8.00226 c -0.017,-1.93516 29.7938,-19.45221 30.4813,-17.6007 0.6116,1.64728 6.4768,-8.9893 1.9279,-9.70546 -4.2362,-9.20589 -13.3612,-14.38603 -20.0855,-20.58757 3.8909,-3.50671 7.4554,6.44318 13.8065,5.06077 1.4131,-3.41033 -4.5063,-3.80699 -6.8178,-12.19618 -0.8823,-7.53809 1.9902,-8.06219 6.6363,-5.27314 9.7796,8.2326 15.2122,30.0434 16.8599,12.64946 l -1.0307,-9.65756 c 3.5502,-5.03528 5.4786,-3.90639 6.1544,1.98392 -1.9287,7.99017 -0.2914,12.95385 0.5648,18.5805 5.2171,6.36582 10.6805,10.02381 16.7954,6.51663 10.0402,2.55669 5.0574,4.21302 1.1769,5.93541 -7.5165,2.94905 -9.3854,6.4116 -12.1653,9.7913 -3.7161,0.0542 -5.6063,-1.46021 -11.1352,1.60257 -5.0162,12.63185 -9.9101,17.84741 -15.8652,24.63176 -21.2162,13.22797 -12.7832,18.96187 -20.008,28.89795 -0.4993,9.35267 -2.2045,20.41243 5.7606,17.78309 52.0367,-16.88459 55.7264,2.9252 60.8168,21.67187 -4.9467,27.21119 -6.8938,32.11659 -12.1895,43.24703 0.6838,3.88687 -17.0639,9.08977 -22.9945,5.07134 -4.3004,-2.91398 -11.6655,-11.75742 -10.5423,-12.90095 0.5858,0.67204 -7.9241,9.6987 8.9281,18.31009 -7.5669,2.12971 -14.9155,6.26115 -24.0399,-5.88609 -4.2042,-6.1851 -1.5764,-32.00716 -3.3056,-31.93424 -1.0054,0.0424 -11.6736,-13.80061 -7.1933,-12.56402 3.5433,-20.49142 9.2605,-12.27009 14.3722,-12.04458 1.6785,8.10124 3.9455,10.46375 10.4922,8.06901 6.1838,-14.985 11.9518,2.61913 19.2437,10.79612 16.4562,9.92444 22.8787,12.51315 31.3507,9.40666 11.4058,-6.51184 15.199,-14.41557 15.9686,-17.92045 0.2889,-1.31559 6.1655,-27.41616 3.0695,-28.43972 -4.555,4.94113 -5.7408,12.81981 -14.0222,11.82578 -10.4384,-3.75355 -5.0326,-20.57096 -6.2791,-31.90337 -3.0078,-5.2359 -6.2018,-15.74498 -8.5835,-3.25637 -1.0983,7.593 -5.3261,9.67012 -8.7854,13.10173 -17.3909,5.18007 -14.3586,-8.16511 -7.6191,-17.76376 11.3681,-15.46736 -2.3775,-4.5584 -4.8551,-2.17994 l -8.8124,10.49992 c -11.7364,3.56048 -14.6133,2.57069 -10.1187,-7.70116 3.5928,-4.88998 2.1333,-4.93844 -2.619,-1.83143 -24.7748,14.81505 -28.2485,33.7569 -34.5949,51.47322 l 4.7961,14.2604 c -9.7006,2.45059 -18.2402,5.16338 -19.6029,9.49684 2.2656,10.65541 5.9242,15.51841 10.5771,16.24612 6.276,4.16581 7.5752,1.81884 11.1777,2.48598 l 7.9359,-5.66121 c -4.8464,4.0143 -3.7579,11.25624 -4.4672,17.52045 -7.7986,9.11414 -17.8152,2.66359 -26.7229,3.9949 -15.6084,1.6933 -8.5576,8.20856 -2.4512,14.52284 43.0062,26.58237 44.9736,22.14028 114.5451,7.06941 69.5714,-15.07086 124.7774,-8.64577 123.9074,9.78328 3.5223,12.69148 6.9293,-2.7132 6.306,-1.18122 -1.9818,-19.16262 14.9351,-25.14303 19.6966,-36.26218 -8.343,-14.05706 -2.7495,-48.63223 -8.7685,-57.71567 -11.4415,-17.26654 -9.9603,-35.8827 -10.2696,-39.66377 -1.267,-3.85385 -18.882,-11.93728 -16.7132,-16.36903 1.1634,-2.68228 10.7645,5.84985 10.833,5.09166 2.725,-3.28138 -6.0503,-16.64767 -2.4,-16.33108 3.5992,0.8267 4.712,7.23691 7.5534,11.44507 2.1048,1.37733 -0.9406,-13.15389 0.777,-14.69001 3.7389,-0.95432 1.8808,14.19815 4.7636,11.2869 2.0267,-7.66268 6.346,-15.99927 6.5552,-13.07856 0.7877,6.50063 -1.9168,10.11864 -2.373,22.23538 3.5282,2.39372 8.0088,-3.77034 13.345,-3.76297 3.7079,0.34754 -5.7451,5.85011 -7.1865,15.22267 0.185,10.85724 4.8283,9.62123 15.1439,33.29443 10.3155,23.67322 -11.2638,33.35753 -3.2379,29.87176 7.1944,-3.51472 10.3087,-7.30945 12.3126,-4.21732 3.2986,9.04558 0.6168,5.75918 3.2894,12.4138 2.9442,2.73294 1.2719,1.45295 9.9531,0.82787 4.3716,-0.31479 -0.6345,9.6568 -1.3987,8.65667 -7.7401,3.07231 -6.4478,6.29846 -5.4625,10.74443 1.7148,7.39013 4.4072,19.13421 20.6716,12.70552 13.38833,-4.95186 10.20303,-7.24754 23.98863,-7.49959 4.559,0.85176 3.1562,1.51016 5.4219,4.23059 4.7363,7.54366 -3.4526,16.11931 -4.6401,17.1333 -6.6465,5.67534 -14.549,2.45913 -9.2079,-5.57375 4.6381,-8.13891 7.9543,-11.58795 18.751,-9.56378 10.0795,1.88971 10.4518,-1.1132 19.7388,-2.07082 16.824,-1.03136 34.2666,1.92112 38.625,-3.29146 4.6995,-6.25431 6.9302,-16.6996 15.2453,-16.9762 2.7787,-0.0338 6.2642,-0.22943 1.063,3.61161 -1.5017,0.89849 -2.9158,2.02417 -3.6669,4.87054 0.1433,1.76424 0.2613,3.54348 3.2891,3.59008 3.4133,-1.11907 6.6481,-0.92443 10.9209,-4.29463 3.7764,-1.90898 5.9678,-0.42402 4.1196,2.83964 -1.5272,1.87478 -3.8843,2.27011 -6.3731,3.87474 -2.61,0.96258 -3.3138,3.50705 0.4123,3.99127 4.222,0.0143 5.3346,-0.34056 9.8567,0.45701 3.0299,1.27836 1.3104,3.11894 -1.4461,4.01005 -3.1562,0.60628 -4.1044,0.2652 -7.9836,0.63975 -0.2239,3.93925 3.2374,7.00909 6.028,7.74366 -0.8752,1.76816 -1.9306,2.84225 -3.3182,2.63656 -4.6671,-1.41223 -5.9196,-3.61553 -8.6067,-5.4865 -3.3567,0.50098 6.1833,18.00564 -2.5014,9.69091 -3.6943,-5.9459 -10.3142,-7.58766 -16.4159,-5.59383 -37.0335,13.43689 -38.3997,13.95843 -60.7831,17.1759 -12.319,4.49901 -19.3943,7.22742 -34.31973,24.14708 -8.2447,3.2432 -15.2869,12.687 -29.8509,-10.8417 -3.5765,-2.84814 -10.1833,-7.17751 -16.474,-11.35241 -2.2073,-1.23513 -9.6431,5.92436 -3.9805,10.44971 2.8064,2.2428 15.3646,12.9134 21.6814,11.6701 4.9868,3.4365 3.8314,2.7592 10.5733,15.8744 12.1131,2.9243 30.17603,12.5224 28.85563,22.3756 -0.3123,2.3301 16.0394,41.0951 16.0394,41.0951 4.9477,11.32589 1.3003,34.916694 15.5829,32.921894 6.3929,-1.9627 18.548,-6.2233 24.9869,-3.0922 3.3512,4.3233 2.1735,9.5636 0.23,16.4735 -7.6084,6.5532 -15.6972,12.9146 -44.2744,12.8376 -5.4794,-3.8263 -11.8391,-6.6237 -5.3484,-13.563 2.6739,-4.417 12.0242,-1.1133 9.6993,-5.1628 -5.247,-8.2476 -18.4218,12.8992 -24.19993,-31.251204 -13.421,-13.89919 -17.4359,-22.14529 -21.8745,-30.25439 -5.7657,-10.5339 24.4371,-19.8733 36.64643,-14.8781 2.5265,1.0337 9.4288,5.7914 0.8091,6.311 -9.5103,0.6314 -18.95663,1.0819 -31.12923,9.2448 -7.9365,9.6188 -5.574,19.5976 -11.7858,10.5308 -2.7223,-12.6028 -11.7833,-16.4497 -22.4441,-13.5207 -10.551,2.8988 -19.0399,9.3403 -34.4627,10.3946 -18.7813,-20.3848 -27.8794,-31.0286 -22.6433,-37.7393 6.7703,-8.677 19.3891,-11.878 31.9614,-24.1515 6.0249,-5.5645 6.6751,3.1508 2.4263,11.5856 -7.7086,11.2715 -18.3522,11.6654 -31.075,14.4485 -1.6906,0.4833 -3.2116,0.8205 -4.6579,1.0933 -7.1727,1.3531 -12.5085,1.1232 -27.5747,9.2781 -10.1944,7.1647 -16.353,8.0591 -24.0438,11.4017 -20.3646,4.3834 -20.6697,-16.7863 -29.2504,-24.6019 -10.2005,-7.7884 -10.5076,-0.2198 -12.591,4.5915 6.466,13.9963 8.7772,30.5633 8.1529,33.3708 -1.1347,5.1029 13.0872,7.6244 13.0709,5.8119 3.3968,-3.2553 7.3492,-4.8924 11.4605,-6.0667 10.0789,4.3314 20.1322,5.8158 30.1674,5.2812 7.6799,-2.5871 9.7833,-9.8624 16.5996,-12.0865 17.9575,3.5347 51.0634,3.0805 48.3232,-0.1302 -1.4677,-1.7199 22.1971,-10.2673 23.2966,-11.7656 0.5867,-0.7993 3.7942,-2.9102 5.6565,-7.1492 1.6285,-3.7071 -7.5606,-5.2913 1.9752,-9.6578 4.8368,-2.2148 35.193,-14.2994 48.57923,-11.2848 11.3735,2.5614 53.4427,9.5534 83.2145,60.0212 11.6141,19.687594 19.5156,71.206494 28.6854,119.847694 5.9096,35.4724 19.7591,64.0788 48.2434,81.6506 21.6546,13.3585 47.6343,18.562796 72.90434,22.289696" inkscape:export-xdpi="200" inkscape:export-ydpi="200" />
      <path id="path852-7-8-6-0-2-1" style="display:inline;fill:#ffdb28;fill-opacity:1;stroke:none;stroke-width:0.899937px;stroke-linecap:butt;stroke-linejoin:miter;stroke-opacity:1" d="m -1281.4876,-89.862936 c -37.2949,0.3613 -75.1414,38.137 -79.9681,86.5068 -4.9034,49.1375 3.3474,95.8054 46.4435,123.497296 18.4643,11.8645 51.5053,12.0831 74.8743,-13.0684 1.3068,25.0116 30.6338,34.543 35.1082,1.3235 3.1763,-42.593296 -1.6792,-65.273196 -0.5501,-96.311096 0.8291,-44.4851 -29.5499,-100.9407 -74.1326,-101.9375 -0.5916,-0.013 -1.1832,-0.016 -1.7752,-0.011 z m -0.8912,47.8041 c 30.4674,0.5937 43.2557,32.3356 42.6891,58.83 -0.6741,18.0857 -5.3024,60.1478 -41.4851,64.8485 -33.4738,4.3486 -52.4418,-45.236 -46.7458,-74.4999 5.6959,-29.2639 19.6683,-49.6828 45.5418,-49.1786 z" inkscape:export-xdpi="200" inkscape:export-ydpi="200" />
      <path style="display:inline;fill:#77fde0;fill-opacity:1;stroke:none;stroke-width:0.899937px;stroke-linecap:butt;stroke-linejoin:miter;stroke-opacity:1" d="m -1371.5031,66.546964 c -22.5038,25.6984 -72.0234,26.488 -75.0445,-41.0185 -3.0212,-67.5065 51.6173,-81.6711 71.6796,-53.8882 25.1366,26.2374 38.1732,-8.1158 26.9776,-27.5384 -9.4878,-16.4598 -28.6247,-32.6337 -49.0755,-33.0909 -37.8604,-0.8466 -76.8396,37.3582 -81.743,86.4958 -4.9033,49.1376 3.3465,95.8056 46.4427,123.497496 22.3158,14.3393 67.9761,15.7789 89.2119,-29.847796 5.3766,-16.1575 -7.987,-47.976 -28.4488,-24.6095 z" id="path852-3-9-1-9-0-1" sodipodi:nodetypes="szcsszscss" inkscape:export-xdpi="200" inkscape:export-ydpi="200" />
      <path id="path852-4-1-6-1-4" style="display:inline;fill:#952790;fill-opacity:1;stroke:none;stroke-width:0.899937px;stroke-linecap:butt;stroke-linejoin:miter;stroke-opacity:1" d="m -1546.7923,-88.606136 c -37.2949,0.3612 -75.1414,38.1369 -79.9681,86.5067 -4.9034,49.1376 3.3456,95.8055 46.4418,123.497396 22.3158,14.3392 67.9762,15.7792 89.2118,-29.847396 5.3766,-16.1574 -7.9864,-47.9759 -28.4482,-24.6095 -22.5039,25.6984 -57.5414,22.8427 -71.772,-23.1945 l 104.864,0.048 c 9.3612,-2.774 14.9411,-12.4325 15.1021,-21.073 0.8292,-44.4852 -29.0735,-110.3198 -73.6562,-111.3166 -0.5915,-0.013 -1.1833,-0.016 -1.7752,-0.01 z m -3.1305,47.2557 c 16.9627,0.075 33.1541,14.5613 41.0282,37.2508 l -82.5449,0.4675 c 10.9833,-26.6326 26.5496,-37.7848 41.5167,-37.7183 z" inkscape:export-xdpi="200" inkscape:export-ydpi="200" />
    </g>
  </g>
</svg>
