<?xml version="1.0" encoding="UTF-8" standalone="no"?>
<!-- Created with Inkscape (http://www.inkscape.org/) -->

<svg xmlns:dc="http://purl.org/dc/elements/1.1/" xmlns:cc="http://creativecommons.org/ns#" xmlns:rdf="http://www.w3.org/1999/02/22-rdf-syntax-ns#" xmlns:svg="http://www.w3.org/2000/svg" xmlns="http://www.w3.org/2000/svg" xmlns:sodipodi="http://sodipodi.sourceforge.net/DTD/sodipodi-0.dtd" xmlns:inkscape="http://www.inkscape.org/namespaces/inkscape" width="303.91614mm" height="132.95399mm" viewBox="0 0 303.91614 132.95399" version="1.1" id="svg2097" inkscape:version="1.0.1 (3bc2e813f5, 2020-09-07)" sodipodi:docname="svg-1024+.svg">
  <defs id="defs2091" />
  <sodipodi:namedview id="base" pagecolor="#ffffff" bordercolor="#666666" borderopacity="1.0" inkscape:pageopacity="0.0" inkscape:pageshadow="2" inkscape:zoom="0.35683908" inkscape:cx="611.47259" inkscape:cy="234.10879" inkscape:document-units="mm" inkscape:current-layer="layer1" inkscape:document-rotation="0" showgrid="false" inkscape:window-width="1920" inkscape:window-height="1057" inkscape:window-x="1912" inkscape:window-y="-8" inkscape:window-maximized="1" />
  <metadata id="metadata2094">
    <rdf:RDF>
      <cc:Work rdf:about="">
        <dc:format>image/svg+xml</dc:format>
        <dc:type rdf:resource="http://purl.org/dc/dcmitype/StillImage" />
        <dc:title />
      </cc:Work>
    </rdf:RDF>
  </metadata>
  <g inkscape:label="Layer 1" inkscape:groupmode="layer" id="layer1" transform="translate(55.952122,-86.225382)">
    <path id="path1220" style="display:inline;fill:none;stroke:#999;stroke-width:0.52916667;stroke-linecap:butt;stroke-linejoin:miter;stroke-miterlimit:4;stroke-dasharray:none;stroke-opacity:1" d="m 148.58733,172.33928 c 0.78057,0.0376 18.77176,3.65275 18.76359,2.9979 0.27368,-0.24558 -5.31241,-1.96014 -6.22062,-2.2067 -0.67326,-0.18277 -0.21407,-1.83382 -0.16068,-1.84213 0.79531,-0.59095 0.9489,-0.33754 1.71931,-1.17754 0.46623,-0.50835 -0.15494,-1.73311 -0.76025,-1.36671 -0.77732,0.8467 -1.82435,1.56518 -2.66806,2.34544 1.40962,-1.78509 4.22402,-3.87928 4.8146,-4.57426 0.59055,-0.69499 0.64429,-2.31822 -0.43209,-1.53597 -1.07638,0.78225 -2.02375,1.93329 -3.18268,3.01247 1.26458,-1.30041 2.31879,-2.07794 2.85036,-3.17346 0.5316,-1.09552 -0.62465,-0.82789 -1.02478,-0.51014 -0.40013,0.31776 -1.16303,1.6385 -1.16303,1.6385 0.15264,-0.45034 0.24781,-0.90415 0.313,-1.38014 0.0652,-0.476 0.0958,-1.16145 -1.04643,-0.042 -1.1422,1.11949 -2.62622,4.26289 -3.54936,6.70534 0.84778,-2.97379 1.04979,-5.90148 3.02573,-8.9558 -0.69626,-2.57594 -0.5523,-6.62723 -0.0318,-11.3397 1.2392,-2.04986 1.91005,-4.02145 4.216,-6.21824 0.0624,0.58641 0.12478,1.17282 0.18717,1.75923 -1.03579,1.51763 -2.22867,3.03723 -3.63122,4.55945 1.45103,0.30635 2.80236,-0.27241 4.17549,-0.65779 -1.5168,1.00782 -2.86385,2.2048 -3.86106,3.79165 -0.44318,2.84573 -0.32602,5.79626 -0.44159,8.70327 2.31561,0.28297 8.46304,-2.09666 6.94682,0.8489 -0.84601,2.28141 -2.54407,2.74861 -2.29923,5.42358 1.67696,0.56658 3.32126,0.90977 5.15112,2.52284 -0.25411,0.94477 -0.51311,1.88898 -1.34157,2.76924 -0.13285,1.13544 0.82391,2.1013 -0.67249,3.44898 -3.75536,1.23972 -14.10327,-3.12372 -23.32408,-3.06614 -0.2921,0.44251 -0.548,0.89846 0.23426,1.12557 3.02734,1.15309 6.33582,2.16114 9.94654,3.01334 -5.31461,0.54359 -15.78867,0.80801 -15.94382,1.63077 0.2015,0.61639 0.007,0.88989 1.27698,0.86481 3.5986,0.65328 6.88793,1.67661 10.05451,2.84683 m -18.2073,5.93393 c -0.18372,-2.32687 3.27732,6.68381 -5.13773,19.25156 1.95866,-0.61879 7.61206,-10.74951 7.2241,-15.50351 0.62482,-1.84498 8.58375,-0.73432 9.59956,-0.51199 0,0 8.60862,-3.00459 17.22594,-2.04616 0.13226,1.65193 1.84941,16.94376 5.60173,23.82102 0.44231,2.41413 0.73496,1.99934 -1.11826,2.13815 -1.22468,-2.12482 -3.33394,-5.39279 -11.5379,-4.68818 -8.20401,0.70459 -9.42366,-2.10274 -9.59691,-8.41891 -0.076,-2.76975 -3.15566,-3.45405 -6.44882,-4.66831 -4.75629,-1.75373 1.93445,-2.56157 2.85149,-2.681 0.72411,-0.0943 1.5684,-0.44824 1.0055,-0.65691 -3.77645,-1.39998 -8.25757,-4.71758 -8.12017,-5.64103 0.32985,-1.21153 13.34807,-0.0145 16.56953,-2.34946 3.22146,-2.33496 12.79038,-2.07578 12.79038,-2.07578 0,0 0.18166,7.79531 1.51249,10.17363 2.4746,4.42239 6.13296,2.69094 7.77809,2.73905 m -42.20671,-62.90314 c 0.21863,-2.17654 2.15866,2.49278 1.26738,-6.07982 2.52394,5.41834 6.64133,6.21363 10.23115,5.41123 9.73714,-5.07327 8.5077,-13.53655 9.10008,-13.24929 0.35949,0.17434 2.39535,1.10496 1.62306,3.77767 -0.77232,2.67275 -11.5193,7.47665 -12.09969,7.46452 -1.45706,-0.0304 -0.35729,-3.54734 0.43894,-3.74241 0,0.73403 0.29472,2.08655 1.39587,1.79521 0.40055,-0.10597 8.23401,-4.50194 8.9087,-5.60704 0.19778,-0.32393 1.08948,-3.23052 0.96361,-3.31379 0.98558,-5.08911 -2.66192,-4.22468 -3.45945,-3.18828 0.39897,-6.63943 -13.50338,-8.08766 -13.6779,-14.61822 -0.76425,0.91791 -2.15871,4.48112 -3.77317,5.52529 -2.89621,3.25238 -1.90114,5.62804 -1.99136,7.88661 -0.0903,2.25858 -0.13613,1.68812 -0.14504,3.39381 -0.3778,-0.70098 -2.49312,-4.96202 -3.33823,-4.26795 -1.1517,1.80838 -1.08963,6.48217 0.41024,8.43067 0.8123,1.05528 2.84173,-1.90437 3.1083,-0.10251 0,0 1.18279,8.14668 -0.014,9.2037 -1.19679,1.05705 -7.86247,4.9021 -7.32663,4.43165 0.65005,-0.57077 3.20521,2.31137 1.16787,-10.75048 -0.17587,-1.12751 0.0277,-7.65615 0.0148,-9.21329 -0.0119,-1.47363 1.11345,-7.63163 1.55234,-8.75757 1.05934,-2.71797 3.42072,-5.32223 5.48262,-6.73861 2.20522,-1.51484 6.73814,-2.29371 6.84556,-1.20369 0.34581,-1.63493 1.02288,-1.61439 4.63016,-1.668 5.8185,-0.0865 11.45347,4.44826 12.60819,13.88908 1.37231,11.21946 -2.01978,16.84894 2.61678,23.17449 -1.2182,0.20496 -3.7111,-3.70627 -3.71028,-3.47116 1.20502,1.62605 0.0387,8.08358 -2.22411,10.26374 1.5553,-1.16287 5.10653,-5.30715 6.03842,-5.58605 18.79002,1.16429 18.12764,31.3113 14.00702,42.6995 2.15569,4.54119 -35.813,2.44493 -37.56128,-1.69005 0,0 -0.72811,-5.43564 -0.74055,-6.42986 0.37582,-0.416 16.34451,-1.13721 15.94491,-1.5435 13.1858,0.317 7.48821,-18.69603 5.53085,-19.55405 -1.51083,2.52585 -5.38242,18.26513 -8.2505,17.94538 0.91223,-1.13123 1.4914,-8.62746 1.39395,-19.49802 -0.0458,-1.13761 -8.41187,6.67526 -8.84766,6.90808 -2.54228,4.25084 2.75299,14.09213 -1.93858,14.54142 -1.9554,0.18725 -0.18738,-14.7774 -2.15842,-16.55861 -1.817,-1.64205 -4.03495,-6.59646 3.02707,-3.75179 1.94789,0.78464 -3.166,-3.67241 -5.56138,-6.22471 -0.72533,-1.64247 -0.0883,-2.59954 -0.94763,-5.81367 -0.51996,-2.01213 -0.61206,-3.60205 -0.54205,-4.11963 z m -88.241824,53.16698 c -8.393589,1.63438 -16.418798,3.17562 -25.018815,3.93314 -1.682062,-0.0983 -3.09581,-1.27056 -3.396271,-3.88898 -0.59092,-11.38101 -0.673179,-17.6626 0.02683,-28.96092 -1.508601,-0.28013 -3.088455,-1.19607 -4.0544219,-0.49422 -0.965915,0.70185 -0.934667,6.15488 -0.113745,6.46306 0.8209229,0.30817 3.5176889,0.48688 4.6985239,-0.91516 0.76589,-0.37424 1.094317,-5.94672 1.298787,-11.30465 0.345572,-3.16844 1.166389,-3.00663 2.942272,-1.28243 1.77591,1.72419 2.855331,5.12794 4.190789,8.27762 0.605499,-0.32612 1.189117,-0.71198 2.421757,0.67035 0.07853,7.0316 1.174142,6.73241 1.761226,10.0986 0.947314,1.3173 1.249786,1.24941 1.958657,0.98756 1.7145,-0.63335 1.883834,-0.55745 1.945958,-0.0243 0.260244,2.23346 0.836798,2.49891 2.213107,2.65817 1.394196,0.34209 4.545066,-1.09595 3.472551,0.6572 0,0 -5.663592,1.19449 -6.216359,0.93415 -1.947493,-0.91724 -4.743636,-5.85749 -5.146675,-6.90327 -0.457624,-1.18735 -5.617369,-4.07453 -7.28726,-3.76244 -0.66847,0.50142 -0.62193,1.11067 0.446537,1.47358 1.746065,1.26542 2.740713,1.99995 4.007776,2.98604 0.327237,0.48976 0.284321,0.70909 -0.226219,0.58672 -2.232554,-1.10098 -4.6736,-2.60793 -6.611964,-2.68098 -1.074499,0.0769 -0.58285,0.64436 -0.335148,1.21088 2.907269,1.24009 5.309632,2.65551 7.602935,4.10883 -2.401358,-1.16784 -4.745567,-2.41248 -7.238577,-2.98455 -0.573325,0.19221 -1.421606,0.17774 -0.487918,1.44635 1.19216,0.84022 2.33127,1.83074 3.496178,2.76242 5.412899,4.05951 6.021123,1.90423 0.315727,-0.40637 -0.95422,-0.38554 -1.742175,-0.67988 -2.697083,-1.11966 -0.713423,0.14586 -0.690774,1.1181 -0.224525,1.47726 1.625017,1.80742 2.818315,2.27184 4.166367,3.21761 -2.007632,0.0362 -3.628231,0.63751 -5.35821,1.07911 2.206837,-0.23729 4.398169,-0.35566 6.53849,-0.0818 -2.472399,1.11454 -3.932635,2.32283 -5.015733,3.56606 2.248244,-1.35029 4.492969,-2.71279 6.965579,-3.27905 0.789649,-0.18438 1.323288,-0.33707 4.660583,-0.83683 8.665051,0.1348 17.869776,-5.08998 27.636606,-4.7282 -0.37053,2.75335 -0.1527,5.16067 0.19084,7.49404 -4.10453,0.93731 -8.20071,1.89858 -11.778906,4.35134 0.04188,1.1596 -0.08935,2.05526 -0.584755,3.04351 -1.539664,-4.62585 -0.358749,-9.28574 -0.330015,-13.93121 M 17.779525,204.0901 c 1.55694,-0.0455 2.014643,-2.95735 1.752467,-7.74622 2.361724,1.03674 4.705139,0.61005 7.052046,0.46225 -0.0209,2.29397 -0.03601,4.58787 -0.629418,6.889 1.299898,0.9264 5.448512,-7.06369 8.179541,-10.61671 l -3.504459,19.0908 c -4.139935,4.58771 -7.761526,5.1918 -11.378115,5.75737 -1.753897,-0.1314 -2.053352,-0.77755 -1.634755,-3.06228 3.551185,-6.50863 2.645834,-18.94951 2.771008,-20.5129 8.155464,-0.90708 17.25893,-3.34689 16.586385,-3.07009 0.723794,7.59335 -4.055718,15.91922 -4.496012,21.49589 m -16.98617,-58.56427 c -1.40036,-4.82579 2.872846,-10.20002 4.943025,-9.97598 1.957493,0.21186 2.501979,5.14038 2.547911,7.87739 0.03397,2.02487 1.762496,8.85214 1.882299,8.32021 1.053994,-4.67921 -1.793531,-14.59524 -1.799617,-16.63131 -0.0037,-1.23909 3.512344,-1.3259 4.47937,-2.16302 2.470944,-2.13898 2.096452,-2.13515 3.639132,-3.80442 1.542679,-1.66927 3.924538,-3.0978 3.990763,-3.58764 0.206931,-2.05988 0.536258,2.69061 -0.30726,-5.42251 2.388684,5.12793 6.349894,6.86966 9.747272,6.11026 7.86977,-3.14507 7.35955,-14.00062 7.92017,-13.72876 0.34023,0.165 2.26698,1.04574 1.53604,3.5752 -0.73091,2.52949 -8.76744,6.94501 -9.31674,6.93353 -1.37896,-0.0288 -0.33817,-3.35721 0.41542,-3.54182 0,0.69468 0.27892,1.97471 1.32106,1.69899 0.37907,-0.1003 5.65828,-4.12974 6.2968,-5.17562 0.18719,-0.30657 1.03105,-3.05736 0.91196,-3.13617 0.14581,-2.06881 -2.17252,-0.29767 -2.11698,-2.1462 -0.75031,-4.54495 -12.94768,-5.98811 -12.671931,-12.84826 -0.723291,0.86871 -1.107334,4.07294 -2.63525,5.06115 -3.79648,1.99719 -3.117189,4.09251 -3.20257,6.23003 -0.08541,2.13752 -1.176496,1.14186 -1.184936,2.75613 -0.357531,-0.66341 -1.539002,-3.89588 -2.338837,-3.239 -1.089951,1.71145 0.467492,10.26225 2.540264,9.20441 0,0 1.883093,-0.54859 1.758421,-0.45061 -0.154675,0.12164 -0.669766,6.03783 -1.802421,7.0382 -1.132655,1.00039 -7.441062,4.63936 -6.933962,4.19412 0.615209,-0.54017 5.57276,-3.05414 3.644609,-15.41591 -0.166423,-1.06708 0.686515,-4.44073 0.67437,-5.91442 -0.01138,-1.39464 0.881936,-4.30292 1.297252,-5.36852 1.002559,-2.57229 1.876558,-5.54092 3.827939,-6.88138 2.087007,-1.43365 4.710086,-2.14992 4.811712,-1.11832 0.327317,-1.5473 0.968084,-1.52787 4.38203,-1.5786 5.50661,-0.0818 10.83958,4.20984 11.93242,13.14466 1.29873,10.61811 -1.91154,15.94586 2.47652,21.93239 -1.15289,0.19397 -4.08495,-2.17425 -4.08418,-1.95174 0.27654,1.70717 0.89072,3.4614 0.82359,5.12067 -0.63455,12.55887 -0.51075,26.64824 -3.54499,34.36401 0,0 -14.610691,3.14861 -14.437125,3.45039 0.318321,0.5534 13.465145,-6.46757 13.453375,-7.40848 0.35565,-0.39371 0.36359,-0.78306 -0.0145,-1.16758 -1.97186,0.21811 -3.91076,0.25999 -5.69003,-0.55161 -1.153817,-0.53052 -0.84227,-1.00153 -0.642192,-1.54899 6.362752,-2.91076 8.340722,-12.31543 9.919312,-22.31167 -0.0433,-1.07665 -0.83688,-0.51612 -1.24934,-0.29577 -9.25015,11.03321 -9.127331,7.29037 -17.300654,-1.41839 -0.686461,-1.55444 -1.664017,-2.26039 -3.058107,-1.7523 -2.528438,0.5171 -4.53263,1.06038 -4.727734,1.69403 -0.845026,0.94223 -0.899874,1.79545 -0.279215,2.57257 1.241717,1.30859 1.856423,1.22278 2.723648,2.17247 0.841401,0.75606 -3.522636,3.42925 -3.201273,6.09841 1.534768,8.55063 4.390443,22.11037 9.793605,24.2621 -1.247246,-13.9387 -7.260352,-30.61132 -1.511803,-43.45192 m -90.924984,83.27363 c 2.969339,2.20678 41.922831,0.20855 44.985674,-6.31395 -1.532044,-0.66021 8.4757681,-2.13635 6.1096261,3.56127 -1.144852,2.75668 13.027898,-16.86136 11.304825,-18.89489 1.38983,-2.71328 -6.88906201,-2.60482 -6.61029701,-3.78704 0.278792,-1.18222 5.00311201,-4.18594 5.68825101,-5.17059 2.134605,-3.06787 -4.79250401,-4.52617 -4.99935501,-5.30375 2.24295201,0.0699 12.98955991,-1.16188 12.73870791,-0.59337 -3.22199,7.30085 0.244343,15.98769 4.356392,23.28146 -0.300408,3.90967 -0.03149,6.59378 -0.162693,10.77421 -2.35495,0.67043 -3.259111,1.08362 -5.904283,1.6894 -2.6921879,0.44775 -4.0645019,1.44743 -11.60158191,-1.65154 5.71460301,-1.69647 4.95003701,-6.7595 6.79084901,-13.31002 2.766615,1.62768 7.2545839,2.63828 10.8777089,2.49795 -4.674923,-1.31196 -6.303249,-13.82835 -8.1824519,-25.20103 -2.043271,0.57773 -10.54793201,1.55413 -11.85717,0.8522 -2.152729,-1.15043 -3.493478,-3.26311 -0.750913,-4.91676 0.758904,-0.45758 -0.05149,-1.51221 -0.767477,-1.4387 -2.453349,0.25187 -10.5661361,-5.01242 -0.692018,-6.07069 0.0079,-8e-4 -6.1632571,-2.45161 2.047346,-0.88991 3.654584,0.69512 10.503164,0.19596 11.430079,-0.0294 0.590233,-0.14347 -7.534354,-0.0333 -9.03456801,-0.52213 -1.50024099,-0.48879 -4.45359899,-1.79436 -5.37437599,-2.44289 -1.06045,-0.74694 -5.2029511,-0.21511 -5.4752081,-0.88788 -0.594545,-1.46936 6.1353701,-1.39463 6.0045341,-1.7447 -3.051757,-2.9503 -7.3571371,1.6518 -6.8033901,-0.73003 1.199568,-2.45367 4.9669431,-2.41805 7.4232031,-2.18977 -3.127428,-2.26277 -6.3040161,-0.3524 -6.5716421,-0.61096 -0.287046,-0.35588 -0.444076,-0.24491 -0.07332,-1.27986 0.415423,-1.15965 2.4809191,-2.21655 3.6279671,-1.96769 0.842751,0.18284 1.983766,0.5016 2.663084,0.79493 0.551154,0.23798 2.023983,0.65389 1.793267,-0.35422 -0.670164,-2.28256 -5.198798,-2.05081 -5.752254,-2.44783 -0.553058,-0.49014 -0.667226,-0.479 -0.594942,-1.19128 0.09401,-0.92618 3.881411,-0.88075 5.298493,-0.40413 1.417082,0.47663 11.714877,10.30427 11.667067,10.00844 -1.043993,-8.37209 -4.72702,-13.24599 -3.681122,-27.7484 1.871054,-1.50737 0.304615,-0.58398 2.867369,-1.88789 -1.026715,-1.94987 -2.020993,-2.1861 -3.008259,-3.72153 2.370428,-4.37322 2.694516,-3.9667 5.28775,-7.64779 -4.324006,1.51691 -11.441112,4.67118 -12.384352,6.77528 -0.943239,2.1041 2.80024499,17.33438 3.98922899,19.78761 1.01883101,2.56155 -5.95106099,-20.01492 -5.64469999,-18.15641 -4.296833,0.28603 -4.663493,12.37095 -6.1058431,17.35863 -1.442376,4.98769 -0.508979,5.29878 -1.693121,13.10555 -1.184169,7.80676 0.0029,13.3356 2.7390991,19.18781 0.682069,1.4582 1.228143,2.5235 3.232335,3.58837 5.266478,-0.14563 6.59719998926,-0.13234 6.74750999,1.05691 0.03045,0.24091 -3.32149999,0.98741 -3.74480699,2.76789 -1.798002,7.56297 -2.617999,9.54948 -3.482207,13.52142 -1.130962,3.97156 -2.420991,9.2011 -3.7323451,12.58372 M 26.415683,109.44584 c -0.487045,1.49502 0.478711,4.45186 -0.690086,5.91221 -0.899901,0.95884 -0.878179,1.20754 -2.727748,1.99281 -1.437085,0.0124 -2.145745,-0.48798 -2.958836,0.35099 -0.813038,0.83897 -0.552344,1.76852 0.186796,1.97528 0.739167,0.20676 2.040387,0.53136 2.725579,-0.62089 0.685165,-1.15224 2.542143,-2.40872 4.345411,-3.40931 1.971886,-1.25952 1.178322,-2.04749 1.151757,-3.6585 0.325702,-0.89565 0.898287,-1.08084 1.742943,-1.21832 0.634233,-0.32836 0.890111,-1.30217 0.898102,-2.69862 -0.118401,-1.41472 0.06689,-1.40858 -0.383858,-2.9498 -0.357372,-0.97068 -1.160965,-1.53063 -2.00234,-1.63366 -1.237324,-0.017 -1.083786,4.75697 0.02683,5.7938 1.007955,0.75314 0.547395,-10.719179 -0.34306,-13.273662 -2.343071,-4.305507 -4.332499,-6.719165 -10.053743,-7.76028 -0.203147,0.879375 -0.831506,1.609871 -0.365707,1.585984 5.587179,-0.286512 9.936242,4.83402 9.832049,13.218828 -2.001388,0.25325 -0.246592,5.24958 -0.192908,7.28338 0.0071,0.26963 -1.337442,-3.82086 -1.2065,-6.44109 0.0095,-0.18568 0.06842,-0.36408 0.01032,-0.50491 -1.104027,-2.67879 -2.121033,-1.72104 -2.305421,-6.742137 -0.06731,-1.832572 -2.729547,-2.748674 -4.251272,-2.606489 -2.230411,0.409728 -8.347763,2.815341 -11.7256979,1.210079 -1.527784,-0.228171 0.660664,3.749366 -0.228203,5.595807 0.172058,1.69043 -1.168506,4.60974 -0.986261,3.15273 -0.778907,-0.62016 -1.3911,-0.41881 -1.829144,-0.25843 -0.645849,-10.592951 3.166003,-11.982239 3.946312,-12.388184 2.4738809,-1.287004 4.8631739,-2.034235 8.1700159,-1.620131 0.273685,0.03427 0.572056,-0.886002 0.724773,-1.464148 -2.523437,-0.191119 -8.0774909,0.287036 -10.8205589,2.777291 -2.743094,2.490256 -3.658526,5.802797 -3.195108,13.002202 3.24485,2.87117 3.281283,-1.09746 -0.04247,0.72712 -1.212558,1.22697 -0.447092,5.87741 0.295884,6.81334 0.319114,0.3123 1.665076,3.68092 3.251756,0.74218 0.07424,-0.13749 -0.983483,-4.98161 -0.908897,-5.1483 0.08535,-0.19082 1.114901,4.65127 1.200388,4.4194 -0.331285,-0.72937 1.520984,5.36414 2.273538,5.86765 0.7525279,0.50352 1.1602509,1.1528 3.3484609,2.32727 3.023076,1.62255 6.312456,1.86361 6.553412,1.5581 2.629508,-1.0442 3.856937,-2.00862 6.398392,-4.73626 0.134594,1.54797 0.257678,3.84181 -0.587851,5.50096 -2.099257,3.06014 -3.67919,3.9362 -6.533092,5.68409 3.603175,2.88209 3.631089,3.96273 1.772576,6.38631 -0.128773,5.49946 2.871258,5.88668 2.586011,8.38354 1.768343,-2.37851 3.483928,-0.49361 4.772237,-2.42967 0.992134,-5.20468 -1.808745,-2.51594 -0.22106,-7.48552 1.690556,-1.79466 -1.216316,-16.75409 -0.595153,-15.69993 0,0 -5.493491,17.44142 -6.979576,17.46002 -1.486112,0.0186 -2.740184,0.13332 -2.740184,0.13332 -0.478473,-1.12789 -0.999252,-2.23395 -2.085552,-3.04835 0,0 -2.14495,3.22912 -3.529912,2.53082 -1.384961,-0.69831 -2.6906269,-10.15723 -1.37406,-5.25531 0.758269,2.82312 1.956964,4.69199 2.300949,4.57759 0.281278,-0.0936 6.64964,-5.82628 5.257614,-6.02835 -2.897875,-0.42068 -8.4927539,-6.60578 -8.018198,-8.57251 0.164942,-0.68357 -0.7099829,5.1367 -0.5214399,6.57367 l -0.488315,5.96124 c -0.340943,2.07499 -0.17235,1.69808 -0.254265,3.89359 -0.310409,8.31918 0.48932,13.25897 0.235241,16.85737 -0.01614,0.22965 0.155998,7.0573 0.130651,7.27655 M 175.07376,117.63741 c 0.85114,1.91743 1.24921,8.25612 0.61368,9.18546 -1.83018,14.18486 -0.85739,19.58748 -0.71303,34.54855 -0.29797,0.50203 -1.65412,1.33306 -1.48132,2.54818 0.45471,-1.02859 1.26651,-2.60083 2.86411,-3.00261 2.49325,-0.62701 5.06704,-1.31262 9.75821,-0.68809 2.32209,0.30914 5.86298,2.91876 7.68569,5.74874 1.50421,-0.26855 -1.83369,-3.9688 -5.3186,-6.16643 -0.56843,-0.30689 6.36514,0.44537 6.54013,0.53424 0.97819,0.4967 -3.69919,-2.47014 -4.99364,-2.02654 -0.23884,0.0818 0.6735,0.4751 2.97445,-2.19648 0.30046,-0.34886 0.81716,-2.89719 -1.17973,-1.45488 -1.0895,0.7869 -3.27554,3.54622 -4.10244,3.23932 -0.30996,-0.11504 -2.88015,1.06293 7.17127,-5.34597 0.92612,-0.59051 -0.50785,-1.76802 -1.43698,-1.87758 -0.92118,-0.10861 -5.89471,4.20666 -6.75336,3.41427 -0.41516,-0.38314 7.05691,-2.99115 6.82781,-3.61843 -1.43618,-3.93239 -7.30253,1.4888 -7.79547,1.25971 -0.39963,-0.18573 4.15883,-2.12553 4.18055,-2.597 0.10102,-2.19361 -3.94409,-1.00275 -5.42494,0.86867 -2.52008,3.18472 -9.90711,11.84538 -9.51574,11.36088 -2.31322,-0.6916 7.65728,-28.96465 5.9631,-30.34489 -1.71595,-1.398 -3.25332,-1.63197 -4.79779,-2.27917 1.71196,-0.41919 4.03399,-0.15368 5.90126,-0.28682 -1.26584,-3.06915 -2.43734,-6.72183 -5.14604,-10.46058 4.04858,3.31237 17.98066,7.01328 10.99034,8.57557 1.84468,0.54452 -4.81232,13.22618 -6.16719,14.03686 -5.71186,6.24472 3.40703,0.54454 3.36888,1.29016 3.29549,-2.08574 -6.49205,19.16441 -3.88577,16.5899 -1.62404,0.01 1.79067,-3.13935 1.87777,-4.86636 -0.10591,-0.77219 2.39916,-5.38634 1.31294,-3.2644 0.18338,-1.83944 3.69766,-5.53205 3.81984,-7.06472 0.12221,-1.53266 0.7216,-4.9716 1.19536,-7.57272 0.66384,-1.64072 1.59684,-7.31237 2.15964,-9.93012 0.13062,-0.51734 2.71195,3.26929 4.47244,3.86469 1.39729,-0.14454 3.04838,13.45761 4.34935,15.71689 1.10974,15.28653 -2.99768,19.61489 -1.90517,35.24434 0.39017,2.73782 -0.85756,4.2559 -2.98235,5.12084 -39.33438,20.97398 -20.51227,0.86181 -22.87508,-12.08544 -1.09603,-2.65114 0.36328,-7.93189 0.76613,-8.13738 4.254,1.05238 0.35499,7.65531 3.53602,8.97982 -0.12324,-0.51647 13.83271,-0.0782 15.95335,-0.65608 -0.78621,-2.16124 -8.11279,-0.78852 -10.1029,-2.40978 5.4406,-0.59083 13.85157,4.51446 15.86197,-1.82892 0.66695,0.86389 0.0694,2.15551 -0.58559,4.0548 -3.45075,5.59233 -15.121,1.71882 -22.74589,2.38288 -0.53623,0.21292 -0.22296,0.59274 -0.0524,0.94454 1.69648,0.88899 0.34142,10.08324 2.31521,10.55314 0.52229,9.12933 2.46234,17.02163 4.97464,25.31443 0.49967,1.02674 0.4186,1.55909 -0.55097,1.3351 -0.63034,-0.22299 -1.26105,-0.55176 -1.89629,-2.21562 -1.61272,-4.70887 -3.19881,-9.83754 -4.61523,-17.64957 -0.37291,-1.1853 -1.997,-1.11087 -3.11613,-1.54482 -0.28261,3.19778 0.44783,8.00421 2.27152,14.54667 0.10814,0.32069 -2.77355,6.1036 -3.32854,7.25879 -3.41198,11.77968 -1.48772,-19.58771 -0.20939,-21.91793 3.05549,-0.59337 4.50536,-1.5373 9.37149,-1.47055 1.10514,-0.14044 -0.87392,4.30837 -0.48207,4.98874 -0.9163,3.71326 1.79197,3.9858 2.6425,9.55832 0.22209,2.57834 0.74377,4.66605 1.79766,5.88232 5.22584,5.00366 10.15645,3.74087 15.40255,2.72666 -1.40703,-8.90312 -5.57775,-17.95774 -6.21632,-26.31206 l -1.68249,-10.14684 c -3.69099,4.6703 -2.37231,9.27791 -0.26675,13.87568 1.20729,3.68241 4.4749,4.89936 2.57601,12.29874 -1.53935,-2.24764 -1.06852,10.63488 0.82304,12.98126 1.44251,1.78933 52.64592,1.52322 52.63237,0.44239 M 174.95523,108.92139 c -0.48702,1.49502 -0.82582,1.38543 -1.99459,2.84578 -0.8999,0.95884 -1.56755,1.10607 -3.41712,1.89134 -1.43708,0.0124 -2.1145,-0.82687 -3.36714,0.22654 -0.35359,0.60402 -0.22344,1.94677 0.13414,2.16861 1.07112,-0.01 1.89003,0.24028 2.91849,-0.33608 0.72218,-1.47777 2.00406,-2.05134 3.82635,-2.87237 1.97194,-1.25952 2.71365,-2.53461 2.68708,-4.14562 0.32571,-0.89565 0.89829,-1.08085 1.74295,-1.21833 0.63423,-0.32836 0.89011,-1.30216 0.8981,-2.69862 -0.1184,-1.41471 0.0669,-1.40857 -0.38386,-2.9498 -0.35742,-0.97068 -1.16096,-1.53062 -2.00237,-1.63366 -1.23732,-0.017 -1.08376,4.75697 0.0268,5.79381 1.00799,0.75314 0.54743,-10.719184 -0.34303,-13.273667 -2.3431,-4.305506 -4.9947,-4.646538 -7.60378,-5.533925 3.77404,2.055792 7.7865,2.973494 7.67207,12.184907 -2.00141,0.253253 -0.84418,3.688165 -1.23396,5.479785 -0.2576,-0.08 -1.49299,-3.08064 -1.24153,-4.84422 0.3684,-4.217582 -0.42969,-2.392388 -1.66759,-7.695291 -0.25453,-0.557636 -1.18563,-0.34584 -2.70738,-0.203655 -4.17655,0.465939 -6.45464,0.505949 -10.91176,0.264062 -4.79653,-0.06905 -0.72046,3.517863 -2.79313,5.18751 -0.48638,-2.540097 -0.53837,-2.224217 -0.35613,-3.68123 -0.25519,-10.516496 19.26889,-5.151773 10.46113,-7.114703 -2.86179,-0.637797 -4.96301,-0.05607 -6.82639,0.6552 -1.8634,0.711267 -3.77422,4.605896 -3.88776,4.868104 -0.35565,0.82133 -1.15779,4.507687 -1.15464,4.506832 0.0516,-2.169662 -0.13353,-1.627383 -0.005,-3.435214 0.17415,-1.242172 0.99026,-3.409781 2.98728,-5.239716 -2.56072,3.205448 -5.40644,4.029562 -4.06757,11.5615 -0.69064,0.535871 -0.94089,0.738811 -0.81142,1.578541 0.28109,1.32278 1.11466,4.02935 1.70227,5.96701 -0.28067,-2.11175 -0.80894,-5.36153 -0.78068,-6.05325 0.45514,-0.27797 0.93917,-0.32592 1.43833,-0.25289 0.2128,1.4798 0.79745,2.67461 1.24084,3.97768 -0.28419,-1.53091 -0.77012,-2.90272 -0.78922,-4.64267 -0.8567,-0.422262 -2.4552,1.12749 -3.14301,1.38845 -1.18095,0.64268 0.167,5.27363 0.91,6.20956 0.3742,0.0796 1.89201,0.0482 3.21572,0.23757 -0.33123,-0.72937 1.19595,5.78108 1.94847,6.28459 0.75256,0.50351 1.15787,0.96016 3.34608,2.13463 3.02305,1.62255 6.31246,1.8636 6.55339,1.5581 2.62951,-1.0442 5.08405,-3.30699 7.28043,-5.79829 0.1346,1.54797 -0.45701,2.72192 0.61714,5.36911 -1.90563,2.97986 -4.40306,5.19087 -7.25699,6.93876 3.60323,2.88209 2.26796,3.90194 0.40947,6.32552 -0.1288,5.49946 1.51074,11.85559 2.31465,17.80691 -1.29465,-5.20273 -2.03078,-5.99115 -6.84511,-7.30036 -1.03195,-4.18847 1.17091,-10.75552 2.75862,-15.7251 1.69056,-1.79466 1.90879,-0.1684 2.52998,0.88576 0,0 0.2904,4.54263 -1.19568,4.56122 -1.48609,0.0186 -2.74021,0.13332 -2.74021,0.13332 -0.47845,-1.12788 -0.99923,-2.23394 -2.08553,-3.04834 0,0 -1.29066,3.06273 -2.67565,2.36442 -1.38496,-0.6983 -3.11531,-6.76539 -1.74717,-3.96609 1.28357,2.6263 1.50984,3.17949 1.85382,3.06508 0.28128,-0.0935 6.61559,-5.43659 5.22359,-5.63866 -2.89787,-0.42068 -7.88947,-5.05631 -7.78999,-5.88951 0.0834,-0.69823 -3.02911,3.33623 -2.93497,3.45091 l 2.28894,-2.2868 c -0.34092,2.07499 -1.04037,4.72143 -0.25713,6.77412 1.58777,4.16115 0.71568,7.41445 -0.0911,12.00809 M 99.655898,125.77634 c 2.437002,6.1793 -0.10811,10.43432 -1.55245,15.11451 -2.24284,-1.34391 -4.35842,-2.97183 -6.42164,-4.71666 3.2254,-3.04914 6.09708,-6.25675 7.72406,-10.022 -2.64142,3.58436 -6.12304,7.22657 -9.56945,10.86635 0.20047,13.59295 -2.92862,29.23583 0.28508,38.50959 m -0.0398,15.62783 c -1.6905,0.41079 -2.72542,0.12002 -4.61375,0.20735 -0.25424,-0.33743 -0.45291,-0.75505 -0.33311,-1.63231 0.48347,-4.35936 0.58962,-7.65345 0.81542,-11.39462 -0.31504,-2.0564 -1.12131,-2.0577 -1.7608,-2.33403 -5.78485,-1.47724 -11.42283,-3.77909 -16.9962,-6.44377 -3.17185,-1.64916 -6.11804,-1.30151 -9.79943,0.31616 -0.97216,0.6315 -1.23719,2.62415 -0.16118,2.4664 1.07601,-0.15776 10.93742,1.52753 10.65128,1.63905 -3.00501,0.12701 -6.56117,0.0115 -9.01732,0.45543 -2.45615,0.44392 -3.56788,3.96101 -1.5702,3.63933 1.99771,-0.32169 10.03009,-0.57223 9.84488,-0.45724 -2.73814,0.37652 -5.08672,0.22462 -7.40314,1.06155 -2.31643,0.83691 -4.1124,2.19366 -2.56339,4.03877 3.67405,-1.13053 7.41532,-1.28504 11.12316,-1.92464 -2.5785,0.7477 -5.31625,1.46881 -7.73554,2.24311 -2.4193,0.7743 -1.77295,2.37609 0.78843,2.23547 6.2434,-1.01142 7.75658,-0.0686 13.57027,1.96222 4.27487,0.60854 8.39022,0.47122 12.56773,0.62429 -5.00197,0.23907 -9.96087,0.55132 -15.20182,0.38472 -6.18815,-0.36999 -7.6595,1.87094 -11.44709,2.82974 1.57181,-1.01776 2.83726,-1.7311 4.16909,-3.15619 0.22431,-1.63305 -3.87207,-0.9796 -4.71593,-0.77875 -0.84384,0.20085 -1.55705,0.58344 -1.56803,1.26665 l -0.10835,4.03524 M 32.47823,212.7772 c 0.920221,0.2083 18.970868,0.11394 18.992218,-0.60953 -3.41474,-1.47155 -6.87012,-2.83791 -9.827184,-5.49358 1.389857,-2.71329 6.696204,-7.94942 6.975004,-9.13164 0.27876,-1.18222 -11.354863,-0.45812 -10.669725,-1.44276 2.134606,-3.06788 18.087735,-6.13366 17.880915,-6.91123 0.97975,-2.20736 0.37428,-4.26392 0.44534,-6.38484 1.51609,7.83486 3.9057,15.48765 8.01775,22.78142 -0.30038,3.90967 -0.60645,7.81026 -0.73768,11.99069 -2.35495,0.67043 -4.80433,0.34788 -7.23898,0.18033 -3.48617,-1.41396 -5.53013,-10.0945 -5.3713,-22.86827 l 7.93723,-0.8833 2.54188,5.0244 c 12.83719,2.24698 22.01304,2.74512 34.96646,2.55468 1.76284,-1.4847 1.98927,-3.03519 1.96821,-4.94988 -3.01688,1.00895 -4.81613,0.92706 -7.43283,0.41451 -3.53555,-2.51769 2.18977,-0.85077 -3.61514,-21.51195 3.64511,-0.0368 7.84487,0.0724 10.04086,-0.34554 -0.51565,-9.81907 -1.97443,-16.11534 -4.30022,-29.21669 -0.0271,-1.97981 0.66106,-4.15684 0.0548,-5.95498 -0.82423,-0.37528 -1.34345,-1.32712 -1.88534,-2.23613 0.19079,-0.81844 0.34218,-1.07571 0.53525,-1.22144 1.04063,0.40677 2.0978,1.28614 2.99503,2.05503 -0.54631,2.20882 -0.90569,4.46335 -2.40882,5.68663 0,0 -2.59217,0.42127 -2.95809,0.0101 -0.55349,-0.62196 -2.83906,-6.55226 -3.1355,-6.37266 -0.41892,0.25382 -4.23532,6.0495 -3.71639,5.9289 0.72358,-0.16817 6.44821,-6.88036 6.21345,-6.8169 -5.3398,-2.08014 -7.16174,-6.05196 -9.15144,-10.1434 -1.04518,4.22428 -0.38333,7.0914 -0.12075,10.276 2.80889,13.24829 4.88963,25.65291 6.82363,37.88749 -1.05704,0.15432 -2.10672,0.24016 -3.11404,-0.0673 -4.35417,-8.84552 -8.4413,-19.42061 -12.36517,-31.05277 1.88965,-1.1967 3.8953,-2.10623 5.65308,-3.62927 -1.94135,-0.63171 -4.31649,-0.82666 -5.73894,-1.98084 3.2376,-3.52751 5.62467,-7.30703 8.16292,-11.04175 -4.71648,4.18565 -13.82154,9.22395 -15.20102,10.44375 -1.37951,1.2198 -1.26603,4.724 -0.63225,6.79883 1.01883,2.56154 2.6851,5.86014 3.14968,7.16618 0.32298,1.08041 0.0695,1.60618 -0.13137,1.60687 -2.60162,-0.1374 -4.0618,-1.01374 -7.44712,-0.44093 -1.53522,0.68528 -0.6491,0.7554 1.12448,1.85974 1.77358,1.10434 6.78535,3.02509 9.01438,4.8744 0,0 4.8224,11.30261 4.82029,10.67986 0.31916,-0.23395 -6.183,-14.20854 -8.7216,-24.70317 -1.04507,-4.32036 -2.66898,-7.41502 -2.98555,-7.09577 -2.83618,1.46275 -4.42241,4.49927 -5.73376,7.88189 -1.62468,3.49364 -0.50747,18.63272 -0.76118,27.94909 l 7.50403,-13.80417 m 48.931092,12.98939 c -1.41986,0.0935 -4.35351,0.27673 -3.16399,-1.34484 0.0621,-0.38426 4.49627,-8.84329 5.96775,-10.28173 -0.23426,-0.38078 -0.17494,-2.43227 -0.049,-2.39496 0.0625,0.9866 0.4223,1.64524 1.25161,1.78619 1.47044,-0.87497 2.14799,-1.87619 3.71218,-2.41599 1.56416,-0.5398 3.20193,-0.16703 2.04327,0.91734 -3.10301,2.71556 -6.96306,5.64352 -7.83608,7.73336 3.07996,-2.3199 4.06053,-4.28325 9.25467,-6.67074 0.77999,-0.26002 3.17175,-0.43059 2.72944,1.54802 -2.97198,2.12741 -5.04118,3.50044 -8.89079,5.9237 -1.40761,1.03188 -0.25773,1.3821 0.415,0.74399 0.0425,-0.0403 7.42489,-5.75032 7.99782,-5.94346 0.20048,0.56213 0.7841,0.63458 0.10816,2.31691 -2.37534,1.82636 -5.93685,3.57935 -6.69895,5.33436 -0.39794,0.78622 -0.0332,0.77808 0.62433,0.46495 1.52273,-1.46252 2.79477,-2.25601 4.19116,-3.67299 0.59481,-0.6036 1.66333,-0.0848 0.89937,1.223 -0.56433,0.96606 -2.76357,1.56631 -1.60708,2.41868 2.32675,1.06186 5.27976,2.19255 6.02835,4.33883 1.27209,0.90239 2.41599,-0.73813 1.31053,-2.06943 -0.5883,-0.70849 -2.41077,-1.19047 -3.65818,-1.5424 -4.70955,-0.84416 -15.15721,1.47123 -14.62955,1.58722 z M 76.660108,112.20501 c -0.58417,0.81094 -1.06502,1.71659 -0.98015,3.1409 0.97584,0.52484 0.52343,1.12972 0.6113,1.70432 -0.65604,0.55793 -1.75202,0.24334 -2.64102,0.33925 -2.11349,-1.27118 -2.67422,-9.70894 -1.24693,-10.5644 0.83381,-0.34634 1.65809,-0.73474 2.69663,-0.17431 0.023,2.30928 0.61222,4.12996 0.95674,6.16179 -0.5375,-1.72945 -1.24622,-3.31521 -1.50418,-5.2792 -0.60513,-0.0969 -1.19187,-0.0333 -1.74364,0.33563 -0.0341,0.91806 0.60617,5.23118 0.94642,8.03392 -0.71236,-2.57168 -1.72281,-6.16386 -2.06362,-7.91946 -0.25244,-1.21651 -0.0954,-1.89715 0.9837,-2.09506 -1.62306,-9.99644 1.61017,-13.51537 7.64833,-17.034923 -1.67449,1.104394 -3.12578,2.408319 -4.27998,3.977801 -0.81224,0.76916 -1.47441,1.983423 -2.02464,3.529769 -0.41444,3.43644 -0.12801,5.763123 -0.19077,8.642713 -0.003,0.001 1.0214,-8.822968 1.45249,-9.913043 0.13761,-0.348007 3.31972,-4.872845 4.82198,-5.475878 0.83219,-0.685287 3.22672,-1.965555 5.00493,-2.208808 1.55488,-0.02825 3.16307,-0.0036 5.2309,0.477605 2.82455,0.768808 4.6225,2.881662 6.44048,4.968295 0,0 -6.72407,0.364699 -6.64099,0.812115 0.11322,0.60991 6.55289,0.748334 6.55289,0.748334 0.36914,0.04216 0.4894,0.966447 -0.4368,1.047343 -10.1086,0.882917 -16.32313,-2.10027 -17.70243,-1.701213 -1.3793,0.399061 -2.63416,2.495677 -2.85509,4.429435 -0.22093,1.933755 -0.31374,2.721695 0.27593,6.092935 2.51249,-2.21597 0.10549,-7.150367 3.43956,-8.310141 5.10926,2.474481 10.20956,2.31952 15.30435,0.54007 1.84467,-0.188709 2.31515,0.523687 2.62368,1.263785 -0.96705,6.788186 -0.29284,7.987186 0.55261,10.119726 0.31438,0.72656 0.74745,1.3965 1.05971,1.50265 0.4725,-2.37786 -0.30284,-3.98465 2.123312,-4.32078 0.13875,-12.225449 -4.564832,-14.139252 -9.139822,-16.867717 3.1628,1.177745 6.37715,1.630365 9.217532,7.344672 1.07942,3.390323 2.08486,12.766845 1.53278,19.358125 -0.56121,0.25989 -2.814692,0.42363 -2.38297,-1.19979 0,0 -0.17468,-6.68441 0.062,-7.14665 0.26805,-0.52363 0.76568,-0.94508 1.37292,-0.94044 1.01997,0.13674 1.92268,0.36927 1.98628,1.36937 0.54642,2.04553 0.37113,3.79026 0.5147,5.66788 -0.01,1.85338 -0.31991,3.14583 -1.08871,3.58163 -1.02391,0.18247 -2.18776,0.14115 -2.5826,1.32987 -0.639422,2.02312 -1.806422,3.87622 -2.787602,5.78921 -1.53784,1.03595 -2.96442,2.30263 -4.72408,2.87841 -0.80338,0.3653 -0.60621,0.83629 -0.91054,1.45612 -1.24671,0.76495 -2.5737,0.3635 -3.87215,0.37664 -0.43349,-0.29443 -0.45315,-1.56663 -0.0246,-2.36829 1.36662,-1.36054 1.97067,-1.08723 3.11753,-0.97591 0.56877,0.60641 1.10588,0.75235 1.63216,0.74101 2.24208,-1.04222 3.5759,-2.26618 4.66677,-3.53876 1.41685,-1.9382 2.14181,-3.91491 2.732202,-5.89911 l -1.341652,10.13284 -8.68167,4.54323 m 41.926512,59.52614 c -2.55003,1.60746 -9.85401,2.69901 -10.00982,2.45603 0.31753,4.4281 0.37219,8.75207 2.6897,13.97229 l 4.44212,11.32415 c -5.13588,0.035 -10.29293,-0.16401 -15.64122,-2.47886 -1.04426,-1.20519 -1.5612,-3.27386 -1.78125,-5.82871 0.12443,-5.12149 -0.0945,-9.0841 -0.26512,-13.20989 -0.3883,-0.67417 -0.78057,-1.34376 -1.87563,-1.20461 -4.82182,-0.0661 -6.87549,0.87691 -9.903142,1.46486 -1.13726,4.41461 -2.47832,5.55467 -3.83101,6.50835 -4.32498,-0.73317 -7.79486,-0.35041 -11.73951,-0.32925 -0.51035,0.3357 -0.83076,0.14342 -1.7168,1.5233 -3.74708,5.30111 -4.71797,5.43702 -7.03821,6.65315 -1.12813,0.77338 -2.16513,-0.0964 -1.3513,-1.38097 2.0189,-2.10083 2.98868,-4.19805 4.23203,-6.29622 0.25107,-0.78125 -0.42296,-1.3752 -1.16406,-1.57508 -3.3487,-0.90311 -6.21773,-0.3427 -9.50116,-0.33133 -1.15752,0.309 -1.62726,0.52971 -1.66621,1.50801 -1.20092,5.12204 -1.01746,9.31436 -1.38398,13.87605 6.29414,0.0755 13.50317,0.30922 20.47875,0.59085 1.78808,-5.17305 2.87088,-9.32826 3.20992,-13.87443 1.27691,-0.27881 2.0148,-0.0149 2.90822,0.0924 0.66315,5.02304 1.48868,8.36483 2.35043,11.33126 -0.0379,0.0381 7.314622,4.42852 7.466942,3.83331 0.0997,-0.13616 2.97582,-7.29374 2.86869,-7.61152 -1.80708,-6.48284 -2.53087,-11.24549 -2.25084,-14.41414 1.10895,0.43002 2.71825,0.35625 3.08772,1.53076 1.40353,7.74084 2.97518,12.8228 4.57321,17.48875 0.62945,1.64868 1.25439,1.97448 1.87899,2.19542 0.96073,0.22193 1.04106,-0.30557 0.54595,-1.32294 -2.48942,-8.21724 -4.41177,-16.03761 -4.9293,-25.08376 -1.95582,-0.46562 -3.99439,-0.80619 -5.67539,-1.68709 -0.16907,-0.34859 -0.47948,-0.72495 0.0519,-0.93594 6.75399,0.52747 17.85972,4.30246 28.82416,-5.71265 0.64899,-1.88197 0.3175,-2.99597 -0.34338,-3.85198 -1.76877,-1.86337 -2.67861,-3.81289 -5.63345,-5.54038 -5.14239,-1.33867 -11.1038,-0.80465 -17.1725,0.44374 1.97197,1.6065 4.63103,2.4638 5.41007,4.60537 0.66159,1.60751 -0.42124,1.28995 -0.98557,1.54461 -3.15206,-1.31243 -5.70587,-2.7766 -9.92111,-3.81939 -0.39917,0.2036 -1.839622,-0.54077 -0.65677,1.10313 2.48232,2.67041 5.32659,5.33959 6.85284,8.01326 0.27765,0.91 -0.0903,1.03088 -0.76801,0.77324 -3.49811,-2.20123 -6.998492,-5.06719 -10.500152,-8.3044 -1.6002,-1.21615 -4.83695,-2.95642 -7.36377,-1.94321 0,0 3.15626,15.30331 3.80216,18.99256 1.04267,1.47524 36.117722,-5.14789 36.640092,-5.84934 2.10542,-0.85707 3.34179,-2.3613 2.95515,-5.07419 -1.02494,-15.48251 -0.99232,-30.73508 -6.19209,-46.20338 -1.28913,-2.2387 -2.61075,-3.66587 -3.99529,-3.52265 -1.74445,-0.58997 -1.63047,-0.0663 -1.7599,0.44635 -0.55767,2.59389 -1.07929,5.53599 -1.73707,7.16176 -0.74764,2.14452 -1.16787,4.00354 -1.28897,5.52224 -0.12108,1.5187 0.0732,2.56794 -0.10848,4.39062 0.0148,0.52767 0.42894,1.32258 2.04975,0.73809 1.2962,-1.14249 2.83401,-1.41091 4.44326,-1.42072 -2.58252,2.55105 -6.07,4.46033 -9.33546,6.52707 -0.12866,-9.68252 3.04882,-15.18659 4.9884,-22.25515 0.37685,-1.00525 0.46128,-1.93249 -1.10913,-2.41821 -14.35603,-2.07366 -13.96296,-4.3505 -17.97068,-7.64516 2.68403,3.70467 5.91187,6.86183 9.93947,9.21374 -1.17669,1.65082 -2.47537,3.01162 -4.17177,3.42699 1.89571,1.76112 2.88846,3.62568 3.87183,5.49132 -1.96606,3.4265 -6.10438,23.29666 -4.73601,31.72204 -0.70178,-0.58703 -6.635042,0.21757 -6.604212,0.35274 0.92969,-0.51692 2.422632,-1.03575 2.416702,-1.54948 -3.746582,-14.60519 -0.91522,-26.12257 0.96417,-40.18614 0.5098,-1.29391 -0.82997,-7.19117 -1.01476,-7.04231 l -10.776712,3.55955" />
  </g>
</svg>
