<?xml version="1.0" encoding="UTF-8" standalone="no"?>
<!-- Created with Inkscape (http://www.inkscape.org/) -->

<svg xmlns:dc="http://purl.org/dc/elements/1.1/" xmlns:cc="http://creativecommons.org/ns#" xmlns:rdf="http://www.w3.org/1999/02/22-rdf-syntax-ns#" xmlns:svg="http://www.w3.org/2000/svg" xmlns="http://www.w3.org/2000/svg" xmlns:sodipodi="http://sodipodi.sourceforge.net/DTD/sodipodi-0.dtd" xmlns:inkscape="http://www.inkscape.org/namespaces/inkscape" width="165.85254mm" height="78.649307mm" viewBox="0 0 165.85254 78.649307" version="1.1" id="svg929" inkscape:version="1.0.1 (3bc2e813f5, 2020-09-07)" sodipodi:docname="svg-768.svg">
  <defs id="defs923" />
  <sodipodi:namedview id="base" pagecolor="#ffffff" bordercolor="#666666" borderopacity="1.0" inkscape:pageopacity="0.0" inkscape:pageshadow="2" inkscape:zoom="0.35683908" inkscape:cx="335.91851" inkscape:cy="647.10479" inkscape:document-units="mm" inkscape:current-layer="layer1" inkscape:document-rotation="0" showgrid="false" inkscape:window-width="1920" inkscape:window-height="1057" inkscape:window-x="1912" inkscape:window-y="-8" inkscape:window-maximized="1" />
  <metadata id="metadata926">
    <rdf:RDF>
      <cc:Work rdf:about="">
        <dc:format>image/svg+xml</dc:format>
        <dc:type rdf:resource="http://purl.org/dc/dcmitype/StillImage" />
        <dc:title />
      </cc:Work>
    </rdf:RDF>
  </metadata>
  <g inkscape:label="Layer 1" inkscape:groupmode="layer" id="layer1" transform="translate(24.717938,-31.734871)">
    <path id="path1046" style="display:inline;fill:none;stroke:#999;stroke-width:0.52916667;stroke-linecap:butt;stroke-linejoin:miter;stroke-miterlimit:4;stroke-dasharray:none;stroke-opacity:1" d="m 141.13344,108.43131 c -7.89252,0.0346 -13.66163,-0.58088 -23.82057,0.14771 -0.28133,0.0277 -0.80296,1.13396 -0.29012,1.01016 0.80402,-0.19408 1.98025,-1.92281 1.93408,-1.9419 0.14385,-1.23451 -0.161,-1.04024 -0.59449,-1.12403 -6.88608,0.0615 -6.46168,-1.01881 -7.39614,-1.88692 1.79414,-0.66241 2.95156,-1.79146 3.86604,-3.09855 1.07032,-10.437217 0.97414,-16.518225 -0.64569,-21.981633 0.0704,-1.518021 -0.46495,-2.390188 -0.61251,-2.636547 -1.33249,-2.224574 0.57118,-3.525795 1.20542,-2.179703 1.85311,0.900358 1.7436,2.419815 2.01371,4.118403 1.47214,11.102219 0.55888,18.00614 0.90186,26.93881 0.0697,0.85072 -0.7661,1.44925 -2.11389,1.90136 -3.40341,1.13625 -5.45409,0.39237 -8.16163,0.5229 -0.0137,-1.68334 -2.37799,-4.90129 -2.1587,-7.84808 1.93936,-8.457164 5.43851,-15.33082 6.71742,-23.056791 1.61147,-6.971503 -4.47376,-9.625872 -6.77704,-10.630474 -1.64909,-0.719286 -3.15216,-0.119512 -4.09342,2.089145 -1.634697,4.026942 -1.381677,3.568787 -1.612837,5.384215 -0.23117,1.815428 0.734187,1.562439 1.369267,1.589905 l 0.35867,-0.147809 c 2.47597,-1.533621 1.09212,-2.483295 -0.0538,-0.198758 -4.044837,6.848287 -6.018047,11.04714 -9.376377,17.329825 -1.01087,2.699303 -3.61119,3.8955 -5.1417,4.291158 -0.61823,0.174611 -1.10263,0.390548 -1.33631,0.6839 -0.57639,0.699241 -1.15567,0.551812 -1.73352,0.82772 -0.42865,0.02911 -13.007948,3.363664 -12.167869,3.664604 1.787446,0.69255 5.750479,2.31623 5.813639,3.68945 0.0631,1.37321 0.89889,0.93195 1.00187,0.50652 0.10297,-0.42542 2.92312,-4.1968 -5.083308,-4.04923 -3.183732,0.5249 -3.958749,-0.15795 -9.23925,-0.12097 -5.280502,0.037 -10.67697,5.17179 -9.354979,5.12896 9.755425,1.42893 16.851365,0.40277 25.010957,0.28702 7.53832,-0.0753 11.38573,-1.02977 15.70276,-1.98028 3.34655,-0.42374 4.07172,-3.15508 5.601297,-5.18947 3.95426,-5.259268 6.64896,-11.441533 8.86664,-17.636524 0.42799,-1.195541 0.81553,-2.309963 0.83765,-3.716274 1.79583,-3.60372 0.73649,-5.067184 -0.0304,-6.891258 -0.7669,-1.824072 -6.36284,-6.086724 -10.671997,-7.054744 -2.72489,-0.626192 -3.64043,-1.748261 -5.21065,-2.823073 1.19996,10.019567 -5.96757,21.977848 -8.32956,33.373912 -1.24685,1.007991 -2.48206,2.040324 -4.15348,2.159778 0.0845,-0.216458 0.36311,-0.473837 0.22955,-0.684017 -5.72892,-9.015923 -4.77401,-25.875713 -3.49687,-34.713785 0,0 -3.06265,1.822272 -4.258941,4.563901 -0.923713,2.11692 -2.587651,6.997803 -2.314469,6.915986 1.173401,-0.351425 4.76422,0.182909 3.91755,0.702974 0.0727,1.226336 -2.600216,-0.213998 -3.350257,1.737624 -0.647938,1.459058 4.700797,14.346256 7.070167,21.468276 -2.36318,-0.152217 -4.63055,0.0733 -6.892208,0.321361 0.918183,0.377914 2.180563,0.351498 3.500518,0.257452 -2.544129,1.015529 -6.976826,3.983891 -7.294167,2.696831 0.882835,-0.80807 -0.106706,-17.472034 -0.229288,-16.999385 -1.878198,4.761272 -8.670396,14.333526 -14.816614,13.910931 -7.825025,-0.734203 -7.62709,-9.367186 -6.312667,-15.42067 0.696886,-3.209433 4.357555,-13.016495 4.853834,-12.805791 -0.777134,4.801248 7.206642,4.01312 7.356713,2.77232 0.06511,-0.53865 0.221457,-2.238404 0.221457,-2.238404 -4.901698,0.603247 -5.723758,-3.490371 -6.398975,-4.070038 1.81782,-2.950181 1.861503,-8.113004 2.015728,-12.551662 0.166635,-4.795274 -1.694577,-5.884005 -0.96094,-6.502048 1.869281,-0.841568 4.561602,6.177577 3.599339,6.558132 -1.088364,-1.418587 2.74492,-2.135447 4.153588,-2.285926 1.723707,0.08442 1.328155,0.731602 1.098444,1.334741 0,0 -0.933794,1.881185 -0.976656,1.586683 -0.07326,-0.503301 2.056659,-1.33118 2.41935,-0.898962 0.180075,0.03795 0.514217,0.827931 0.142372,1.390407 -3.937424,2.950374 -3.247602,0.344884 -0.595366,0.341447 0.992611,0.06697 2.597362,0.09282 -0.108294,1.82884 -2.705655,1.736016 -2.389954,0.731162 -0.379544,0.122438 2.01041,-0.608721 2.094732,0.05981 2.205804,0.338379 0.27567,0.691324 0.106098,1.140198 -0.370363,1.573892 -2.551801,2.408341 -3.470593,1.528852 -5.360776,3.557619 -0.30869,0.331327 -0.846826,1.089414 -0.947579,2.234129 -0.548164,6.227717 -2.818315,19.469687 -3.054218,19.195571 -0.219471,-0.255037 8.556123,-15.724092 9.09664,-15.315179 0.656934,2.247141 0.551709,4.258948 0.713079,6.353075 -0.400527,-1.479405 -1.065398,-2.415334 -0.738797,-5.631866 0.196771,-0.876564 0.363432,-1.372068 1.701404,-1.804561 8.203912,-2.651869 9.540582,-3.455292 12.045712,-4.425307 -0.17592,-0.723564 -0.16645,-1.236716 -0.10504,-1.69091 0.82389,6.655099 2.36641,8.57191 3.88305,10.796677 0.96965,1.37232 2.45036,0.86763 3.88131,-0.520811 2.00017,-1.940732 7.15605,-9.940242 5.83416,-8.82432 1.01759,3.335068 0.43945,4.389147 0.54036,8.287129 0.0212,0.815051 -0.39806,2.002242 -2.72774,1.559928 -1.55311,-0.187455 -2.39022,0.41062 -3.19461,0.470844 -1.79922,0.134702 -2.36463,1.194202 -2.60596,2.566567 -0.52049,-2.053246 -1.31278,-4.857896 -4.0731,-4.630163 -0.24247,0.02 -0.99701,-1.496084 -0.90006,-2.772045 0.1076,-1.416243 -0.0401,-2.695753 0.25482,-3.761164 1.07635,-3.889052 -1.57451,-6.325213 -1.96837,-7.974285 4.5012,8.62452 7.55983,7.287528 10.71012,6.583366 6.52386,-2.906618 6.74024,-12.981221 7.34407,-12.730184 0.32377,0.134601 2.10209,0.969666 1.42433,3.31516 -0.67776,2.345495 -6.99659,4.693142 -7.50594,4.682506 -1.27865,-0.02671 -0.44437,-2.028555 0.2544,-2.199743 0,0.644147 0.10342,0.966748 1.06976,0.711081 0.3515,-0.093 4.39957,-2.302796 4.99166,-3.272597 0.17356,-0.284274 0.95607,-2.834973 0.84563,-2.908059 0.1352,-1.918325 -2.01451,-0.276008 -1.96299,-1.990087 -0.66972,-4.512213 -9.83891,-7.331976 -9.85647,-10.56584 -0.6707,0.805527 -1.99039,1.767464 -3.40718,2.683785 -3.52033,1.851936 -4.7571,4.612283 -4.83629,6.59433 -0.0792,1.982047 -0.15441,0.90269 -0.16224,2.399559 -0.33152,-0.615161 -0.68361,-1.889281 -1.42526,-1.280199 -0.691858,0.674819 0.84405,7.10194 1.61203,6.8117 0.24251,-0.09165 0.6454,-1.938687 0.5298,-1.847808 -0.14343,0.112782 0.47966,7.028633 -0.5706,7.956259 -1.05026,0.927627 -6.899832,4.301898 -6.429614,3.889037 0.570468,-0.500883 5.167414,-2.831973 3.379523,-14.294599 -0.154332,-0.98946 -0.23585,-4.612135 -0.247121,-5.978634 -0.01058,-1.293217 0.676116,-3.771625 1.061242,-4.759711 0.92964,-2.385174 2.75416,-4.861825 4.56359,-6.10479 1.93521,-1.329372 4.3675,-1.993543 4.46175,-1.036973 0.3035,-1.434756 0.89765,-1.416736 4.06328,-1.463778 5.10609,-0.07587 9.55598,4.490844 9.68682,11.700478 0.17994,9.917547 -0.39481,15.274116 3.674077,20.825204 -1.06904,0.179855 -3.787817,-2.016102 -3.787107,-1.809779 0.25641,1.582996 0.82592,3.209631 0.76367,4.748209 0.61888,2.876476 -3.19289,0.646589 -4.13139,3.403828 1.94895,1.37823 2.85234,2.65 3.92856,3.939368 -3.30801,7.189626 -9.32119,14.291852 -9.9187,21.569048 0.9707,2.153046 2.76786,1.630092 4.21788,2.550765 -1.42171,2.651216 1.97448,3.020226 1.72895,3.647436 -0.5402,0.3385 0.96319,1.67236 1.706,2.49254 0.74285,0.82018 1.76189,1.86488 6.230067,2.61036 4.46817,0.74548 13.75346,0.9398 12.86211,1.60164 -25.297927,1.3623 -80.975596,-1.3434 -78.295711,-0.43163 -0.183462,0.66159 20.748281,1.3447 35.6235,1.18081 2.976114,0.50702 2.205593,-1.25533 2.355347,-2.14387 -14.151659,-1.523 -28.305783,-1.25564 -42.458795,-1.81203 l -0.523293,3.06028 -21.125603,-1.31391 2.907718,-14.681497 C 14.605404,91.964608 8.9062255,91.667068 0.12819753,91.734309 -0.84917347,91.657649 -1.1634985,91.621295 -1.3326205,88.303915 -1.9891575,75.426329 -0.60464547,70.879438 -0.42081347,61.936199 16.679314,60.563559 50.448243,60.326341 50.146565,61.868619 c -0.15322,10.371455 -0.400949,20.380656 -1.106593,31.047682 -0.05638,0.852059 -1.484445,1.245619 -2.424139,1.569242 -12.995381,1.144336 -22.087417,0.166441 -22.059635,-0.390211 0.04112,-0.317314 15.381499,-0.243218 23.072248,-0.364826 1.047063,-8.926353 2.195169,-20.556815 1.056852,-32.812614 3.543988,-1.078137 -50.0283425,-1.578594 -50.7312345,-0.928108 -1.004385,0.929502 -0.324671,32.864256 -0.650055,33.174181 0.04096,0.713928 0.0127,-0.330282 14.9527155,0.573352 0.677307,0.178562 -3.2975825,12.563133 -3.2685045,12.567953 1.2221115,-8.662328 2.5439695,-12.87728 5.7211125,-25.317983 0.436959,-0.223684 0.455295,0.507735 0.608965,0.844745 3.572378,0.269902 8.666877,-0.409453 10.71581,0.68312 -0.442251,2.430759 -5.665893,24.887828 -3.860191,25.810708 0.653177,0.22419 9.571805,1.06304 9.31029,1.13658 -7.203572,0.0781 -14.626669,-0.13976 -21.8945615,-0.52601 -0.809096,-0.14352 -0.666195,-0.53904 -0.621427,-0.9086 -2.322857,-0.78516 -30.0386745,-0.32281 -33.6739175,-0.15449" />
  </g>
</svg>
