<?xml version="1.0" encoding="UTF-8" standalone="no"?>
<!-- Created with Inkscape (http://www.inkscape.org/) -->

<svg xmlns:dc="http://purl.org/dc/elements/1.1/" xmlns:cc="http://creativecommons.org/ns#" xmlns:rdf="http://www.w3.org/1999/02/22-rdf-syntax-ns#" xmlns:svg="http://www.w3.org/2000/svg" xmlns="http://www.w3.org/2000/svg" xmlns:sodipodi="http://sodipodi.sourceforge.net/DTD/sodipodi-0.dtd" xmlns:inkscape="http://www.inkscape.org/namespaces/inkscape" width="231.01575mm" height="84.991287mm" viewBox="0 0 231.01575 84.991287" version="1.1" id="svg1513" inkscape:version="1.0.1 (3bc2e813f5, 2020-09-07)" sodipodi:docname="svg-1024.svg">
  <defs id="defs1507" />
  <sodipodi:namedview id="base" pagecolor="#ffffff" bordercolor="#666666" borderopacity="1.0" inkscape:pageopacity="0.0" inkscape:pageshadow="2" inkscape:zoom="0.35683908" inkscape:cx="805.13661" inkscape:cy="532.04203" inkscape:document-units="mm" inkscape:current-layer="layer1" inkscape:document-rotation="0" showgrid="false" inkscape:window-width="1920" inkscape:window-height="1057" inkscape:window-x="1912" inkscape:window-y="-8" inkscape:window-maximized="1" />
  <metadata id="metadata1510">
    <rdf:RDF>
      <cc:Work rdf:about="">
        <dc:format>image/svg+xml</dc:format>
        <dc:type rdf:resource="http://purl.org/dc/dcmitype/StillImage" />
        <dc:title />
      </cc:Work>
    </rdf:RDF>
  </metadata>
  <g inkscape:label="Layer 1" inkscape:groupmode="layer" id="layer1" transform="translate(107.1924,-7.3972136)">
    <path style="display:inline;fill:none;stroke:#999;stroke-width:0.52916667;stroke-linecap:butt;stroke-linejoin:miter;stroke-miterlimit:4;stroke-dasharray:none;stroke-opacity:1" d="m -107.19084,86.051821 c 11.819331,0.0695 23.866498,0.709684 35.290466,-0.210997 -1.609567,-0.802794 -3.444558,-1.49301 -5.925132,-1.860942 -5.633271,-12.271473 -6.24459,-18.724822 -6.485864,-22.989045 0.678101,-5.247791 4.641268,-4.146677 7.172722,-3.846473 2.531454,0.300204 7.476278,2.421985 11.166157,4.485995 3.866039,1.935183 3.815927,5.169432 4.244261,6.817659 0.428308,1.648227 1.24161,9.989089 1.453171,13.082246 0.211587,3.093154 -2.085393,3.198738 -2.142014,-0.4093 -0.05662,-3.608038 -0.720328,-7.646818 -1.455843,-12.691943 -0.735489,-5.045123 -10.711312,-5.902286 -16.95749,-6.739576 5.620729,0.299578 8.217456,-2.185146 8.935588,-6.591657 0.718132,-4.406511 0.91104,-12.728196 6.27208,-18.362472 1.417161,-1.489392 4.3189,-3.675629 6.63964,-2.626775 3.182249,1.438227 4.423939,2.258631 5.796068,2.987127 1.372155,0.728493 1.757812,-0.08006 0.615156,-1.187455 -1.142656,-1.107403 -5.882164,-4.213467 -7.719668,-4.338459 -1.837479,-0.124992 -0.9212,1.194562 0.21717,0.361008 1.138396,-0.833554 2.189215,-2.825879 2.149422,-3.945257 -0.130281,-4.778918 -1.608667,-5.500145 0.860028,-9.175811 2.468668,-3.675669 7.055379,-2.387272 7.967795,-1.96336 0.912415,0.423916 2.12979,1.784263 2.796831,2.468166 -1.990011,-1.151308 -4.512284,-0.766421 -6.714914,-0.843595 -2.863717,0.04973 -3.791294,2.571012 -4.113477,3.966208 -0.322209,1.395195 0.08366,4.006821 0.239792,4.891574 0.156131,0.884754 2.960449,1.897142 3.736499,0.422026 0.590814,-1.412271 1.644861,-3.1478 2.298276,-3.36161 1.386549,-0.218332 1.942651,0.04974 2.741401,0.124873 0.457915,0.837012 1.323658,0.836816 2.276713,0.772927 0.510831,-0.88202 1.213274,-2.387261 2.434696,-2.086642 1.221396,0.300622 1.111753,0.335068 1.801998,0.494451 2.449512,0.597786 1.490715,-0.725559 0.822007,-1.560238 -2.891313,-3.609062 -1.853882,-1.904947 -3.111843,-3.25873 -1.018488,-1.096055 -1.224413,-0.281223 -1.451161,0.115216 -1.367075,2.390256 -2.007923,4.683974 -2.732299,7.079644 -0.183409,2.934629 0.101918,3.841843 1.54313,6.926289 0.406347,1.395247 0.0794,1.188065 0.853016,2.083211 0.209974,0.282355 2.069201,1.393206 2.207049,0.454927 0.349461,-0.660635 -0.874687,-1.109771 -1.784985,-0.801198 -0.284957,0.09659 -0.846059,-0.12028 -1.140011,-0.187899 -1.481508,-0.149529 -1.970352,-4.197301 -1.970352,-4.197301 -0.188489,-1.488244 -0.796792,-2.815288 -0.348191,-4.548108 0.390339,-0.0227 0.695298,-0.14801 1.452959,0.270568 3.190557,2.408775 -2.221997,4.617445 -3.281759,3.799867 -0.447279,-0.396161 -0.901039,-1.037762 -0.672571,-3.220598 0.07506,-0.717299 1.060132,-2.888872 2.551403,-1.675289 0.294852,-1.72425 1.743366,-3.509759 1.607873,-5.369497 -0.03037,-0.828574 0.158618,-1.893128 0.653865,-2.120251 1.271402,-0.200729 0.81878,1.637884 0.828384,2.027885 1.516062,0.658736 2.226469,1.176518 3.075093,1.975319 0.512869,0.482745 0.37174,2.750505 0.174599,4.138178 -0.208042,1.46417 -1.409012,4.140753 -1.409012,4.140753 -0.870321,2.103369 -1.754532,4.145919 -3.417491,5.822803 -1.131993,1.167167 -2.157915,0.914011 -3.134333,-0.0019 -0.353219,-0.497338 -0.637091,-1.029298 -0.848572,-1.59738 -0.469953,-2.620791 0.372666,-1.923871 0.353113,-0.20374 -1.60065,3.852114 -0.662702,4.048319 -0.37727,5.283198 3.084222,4.568611 4.911408,8.67411 7.65429,12.367821 -1.604036,-3.057914 -2.233083,-5.663766 -4.730273,-8.722212 -1.272646,-1.068573 -1.983952,-2.585077 -3.63355,-3.430863 -1.152392,-0.590859 -2.627259,-0.779777 -3.442573,-0.319241 -4.657249,2.630752 -3.805052,3.046786 -5.079709,4.916549 -1.27463,1.869762 -0.405289,3.450637 -0.177085,4.991618 1.262697,3.264461 2.542354,6.539741 4.637246,10.334496 -1.483757,-1.133354 -2.948332,-1.807123 -4.729745,-1.308815 3.11031,1.238629 3.798941,2.41472 5.424699,3.863134 -0.1515,1.106649 -1.312121,1.202994 -2.090552,1.682006 1.83306,7.691769 2.136246,15.98249 2.192126,22.580164 -1.429729,-1.299803 -2.200381,-5.334643 -3.52335,-10.191277 -0.935038,-5.780682 -1.269762,-14.018204 5.60107,-15.014069 10.59217,0.154842 13.389345,1.349327 17.900491,6.353257 1.469179,1.569397 3.36214,10.207799 3.549015,19.255512 -0.72599,0.247312 -0.938265,-0.193582 -1.354322,-1.028594 -2.224511,-6.230972 -1.191128,-9.877473 -3.244612,-14.562569 -2.053511,-4.685093 -3.879136,-4.838851 -6.628818,-5.642427 -2.749709,-0.803579 -4.860819,-0.281345 -7.758907,-1.165527 -1.486799,-0.453615 -0.63156,-1.206521 1.422083,-1.160007 2.053643,0.04651 6.12439,0.210688 6.691524,-3.391522 -0.600207,-9.89284 4.469818,-14.542741 5.97363,-16.16148 1.397397,-1.3383 3.044852,-1.715725 4.905428,-1.274009 4.051089,1.011251 7.280143,2.389955 11.2581,3.895657 1.749584,0.662233 2.110026,-0.895374 1.26799,-1.682494 -2.984818,-2.790068 -10.124573,-5.676672 -13.521928,-4.630452 -3.397356,1.046219 -1.639941,1.203847 0.140731,0.388284 1.780699,-0.815562 1.224042,-3.231472 1.091221,-4.471704 -0.813144,-2.683667 -2.568098,-4.012812 -1.619673,-9.229863 0.101891,-2.294986 3.582617,-8.371099 10.307135,-7.423357 1.566968,0.290605 2.878217,0.500648 2.989077,0.277501 0.172958,-0.348158 0.418968,-0.534279 0.05845,-0.681977 -0.821717,-0.33663 -1.971649,-0.573289 -2.118519,-0.117359 -0.728742,2.261849 0.176953,6.201847 -0.218863,9.573498 -0.900483,0.148577 -1.616181,-0.01154 -1.990117,0.417381 -0.373988,0.428887 -2.276316,3.623095 0.477361,5.62174 1.65235,0.921684 2.32918,0.19598 3.935863,-1.154383 0.963348,-0.752383 0.706437,-3.532772 0.167772,-3.956804 -0.81071,-0.638196 -3.152563,-0.761513 -3.104489,1.048747 -0.108505,0.140253 0.584968,4.054939 1.500003,4.466721 2.4561,1.800815 5.07783,5.019106 7.347823,5.217742 0.587322,0.05139 1.146016,-0.681236 0.187722,-1.115587 -2.209324,-1.001355 -2.596039,-1.85366 -7.79272,-5.925093 -0.384361,-0.947737 0.17018,-4.587491 0.268737,-6.705904 0.456697,-2.109391 0.694425,-5.981663 1.994667,-7.007963 3.069723,0.281657 5.034836,0.784206 6.888957,2.021567 0.545703,1.134991 1.466479,2.163069 -0.06041,3.888867 -1.952598,0.212334 -2.980293,-0.516906 -4.450874,-1.364625 -0.919162,-0.406234 -0.304059,1.541533 -0.446061,2.691955 -0.824441,1.932339 -4.947338,1.153647 -5.900552,1.104011 -0.947817,-0.540478 -1.934527,-0.235164 -2.960767,0.926915 -0.322844,1.474552 -0.144595,2.456233 -1.478677,4.909357 -1.475793,2.713689 -2.657475,1.119902 -3.052074,0.660082 -0.737156,-1.181221 -1.079924,-3.700782 -1.070452,-5.601819 0.02064,-4.144695 6.896074,-5.959422 7.055909,-6.00325 6.757961,-1.853139 8.354324,-0.701958 8.996574,0.237569 1.710743,2.502657 2.70174,6.399046 1.91307,8.825545 l -2.677875,8.238737 c -0.312631,0.961821 -1.170993,2.094381 -2.438902,1.797878 -1.331595,-0.311399 -2.611702,-0.449355 -3.959913,-1.907847 -0.548111,-0.592958 -1.171416,-1.391544 -0.224446,-1.081831 1.90791,0.623991 4.296145,2.33621 4.776205,6.433399 0.280247,2.391773 0.473948,2.464568 1.0872,3.580525 2.202576,4.007993 7.3710534,10.771952 7.1942324,11.085009 -0.5052224,0.894583 -3.9652574,-6.413346 -6.9635954,-8.530963 -1.837399,-1.327676 -4.9716,-2.464853 -8.380069,-1.671283 -1.576493,0.520679 -3.450881,1.354278 -2.766086,4.682848 1.730851,5.267968 6.831383,11.994422 7.015162,13.528302 0.03913,0.326686 -3.573674,-3.873151 -6.613578,-5.576129 -0.978826,-0.548327 -1.78435,-0.790752 -0.813038,0.63799 1.24206,1.826932 2.747434,2.966482 4.002379,4.413695 0.581263,0.670335 0.852434,1.806921 -0.233072,1.450943 -1.34231,-0.440179 -4.219125,-1.25149 -5.31024,-1.222097 -0.546788,0.01474 0.04882,0.660088 0.796819,1.43456 3.293137,3.409582 3.53359,3.86892 3.730652,6.748243 0.269372,3.935796 0.600101,8.26189 0.557291,10.212935 -0.0077,0.362117 1.500744,0.611561 2.763891,2.723258 0.42709,1.199145 -0.07496,1.431682 -0.85098,1.457011 -9.383791,0.248396 -17.391009,-0.237739 -28.10973,-0.358085 -0.774964,-0.0087 -1.724501,-1.268873 0.11692,-1.334926 7.046912,-0.252783 40.443652,2.158714 40.396715,2.345973 -2.268511,-6.024213 -5.335455,-11.741875 -3.529039,-19.33054 3.287845,-6.030796 9.0976774,-5.564963 14.59018738,-5.916568 6.80259002,-0.0109 10.96205962,1.053206 14.85616962,2.225228 5.33103,2.032654 5.17316,3.562988 5.90703,5.174938 4.63952,10.972107 3.73645,11.080914 4.90069,15.882744 0.60759,2.506046 -0.92638,3.215299 -1.66489,0.02888 -1.05388,-4.547031 -1.847,-8.37043 -3.9425,-12.694912 -2.18932,-4.751012 -15.7220696,-7.49875 -23.6057496,-9.536197 -8.0516744,0.203652 -0.61929,3.79249 0.21637,0.353994 0.3556,-7.415411 -1.55077,-18.025327 0.63646,-22.121876 1.84638998,-3.692279 4.09823,-5.252226 8.29511,-7.423772 5.0618996,-1.325679 4.5595396,2.476376 6.7888596,6.181018 2.22935,3.704649 3.6349,9.025017 5.26579,13.731987 0.90326,2.852517 2.05828,4.706884 3.70949,6.47927 0.38348,0.411617 1.00999,1.540457 0.84629,2.089171 -2.19445,2.429449 -4.25405,1.106122 -0.67683,-0.937019 7.11841,-3.334184 9.90629,-6.610327 11.28665,-8.114835 2.48566,1.795616 0.90556,7.039385 3.79079,9.483167 2.4555,-1.368592 3.44109,-2.618134 4.61989,-4.306726 0.8925,-2.267921 -1.07254,-5.734174 -2.23242,-7.389048 -0.88815,-0.314169 -3.54417,-0.660167 -5.62356,1.166347 2.08095,0.29618 2.7803,-1.109282 4.76221,-2.110846 6.66737,-5.602782 2.76722,-10.129742 4.13321,-13.972603 2.13966,-4.069647 3.62652,1.928116 3.9329,5.487132 -0.43354,4.286499 -2.59215,2.004132 -0.37978,-0.08934 0.78348,-1.035788 2.72981,-2.295753 3.34007,-2.048669 0.71221,0.288348 2.69338,2.529396 0.24392,3.837649 0.38693,-1.130535 0.7306,-1.5558 1.99144,-1.373738 0.60643,-0.03595 0.59709,0.583965 0.65569,1.642102 l -0.73993,1.969617 c 0.22273,-0.766551 0.79756,-0.777404 1.39586,-0.737934 0.83902,1.777111 -0.71615,2.37865 -0.92546,3.405998 1.02418,-0.337731 2.1902,0.511317 1.49728,1.211662 -5.8882,6.161479 -8.8211,2.654673 -13.75508,9.616289 -3.49816,3.892984 -6.25335,8.312607 -10.22628,10.972818 -3.1873,2.465623 -4.76872,1.421718 -6.71137,1.452994 -1.94262,0.03127 -4.22494,-1.458817 -6.25766,-2.220068 0,0 -3.34623,-1.827713 -5.14913,-3.943202 -1.8028996,-2.115487 -4.7755696,-8.868117 -4.7755696,-8.868117 -1.30432,-3.586011 -2.23817,-7.184186 -4.28366,-11.330392 -1.66436,1.783705 -1.46164,5.927677 -2.69192002,8.453207 0.93496,0.543804 2.09912002,-0.811016 3.30766002,-0.317166 -2.75114002,-4.951648 -2.07375,-4.005183 -3.13947002,-6.331583 -1.04989,-3.624704 0.67921,-5.507458 1.68667002,-6.565844 3.75118,-4.017211 9.4005896,-5.716498 9.3431796,-9.824149 0.97856,7.212973 7.66294,9.077717 10.02368,14.673848 -1.00824,0.691777 -1.97329,1.846889 -2.98188,3.117892 -0.92286,-1.222772 -1.79128,-2.262341 -1.68058,-4.936964 1.93569,-0.452426 3.92832,0.970347 5.83512,2.713607 1.64436,2.567532 2.83454,5.815391 4.20061,8.799772 -1.91043,-3.164277 -3.09674,-8.883375 -2.70206,-11.247356 0.39463,-2.363981 -0.57012,-7.470135 -0.57012,-7.470135 -0.73946,0.687615 -1.32779,3.035888 -1.97292,4.759783 0.17325,-2.355135 -0.33417,-4.330859 0.53276,-6.484641 0.23334,-0.834279 0.53205,-1.836542 0.73025,-2.737959 4.07096,-10.988644 2.87534,1.907157 -3.2064,2.264458 -1.30951,0.044 -4.55954,-0.883211 -7.55039,-4.087705 -0.68191,-2.243092 -1.13136,-4.224544 -1.55279,-6.344084 -0.4214496,-2.119545 -0.8715396,-4.036629 0.14386,-7.159627 1.22626,-1.199439 0.29411,-2.2644 4.55504,-3.695722 5.18824,-1.076216 4.89333,-2.358316 5.03176,-3.975095 0.85773,2.998383 2.79218,4.489898 5.24727,7.263927 0.72565,1.00004 1.57036,0.922565 1.39309,3.940948 -0.57912,3.393464 -0.346,5.648182 0.16004,7.735213 1.61949,0.994068 1.7408,-0.224701 2.25375,-1.317197 0.35703,-1.70157 0.61688,-2.512039 0.43474,-4.421767 -0.12465,-1.679503 -1.81325,-1.920332 -2.62639,-1.145794 -0.53988,0.514258 -0.31779,5.333736 -0.31779,5.333736 0.66212,-0.167349 0.81717,0.423907 1.13186,-1.302494 0.38301,-3.108029 1.41856,-5.302909 0.5397,-9.400947 -1.2936,-3.879319 -1.18248,-6.808307 -4.59227,-8.6262084 -3.40397,-1.8148088 -6.32238,-1.7537244 -9.6175,0.3498004 -3.64847,2.329098 -5.4754696,5.530088 -6.2931896,7.337113 -0.83333,1.841587 -0.16724,4.524108 -0.17624,7.175648 0.65101,1.913856 0.53224,3.567533 2.21282,5.829409 1.4784296,1.144032 3.2186496,1.513726 5.0070196,1.740889 1.65764,0.287576 2.79157,0.08231 3.8553,0.858023 0.91715,0.668814 0.64828,1.196396 -0.49673,1.165019 -6.77352,-1.211485 -6.74574,-1.579597 -9.5149196,-3.518364 -0.79192,-0.946531 -1.51926,-1.148177 -2.37876,-2.874425 -0.2722,-1.1537 -0.64744,-4.380328 -0.0201,-5.429522 0.31589,-0.866027 1.65174,-1.503461 2.37588,-0.911458 0.72411,0.592 1.05632,4.020457 0.73541,5.582264 l -0.71215,3.304801 c -0.49226,-0.763748 -0.98624,-1.114578 -1.47603,-2.463458 -0.10338,-0.991812 -0.35296,-1.984238 -0.10166,-2.974557 0.39831,-0.437991 0.85733,-0.02972 0.92432,0.633836 0.34581,2.467824 0.77664,4.090945 0.1841,6.19973 -1.08849,2.162509 -5.03153,6.115071 -6.18358,5.085223 1.6106,1.436881 1.85735,-14.196264 2.06153,-15.59504 0.38563,-2.641909 3.68893,-11.085803 8.0513496,-12.9787808 1.63854,-0.7109989 7.94835,-1.6199009 8.36597,1.7155718 -0.33142,-4.8663704 5.74942,-0.099838 6.6548,1.18052 0.78102,1.433399 3.75803,3.812572 3.79135,10.503123 -0.14452,3.693721 -0.4807,6.677176 -1.61317,9.950876 -1.75625,6.889523 -0.92821,10.657515 3.15764,10.265998 3.07668,-0.858745 2.04796,-1.577025 -0.0196,0.846254 -2.72536,3.130785 -4.94223,2.173475 -6.54092,0.4694 -3.48178,-5.612162 -1.72209,-5.017805 -0.87143,-0.240766 0.2622,2.146967 0.33192,3.988425 0.81926,5.106239 1.04182,3.788487 3.30123,3.538754 4.35157,10.611178 0.37624,2.567903 0.15095,4.705858 -0.19238,6.574033 -0.26762,2.483776 -0.86778,3.203692 -1.07521,7.149598 -1.36321,4.470498 -1.02804,8.452075 -1.03042,13.215961 0.12009,0.351938 0.1969,0.703694 0.25913,1.055389 0.49303,4.786637 4.34094,5.950254 0.17494,-0.08603 -0.90868,-1.834679 -1.59943,-3.956561 -2.31843,-6.962741 -0.49528,-3.116265 1.27301,-4.216265 2.1173,-5.006028 0.84431,-0.789765 1.03806,-0.668311 1.51707,-0.349292 0.479,0.319019 -0.3741,2.427986 0.0204,2.690172 0.49533,0.709681 6.02139,-2.801967 9.31876,-4.058092 1.53281,-0.929383 3.38698,-0.87757 3.26189,-2.416492 -4.58171,-7.169238 -3.7627,-1.866051 -1.02018,0.410964 0.58033,0.278331 1.44483,0.25945 2.28478,0.381246 11.37565,-1.24306 11.5793,-3.06804 0.77877,-2.792058 4.10954,1.19117 4.45389,-0.775343 6.84334,-0.785844 0,0 2.95553,0.71102 3.94272,0.94339 0.98721,0.232368 3.56513,0.870447 1.31397,-0.984239 -2.25112,-1.854687 -6.5977,-2.39495 -11.49035,-2.715723 -1.2574,-0.205362 -2.5165,-0.0071 -3.77613,0.326077 -0.191,0.198081 -0.0101,0.696281 -0.90318,0.327801 -0.6559,-0.08715 -1.31234,-0.0478 -1.97022,0.32716 -0.68816,-0.357373 0.45283,7.21284 6.64366,8.787151 1.08508,0.275939 -6.59085,-1.378651 -6.48187,-1.567048 l 0.81807,1.399477 7.71514,1.482169 20.07716,1.116962 c 12.29083,-1.752491 22.80399,-2.025859 34.101569,-4.778303 2.52949,-1.061461 0.52795,-1.444726 -0.57383,-1.231628 -7.339779,1.419564 -14.504509,2.761515 -21.754859,3.598712 -6.18091,0.143939 -11.84278,-1.251532 -17.72933,-1.980692 -2.7373,-0.381254 -5.33146,-1.046377 -8.37224,-0.825881 -1.38208,0.243938 -3.76468,0.252005 -0.12258,1.190053 4.76708,0.360638 9.35963,1.740512 13.91115,1.855391 3.15249,0.07957 9.14845,-1.647632 8.94856,-2.046772 0.0538,-0.646557 -10.21374,-2.608093 -15.34774,-3.78515 4.93741,0.81348 9.69629,1.455211 14.73456,1.773341 2.14713,0.271523 4.29419,0.567232 6.44277,0.413943 2.07325,0.136872 2.70563,-1.01849 2.95603,-2.501146 -0.95279,-7.601389 -2.94534,-9.383437 -4.58962,-13.874766 -0.83016,-1.138579 -1.41669,-1.16273 -2.04079,-1.358826 -7.27511,0.160597 -16.90396,0.07322 -21.82542,0.506378 -4.92146,0.433163 0.81277,1.106226 0.81277,1.106226 0.53345,0.08373 26.36832,1.50064 37.26373,0.138451 -0.4059,-12.227674 -0.21159,-24.453295 -1.60321,-36.68434 -15.38306,1.931131 -35.49732,1.74493 -46.04764,5.838868 -0.66823,1.239149 0.41934,15.293507 0.6449,15.609914 0.22555,0.316405 1.20467,4.770327 1.27696,7.94e-4 0.0722,-4.769421 -1.20359,-6.665199 -1.12509,-11.203033 0.32978,-1.892406 1.88841,-1.816058 3.33862,-1.91343 13.8643,-1.885876 39.45562,-6.640719 38.7759,-4.968454 1.50286,9.708295 1.23658,20.520798 1.61952,30.928099 -9.95143,1.317969 -17.14495,1.370711 -24.62356,1.507834 1.00232,2.995099 0.96446,5.708592 0.9955,8.645528 0.0777,1.786813 -4.70755,1.533607 -6.83594,2.172525 -1.03256,0.330171 -2.232,0.783992 0.66644,1.828766 7.42354,1.869318 10.76983,3.025545 18.60113,2.884305 0.63011,-0.09175 2.94169,0.213865 2.35252,-2.958799 0,0 -2.56368,-10.805408 -4.86794,-12.859517 1.12522,-0.08564 4.27784,6.66936 4.05895,6.85155 0.0929,0.0088 0.95697,3.523953 -3.36847,3.248406 -0.48339,-0.0308 -7.84537,-0.171152 -8.2414,-0.250601 -1.07201,-0.07251 -1.99374,0.648365 0.0539,0.953069 9.99593,0.828614 15.59621,0.990902 29.96176,2.430852 1.358059,0.173386 2.973649,0.03264 3.398709,2.308833 0.43973,1.327682 1.15776,2.454857 1.61221,3.735303 0.24175,0.681217 0.47305,1.526508 -0.38198,1.576401 -13.809899,1.608468 -24.773939,3.234203 -37.426049,5.675741 -8.12324,-1.013529 -17.42692,-2.05228 -25.90107,-2.579407 -2.46068,-0.09201 -2.80998,0.696137 -0.6971,0.986322 6.31256,0.927766 18.95345,1.804595 18.65839,4.190312 -0.0806,3.18412 1.1198,7.18771 -0.20833,8.706374 -4.26678,0.276386 -6.07624,-0.575244 -8.82169,-1.51442 6.65229,-0.19268 12.99642,0.886513 19.95742,2.65e-4 6.4825,-8.85285 -5.88161,-5.197975 1.36562,0.127963 4.79528,1.187534 37.957869,0.863827 52.739979,0.264432" id="path1021" sodipodi:nodetypes="cccczczzzzczsszzzzczzcczzcccczcsssccccscccccsccccssscccccccsszccccccccccczzszcccsszzcccsssczccsccsscccccccccscssssssssssscccsssssssssccsscccccssccccczcscccccccccccsccccccccczczcccccccccccczcccccczccccccccscccssscccscccczcccccccsscccccccccccccccczzccccccczzccccscccccsccccsccccccczsccczzccccccccccccsccccscccccccccc" />
  </g>
</svg>
